<svg xmlns="http://www.w3.org/2000/svg" xmlns:xlink="http://www.w3.org/1999/xlink" contentStyleType="text/css" data-diagram-type="DESCRIPTION" height="2290px" preserveAspectRatio="none" style="width:942px;height:2290px;background:#FFFFFF;" version="1.1" viewBox="0 0 942 2290" width="942px" zoomAndPan="magnify"><defs/><g><!--cluster Libro Electr?nico de Cr?ditos--><g class="cluster" data-entity="Libro Electr.nico de Cr.ditos" data-source-line="11" data-uid="ent0006" id="cluster_Libro Electr.nico de Cr.ditos"><rect fill="none" height="1349" rx="2.5" ry="2.5" style="stroke:#181818;stroke-width:1;" width="724.82" x="211.4" y="607.59"/><text fill="#000000" font-family="sans-serif" font-size="14" font-weight="bold" lengthAdjust="spacing" textLength="228.5938" x="459.5131" y="622.5851">Libro Electr&#243;nico de Cr&#233;ditos</text></g><!--entity UC_Login--><g class="entity" data-entity="UC_Login" data-source-line="13" data-uid="ent0007" id="entity_UC_Login"><ellipse cx="774.8811" cy="982.5942" fill="#FFFFFF" rx="64.3711" ry="15.2742" style="stroke:#111111;stroke-width:0.5;"/><text fill="#000000" font-family="sans-serif" font-size="14" lengthAdjust="spacing" textLength="91.793" x="728.9846" y="987.2427">Iniciar sesi&#243;n</text></g><!--entity UC_Forgot--><g class="entity" data-entity="UC_Forgot" data-source-line="14" data-uid="ent0008" id="entity_UC_Forgot"><ellipse cx="365.9669" cy="1919.5854" fill="#FFFFFF" rx="90.6769" ry="20.5354" style="stroke:#111111;stroke-width:0.5;"/><text fill="#000000" font-family="sans-serif" font-size="14" lengthAdjust="spacing" textLength="155.2715" x="288.3311" y="1924.2338">Recuperar contrase&#241;a</text></g><!--entity UC_Logout--><g class="entity" data-entity="UC_Logout" data-source-line="15" data-uid="ent0009" id="entity_UC_Logout"><ellipse cx="365.9746" cy="734.5909" fill="#FFFFFF" rx="64.9046" ry="15.3809" style="stroke:#111111;stroke-width:0.5;"/><text fill="#000000" font-family="sans-serif" font-size="14" lengthAdjust="spacing" textLength="93.2148" x="319.3672" y="739.2394">Cerrar sesi&#243;n</text></g><!--entity UC_RegistrarCliente--><g class="entity" data-entity="UC_RegistrarCliente" data-source-line="17" data-uid="ent0010" id="entity_UC_RegistrarCliente"><ellipse cx="365.968" cy="802.5856" fill="#FFFFFF" rx="73.678" ry="17.1356" style="stroke:#111111;stroke-width:0.5;"/><text fill="#000000" font-family="sans-serif" font-size="14" lengthAdjust="spacing" textLength="115.5068" x="308.2146" y="807.234">Registrar cliente</text></g><!--entity UC_BuscarCliente--><g class="entity" data-entity="UC_BuscarCliente" data-source-line="18" data-uid="ent0011" id="entity_UC_BuscarCliente"><ellipse cx="365.974" cy="870.5868" fill="#FFFFFF" rx="67.234" ry="15.8468" style="stroke:#111111;stroke-width:0.5;"/><text fill="#000000" font-family="sans-serif" font-size="14" lengthAdjust="spacing" textLength="99.3193" x="316.3143" y="875.2352">Buscar cliente</text></g><!--entity UC_EditarCliente--><g class="entity" data-entity="UC_EditarCliente" data-source-line="19" data-uid="ent0012" id="entity_UC_EditarCliente"><ellipse cx="365.9657" cy="942.5931" fill="#FFFFFF" rx="91.9657" ry="20.7931" style="stroke:#111111;stroke-width:0.5;"/><text fill="#000000" font-family="sans-serif" font-size="14" lengthAdjust="spacing" textLength="158.1768" x="286.8773" y="947.2416">Editar datos de cliente</text></g><!--entity UC_ToggleCliente--><g class="entity" data-entity="UC_ToggleCliente" data-source-line="20" data-uid="ent0013" id="entity_UC_ToggleCliente"><ellipse cx="365.9691" cy="1406.5918" fill="#FFFFFF" rx="105.2091" ry="23.4418" style="stroke:#111111;stroke-width:0.5;"/><text fill="#000000" font-family="sans-serif" font-size="14" lengthAdjust="spacing" textLength="187.4756" x="272.2313" y="1411.2403">Activar / desactivar cliente</text></g><!--entity UC_CompraFiada--><g class="entity" data-entity="UC_CompraFiada" data-source-line="22" data-uid="ent0014" id="entity_UC_CompraFiada"><ellipse cx="365.968" cy="663.5936" fill="#FFFFFF" rx="93.168" ry="21.0336" style="stroke:#111111;stroke-width:0.5;"/><text fill="#000000" font-family="sans-serif" font-size="14" lengthAdjust="spacing" textLength="160.877" x="285.5296" y="668.242">Registrar compra fiada</text></g><!--entity UC_RegistrarAbono--><g class="entity" data-entity="UC_RegistrarAbono" data-source-line="23" data-uid="ent0015" id="entity_UC_RegistrarAbono"><ellipse cx="365.9667" cy="1100.5933" fill="#FFFFFF" rx="72.2167" ry="16.8433" style="stroke:#111111;stroke-width:0.5;"/><text fill="#000000" font-family="sans-serif" font-size="14" lengthAdjust="spacing" textLength="111.9111" x="310.0111" y="1105.2418">Registrar abono</text></g><!--entity UC_SaldoMov--><g class="entity" data-entity="UC_SaldoMov" data-source-line="24" data-uid="ent0016" id="entity_UC_SaldoMov"><ellipse cx="774.8825" cy="815.5885" fill="#FFFFFF" rx="145.3425" ry="31.4685" style="stroke:#111111;stroke-width:0.5;"/><text fill="#000000" font-family="sans-serif" font-size="14" lengthAdjust="spacing" textLength="272.7744" x="638.4953" y="820.2369">Consultar saldo y &#250;ltimos movimientos</text></g><!--entity UC_AnularMov--><g class="entity" data-entity="UC_AnularMov" data-source-line="25" data-uid="ent0017" id="entity_UC_AnularMov"><ellipse cx="365.9678" cy="1329.5856" fill="#FFFFFF" rx="81.1778" ry="18.6356" style="stroke:#111111;stroke-width:0.5;"/><text fill="#000000" font-family="sans-serif" font-size="14" lengthAdjust="spacing" textLength="133.4443" x="299.2457" y="1334.234">Anular movimiento</text></g><!--entity UC_Historial--><g class="entity" data-entity="UC_Historial" data-source-line="27" data-uid="ent0018" id="entity_UC_Historial"><ellipse cx="365.9678" cy="1023.5896" fill="#FFFFFF" rx="111.7978" ry="24.7596" style="stroke:#111111;stroke-width:0.5;"/><text fill="#000000" font-family="sans-serif" font-size="14" lengthAdjust="spacing" textLength="201.7627" x="265.0865" y="1028.238">Ver historial de movimientos</text></g><!--entity UC_RepCartera--><g class="entity" data-entity="UC_RepCartera" data-source-line="28" data-uid="ent0019" id="entity_UC_RepCartera"><ellipse cx="774.8759" cy="683.5872" fill="#FFFFFF" rx="106.3859" ry="23.6772" style="stroke:#111111;stroke-width:0.5;"/><text fill="#000000" font-family="sans-serif" font-size="14" lengthAdjust="spacing" textLength="190.0391" x="679.8563" y="688.2356">Generar reporte de cartera</text></g><!--entity UC_RepMora--><g class="entity" data-entity="UC_RepMora" data-source-line="29" data-uid="ent0020" id="entity_UC_RepMora"><ellipse cx="774.8813" cy="1227.5943" fill="#FFFFFF" rx="117.3213" ry="25.8643" style="stroke:#111111;stroke-width:0.5;"/><text fill="#000000" font-family="sans-serif" font-size="14" lengthAdjust="spacing" textLength="213.6299" x="668.0663" y="1232.2427">Generar reporte de morosidad</text></g><!--entity UC_ExportCSV--><g class="entity" data-entity="UC_ExportCSV" data-source-line="30" data-uid="ent0021" id="entity_UC_ExportCSV"><ellipse cx="365.9669" cy="1174.5894" fill="#FFFFFF" rx="96.9469" ry="21.7894" style="stroke:#111111;stroke-width:0.5;"/><text fill="#000000" font-family="sans-serif" font-size="14" lengthAdjust="spacing" textLength="169.3057" x="281.3141" y="1179.2378">Exportar reportes a CSV</text></g><!--entity UC_AlertasMora--><g class="entity" data-entity="UC_AlertasMora" data-source-line="31" data-uid="ent0022" id="entity_UC_AlertasMora"><ellipse cx="365.974" cy="1253.5908" fill="#FFFFFF" rx="100.454" ry="22.4908" style="stroke:#111111;stroke-width:0.5;"/><text fill="#000000" font-family="sans-serif" font-size="14" lengthAdjust="spacing" textLength="177.0576" x="277.4452" y="1258.2392">Ver alertas de morosidad</text></g><!--entity UC_GestionUsuarios--><g class="entity" data-entity="UC_GestionUsuarios" data-source-line="33" data-uid="ent0023" id="entity_UC_GestionUsuarios"><ellipse cx="365.9723" cy="1483.5885" fill="#FFFFFF" rx="80.3423" ry="18.4685" style="stroke:#111111;stroke-width:0.5;"/><text fill="#000000" font-family="sans-serif" font-size="14" lengthAdjust="spacing" textLength="131.4824" x="300.2311" y="1488.2369">Gestionar usuarios</text></g><!--entity UC_Roles--><g class="entity" data-entity="UC_Roles" data-source-line="34" data-uid="ent0024" id="entity_UC_Roles"><ellipse cx="365.9694" cy="1559.5919" fill="#FFFFFF" rx="98.4094" ry="22.0819" style="stroke:#111111;stroke-width:0.5;"/><text fill="#000000" font-family="sans-serif" font-size="14" lengthAdjust="spacing" textLength="172.5459" x="279.6964" y="1564.2403">Asignar roles y permisos</text></g><!--entity UC_Seguridad--><g class="entity" data-entity="UC_Seguridad" data-source-line="35" data-uid="ent0025" id="entity_UC_Seguridad"><ellipse cx="365.9655" cy="1646.5931" fill="#FFFFFF" rx="137.1155" ry="29.8231" style="stroke:#111111;stroke-width:0.5;"/><text fill="#000000" font-family="sans-serif" font-size="14" lengthAdjust="spacing" textLength="255.5547" x="238.1882" y="1651.2415">Configurar par&#225;metros de seguridad</text></g><!--entity UC_Backup--><g class="entity" data-entity="UC_Backup" data-source-line="37" data-uid="ent0026" id="entity_UC_Backup"><ellipse cx="365.9677" cy="1835.5855" fill="#FFFFFF" rx="130.2277" ry="28.4455" style="stroke:#111111;stroke-width:0.5;"/><text fill="#000000" font-family="sans-serif" font-size="14" lengthAdjust="spacing" textLength="241.0557" x="245.4399" y="1840.234">Ejecutar backup diario autom&#225;tico</text></g><!--entity UC_Restore--><g class="entity" data-entity="UC_Restore" data-source-line="38" data-uid="ent0027" id="entity_UC_Restore"><ellipse cx="365.9654" cy="1741.5931" fill="#FFFFFF" rx="138.5654" ry="30.1131" style="stroke:#111111;stroke-width:0.5;"/><text fill="#000000" font-family="sans-serif" font-size="14" lengthAdjust="spacing" textLength="258.5967" x="236.6671" y="1746.2415">Restaurar informaci&#243;n desde backup</text></g><!--entity Tendero--><g class="entity" data-entity="Tendero" data-source-line="6" data-uid="ent0002" id="entity_Tendero"><ellipse cx="85.1997" cy="848.94" fill="#F1F1F1" rx="8" ry="8" style="stroke:#181818;stroke-width:0.5;"/><path d="M85.1997,856.94 L85.1997,883.94 M72.1997,864.94 L98.1997,864.94 M85.1997,883.94 L72.1997,898.94 M85.1997,883.94 L98.1997,898.94" fill="none" style="stroke:#181818;stroke-width:0.5;"/><text fill="#000000" font-family="sans-serif" font-size="14" lengthAdjust="spacing" textLength="57.8594" x="56.27" y="913.4351">Tendero</text></g><!--entity Admin--><g class="entity" data-entity="Admin" data-source-line="7" data-uid="ent0003" id="entity_Admin"><ellipse cx="85.2012" cy="1566.94" fill="#F1F1F1" rx="8" ry="8" style="stroke:#181818;stroke-width:0.5;"/><path d="M85.2012,1574.94 L85.2012,1601.94 M72.2012,1582.94 L98.2012,1582.94 M85.2012,1601.94 L72.2012,1616.94 M85.2012,1601.94 L98.2012,1616.94" fill="none" style="stroke:#181818;stroke-width:0.5;"/><text fill="#000000" font-family="sans-serif" font-size="14" lengthAdjust="spacing" textLength="158.4023" x="6" y="1631.4351">Due&#241;o / Administrador</text></g><!--entity Aux--><g class="entity" data-entity="Aux" data-source-line="8" data-uid="ent0004" id="entity_Aux"><ellipse cx="85.2024" cy="541.94" fill="#F1F1F1" rx="8" ry="8" style="stroke:#181818;stroke-width:0.5;"/><path d="M85.2024,549.94 L85.2024,576.94 M72.2024,557.94 L98.2024,557.94 M85.2024,576.94 L72.2024,591.94 M85.2024,576.94 L98.2024,591.94" fill="none" style="stroke:#181818;stroke-width:0.5;"/><text fill="#000000" font-family="sans-serif" font-size="14" lengthAdjust="spacing" textLength="107.8848" x="31.26" y="606.4351">Auxiliar de caja</text></g><!--entity Backup--><g class="entity" data-entity="Backup" data-source-line="9" data-uid="ent0005" id="entity_Backup"><ellipse cx="85.199" cy="2217.94" fill="#F1F1F1" rx="8" ry="8" style="stroke:#181818;stroke-width:0.5;"/><path d="M85.199,2225.94 L85.199,2252.94 M72.199,2233.94 L98.199,2233.94 M85.199,2252.94 L72.199,2267.94 M85.199,2252.94 L98.199,2267.94" fill="none" style="stroke:#181818;stroke-width:0.5;"/><text fill="#000000" font-family="sans-serif" font-size="14" lengthAdjust="spacing" textLength="134.5381" x="17.93" y="2282.4351">Sistema de Backup</text></g><!--link Tendero to UC_Login--><g class="link" data-entity-1="Tendero" data-entity-2="UC_Login" data-source-line="41" data-uid="lnk28" id="link_Tendero_UC_Login"><path d="M99.89,840.34 C116.96,791.51 146.11,704.17 164.4,627.59 C173.72,588.58 163.77,475.49 194.4,449.59 C263.26,391.37 535.15,409.45 599.53,472.59 C661.91,533.76 589.12,787.14 629.53,864.59 C655.21,913.81 705.9965,947.1781 740.1965,965.7381" fill="none" id="Tendero-to-UC_Login" style="stroke:#181818;stroke-width:1;"/><polygon fill="#181818" points="745.47,968.6,739.4677,960.7915,741.0754,966.2151,735.6519,967.8229,745.47,968.6" style="stroke:#181818;stroke-width:1;"/></g><!--link Tendero to UC_Logout--><g class="link" data-entity-1="Tendero" data-entity-2="UC_Logout" data-source-line="42" data-uid="lnk29" id="link_Tendero_UC_Logout"><path d="M114.45,842.83 C136.13,817.88 168.23,785.9 203.4,767.59 C234.26,751.53 266.2738,744.0818 297.6438,739.8518" fill="none" id="Tendero-to-UC_Logout" style="stroke:#181818;stroke-width:1;"/><polygon fill="#181818" points="303.59,739.05,294.1362,736.2886,298.6348,739.7182,295.2053,744.2168,303.59,739.05" style="stroke:#181818;stroke-width:1;"/></g><!--link Tendero to UC_RegistrarCliente--><g class="link" data-entity-1="Tendero" data-entity-2="UC_RegistrarCliente" data-source-line="43" data-uid="lnk30" id="link_Tendero_UC_RegistrarCliente"><path d="M114.31,867.66 C137.86,858.77 172.49,846.31 203.4,837.59 C237.52,827.97 270.4367,820.6678 301.4567,814.4578" fill="none" id="Tendero-to-UC_RegistrarCliente" style="stroke:#181818;stroke-width:1;"/><polygon fill="#181818" points="307.34,813.28,297.7299,811.1245,302.4373,814.2615,299.3003,818.9689,307.34,813.28" style="stroke:#181818;stroke-width:1;"/></g><!--link Tendero to UC_BuscarCliente--><g class="link" data-entity-1="Tendero" data-entity-2="UC_BuscarCliente" data-source-line="44" data-uid="lnk31" id="link_Tendero_UC_BuscarCliente"><path d="M114.46,877.78 C157.37,876.55 234.1625,874.3418 292.8025,872.6618" fill="none" id="Tendero-to-UC_BuscarCliente" style="stroke:#181818;stroke-width:1;"/><polygon fill="#181818" points="298.8,872.49,289.6891,868.7494,293.8021,872.6332,289.9182,876.7461,298.8,872.49" style="stroke:#181818;stroke-width:1;"/></g><!--link Tendero to UC_EditarCliente--><g class="link" data-entity-1="Tendero" data-entity-2="UC_EditarCliente" data-source-line="45" data-uid="lnk32" id="link_Tendero_UC_EditarCliente"><path d="M114.46,885.08 C157.72,895.01 235.6421,912.8975 294.3621,926.3775" fill="none" id="Tendero-to-UC_EditarCliente" style="stroke:#181818;stroke-width:1;"/><polygon fill="#181818" points="300.21,927.72,292.3331,921.8077,295.3368,926.6013,290.5432,929.6049,300.21,927.72" style="stroke:#181818;stroke-width:1;"/></g><!--link Tendero to UC_ToggleCliente--><g class="link" data-entity-1="Tendero" data-entity-2="UC_ToggleCliente" data-source-line="46" data-uid="lnk33" id="link_Tendero_UC_ToggleCliente"><path d="M90.36,917.12 C102.29,1020.64 139.92,1301.32 203.4,1365.59 C220.18,1382.58 237.1223,1391.3253 260.2423,1397.4853" fill="none" id="Tendero-to-UC_ToggleCliente" style="stroke:#181818;stroke-width:1;"/><polygon fill="#181818" points="266.04,1399.03,258.3732,1392.8477,261.2085,1397.7427,256.3136,1400.5781,266.04,1399.03" style="stroke:#181818;stroke-width:1;"/></g><!--link Tendero to UC_CompraFiada--><g class="link" data-entity-1="Tendero" data-entity-2="UC_CompraFiada" data-source-line="47" data-uid="lnk34" id="link_Tendero_UC_CompraFiada"><path d="M101.35,840.2 C119.45,799.45 153.66,736.25 203.4,701.59 C225.51,686.19 247.1497,678.2108 273.1697,672.7108" fill="none" id="Tendero-to-UC_CompraFiada" style="stroke:#181818;stroke-width:1;"/><polygon fill="#181818" points="279.04,671.47,269.4073,669.4177,274.1481,672.504,271.0618,677.2448,279.04,671.47" style="stroke:#181818;stroke-width:1;"/></g><!--link Tendero to UC_RegistrarAbono--><g class="link" data-entity-1="Tendero" data-entity-2="UC_RegistrarAbono" data-source-line="48" data-uid="lnk35" id="link_Tendero_UC_RegistrarAbono"><path d="M99.71,916.96 C116.91,960.04 150.88,1028.71 203.4,1065.59 C229.83,1084.14 258.2889,1092.3116 288.5489,1096.5816" fill="none" id="Tendero-to-UC_RegistrarAbono" style="stroke:#181818;stroke-width:1;"/><polygon fill="#181818" points="294.49,1097.42,286.1372,1092.2017,289.539,1096.7214,285.0194,1100.1232,294.49,1097.42" style="stroke:#181818;stroke-width:1;"/></g><!--link Tendero to UC_SaldoMov--><g class="link" data-entity-1="Tendero" data-entity-2="UC_SaldoMov" data-source-line="49" data-uid="lnk36" id="link_Tendero_UC_SaldoMov"><path d="M100.48,840.02 C118.01,791.21 147.5,704.26 164.4,627.59 C175.31,578.12 156.29,434.98 194.4,401.59 C329.84,282.94 466.46,280.3 599.53,401.59 C652.81,450.15 591.83,663.15 629.53,724.59 C646.66,752.49 670.5822,770.4624 698.2822,785.0624" fill="none" id="Tendero-to-UC_SaldoMov" style="stroke:#181818;stroke-width:1;"/><polygon fill="#181818" points="703.59,787.86,697.4933,780.125,699.1668,785.5286,693.7631,787.2021,703.59,787.86" style="stroke:#181818;stroke-width:1;"/></g><!--link Tendero to UC_AnularMov--><g class="link" data-entity-1="Tendero" data-entity-2="UC_AnularMov" data-source-line="50" data-uid="lnk37" id="link_Tendero_UC_AnularMov"><path d="M91.98,917.19 C106.64,1009.89 148.05,1241.26 203.4,1293.59 C225.12,1314.12 249.928,1323.0191 278.768,1327.3991" fill="none" id="Tendero-to-UC_AnularMov" style="stroke:#181818;stroke-width:1;"/><polygon fill="#181818" points="284.7,1328.3,276.4026,1322.994,279.7567,1327.5492,275.2014,1330.9033,284.7,1328.3" style="stroke:#181818;stroke-width:1;"/></g><!--link Tendero to UC_Historial--><g class="link" data-entity-1="Tendero" data-entity-2="UC_Historial" data-source-line="51" data-uid="lnk38" id="link_Tendero_UC_Historial"><path d="M114.17,909.62 C136.3,932.38 169.1,962.37 203.4,980.59 C226.22,992.71 246.892,1000.0942 271.732,1006.5342" fill="none" id="Tendero-to-UC_Historial" style="stroke:#181818;stroke-width:1;"/><polygon fill="#181818" points="277.54,1008.04,269.8319,1001.9094,272.7,1006.7852,267.8242,1009.6533,277.54,1008.04" style="stroke:#181818;stroke-width:1;"/></g><!--link Tendero to UC_RepCartera--><g class="link" data-entity-1="Tendero" data-entity-2="UC_RepCartera" data-source-line="52" data-uid="lnk39" id="link_Tendero_UC_RepCartera"><path d="M100.64,840.05 C118.35,791.28 148.02,704.37 164.4,627.59 C178.43,561.84 151.67,370.53 203.4,327.59 C339.15,214.93 461.44,242.81 599.53,352.59 C704.01,435.65 751.6421,592.8298 766.9421,653.9098" fill="none" id="Tendero-to-UC_RepCartera" style="stroke:#181818;stroke-width:1;"/><polygon fill="#181818" points="768.4,659.73,770.0933,650.0278,767.1851,654.8798,762.333,651.9717,768.4,659.73" style="stroke:#181818;stroke-width:1;"/></g><!--link Tendero to UC_RepMora--><g class="link" data-entity-1="Tendero" data-entity-2="UC_RepMora" data-source-line="53" data-uid="lnk40" id="link_Tendero_UC_RepMora"><path d="M91.09,840.09 C100.82,781.71 128.54,672.49 203.4,624.59 C316.13,552.45 387.57,559.54 504.53,624.59 C663.97,713.27 564.99,844.95 629.53,1015.59 C657.73,1090.14 713.0998,1159.5826 746.2498,1197.3126" fill="none" id="Tendero-to-UC_RepMora" style="stroke:#181818;stroke-width:1;"/><polygon fill="#181818" points="750.21,1201.82,747.2746,1192.4188,746.9098,1198.0638,741.2647,1197.6991,750.21,1201.82" style="stroke:#181818;stroke-width:1;"/></g><!--link Tendero to UC_ExportCSV--><g class="link" data-entity-1="Tendero" data-entity-2="UC_ExportCSV" data-source-line="54" data-uid="lnk41" id="link_Tendero_UC_ExportCSV"><path d="M92.95,917.1 C104.9,973.54 135.28,1078.13 203.4,1134.59 C223.54,1151.28 243.782,1159.8281 269.102,1165.6381" fill="none" id="Tendero-to-UC_ExportCSV" style="stroke:#181818;stroke-width:1;"/><polygon fill="#181818" points="274.95,1166.98,267.0726,1161.0685,270.0767,1165.8617,265.2834,1168.8658,274.95,1166.98" style="stroke:#181818;stroke-width:1;"/></g><!--link Tendero to UC_AlertasMora--><g class="link" data-entity-1="Tendero" data-entity-2="UC_AlertasMora" data-source-line="55" data-uid="lnk42" id="link_Tendero_UC_AlertasMora"><path d="M88.2,917.09 C93.97,986.88 116.37,1134.37 203.4,1213.59 C221.89,1230.42 240.4995,1239.0239 264.7495,1244.9139" fill="none" id="Tendero-to-UC_AlertasMora" style="stroke:#181818;stroke-width:1;"/><polygon fill="#181818" points="270.58,1246.33,262.7784,1240.3188,265.7213,1245.1499,260.8902,1248.0928,270.58,1246.33" style="stroke:#181818;stroke-width:1;"/></g><!--link Admin to UC_Login--><g class="link" data-entity-1="Admin" data-entity-2="UC_Login" data-source-line="57" data-uid="lnk43" id="link_Admin_UC_Login"><path d="M88.6,1634.99 C96.1,1740.91 123.01,2033.14 194.4,2090.59 C334.68,2203.47 470.12,2215.79 599.53,2090.59 C635.73,2055.58 613.37,1232.29 629.53,1184.59 C656.65,1104.58 722.6025,1032.9077 754.0125,1001.7177" fill="none" id="Admin-to-UC_Login" style="stroke:#181818;stroke-width:1;"/><polygon fill="#181818" points="758.27,997.49,749.0652,1000.9932,754.7221,1001.0131,754.7022,1006.6699,758.27,997.49" style="stroke:#181818;stroke-width:1;"/></g><!--link Admin to UC_Logout--><g class="link" data-entity-1="Admin" data-entity-2="UC_Logout" data-source-line="58" data-uid="lnk44" id="link_Admin_UC_Logout"><path d="M94.89,1558.23 C116.34,1461.68 171.8,1200.52 195.4,979.59 C196.65,967.87 195.78,776.58 203.4,767.59 C227.48,739.21 262.7728,731.3226 297.5828,730.2626" fill="none" id="Admin-to-UC_Logout" style="stroke:#181818;stroke-width:1;"/><polygon fill="#181818" points="303.58,730.08,294.4624,726.3558,298.5823,730.2322,294.7059,734.3521,303.58,730.08" style="stroke:#181818;stroke-width:1;"/></g><!--link Admin to UC_RegistrarCliente--><g class="link" data-entity-1="Admin" data-entity-2="UC_RegistrarCliente" data-source-line="59" data-uid="lnk45" id="link_Admin_UC_RegistrarCliente"><path d="M95.48,1558.12 C117.28,1465.97 171.67,1225.07 195.4,1020.59 C196.58,1010.48 196.84,845.37 203.4,837.59 C225.05,811.92 254.6818,802.9111 286.9618,800.1511" fill="none" id="Admin-to-UC_RegistrarCliente" style="stroke:#181818;stroke-width:1;"/><polygon fill="#181818" points="292.94,799.64,283.632,796.4213,287.9582,800.066,284.3135,804.3922,292.94,799.64" style="stroke:#181818;stroke-width:1;"/></g><!--link Admin to UC_BuscarCliente--><g class="link" data-entity-1="Admin" data-entity-2="UC_BuscarCliente" data-source-line="60" data-uid="lnk46" id="link_Admin_UC_BuscarCliente"><path d="M96.17,1557.99 C118.32,1470.42 171.55,1249.68 195.4,1061.59 C197.6,1044.26 192.05,917.87 203.4,904.59 C226.87,877.14 260.3776,868.7725 294.4476,867.0525" fill="none" id="Admin-to-UC_BuscarCliente" style="stroke:#181818;stroke-width:1;"/><polygon fill="#181818" points="300.44,866.75,291.2498,863.2089,295.4464,867.0021,291.6531,871.1987,300.44,866.75" style="stroke:#181818;stroke-width:1;"/></g><!--link Admin to UC_EditarCliente--><g class="link" data-entity-1="Admin" data-entity-2="UC_EditarCliente" data-source-line="61" data-uid="lnk47" id="link_Admin_UC_EditarCliente"><path d="M96.78,1558.21 C119.07,1475.61 170.86,1274.54 195.4,1102.59 C197.31,1089.25 194.72,991.9 203.4,981.59 C220.97,960.74 241.6953,951.1307 268.2853,945.8407" fill="none" id="Admin-to-UC_EditarCliente" style="stroke:#181818;stroke-width:1;"/><polygon fill="#181818" points="274.17,944.67,264.5625,942.503,269.2661,945.6456,266.1235,950.3492,274.17,944.67" style="stroke:#181818;stroke-width:1;"/></g><!--link Admin to UC_ToggleCliente--><g class="link" data-entity-1="Admin" data-entity-2="UC_ToggleCliente" data-source-line="62" data-uid="lnk48" id="link_Admin_UC_ToggleCliente"><path d="M164.71,1608.95 C176.17,1607.08 186.94,1602.75 195.4,1594.59 C207.18,1583.24 193.01,1460.22 203.4,1447.59 C218.48,1429.26 234.678,1420.0361 257.608,1413.8361" fill="none" id="Admin-to-UC_ToggleCliente" style="stroke:#181818;stroke-width:1;"/><polygon fill="#181818" points="263.4,1412.27,253.6679,1410.7578,258.5733,1413.5751,255.756,1418.4805,263.4,1412.27" style="stroke:#181818;stroke-width:1;"/></g><!--link Admin to UC_CompraFiada--><g class="link" data-entity-1="Admin" data-entity-2="UC_CompraFiada" data-source-line="63" data-uid="lnk49" id="link_Admin_UC_CompraFiada"><path d="M90.65,1558.05 C110.26,1388.64 188.71,717.84 203.4,701.59 C221.28,681.82 241.4498,672.5628 267.4298,667.2928" fill="none" id="Admin-to-UC_CompraFiada" style="stroke:#181818;stroke-width:1;"/><polygon fill="#181818" points="273.31,666.1,263.6944,663.969,268.4098,667.094,265.2848,671.8094,273.31,666.1" style="stroke:#181818;stroke-width:1;"/></g><!--link Admin to UC_RegistrarAbono--><g class="link" data-entity-1="Admin" data-entity-2="UC_RegistrarAbono" data-source-line="64" data-uid="lnk50" id="link_Admin_UC_RegistrarAbono"><path d="M120.47,1558.25 C146.45,1526.52 180.2,1478.97 195.4,1430.59 C200.32,1414.95 192.94,1148.21 203.4,1135.59 C225.29,1109.19 255.9673,1100.265 288.8373,1097.765" fill="none" id="Admin-to-UC_RegistrarAbono" style="stroke:#181818;stroke-width:1;"/><polygon fill="#181818" points="294.82,1097.31,285.5426,1094.0041,289.8344,1097.6892,286.1493,1101.981,294.82,1097.31" style="stroke:#181818;stroke-width:1;"/></g><!--link Admin to UC_SaldoMov--><g class="link" data-entity-1="Admin" data-entity-2="UC_SaldoMov" data-source-line="65" data-uid="lnk51" id="link_Admin_UC_SaldoMov"><path d="M90.1,1634.94 C100.64,1729.95 133.11,1972 194.4,2019.59 C336.63,2130.01 470.44,2145.12 599.53,2019.59 C642.17,1978.13 605,1003.76 629.53,949.59 C649.5,905.52 686.585,872.6856 720.155,849.0356" fill="none" id="Admin-to-UC_SaldoMov" style="stroke:#181818;stroke-width:1;"/><polygon fill="#181818" points="725.06,845.58,715.3988,847.4933,720.9725,848.4596,720.0062,854.0334,725.06,845.58" style="stroke:#181818;stroke-width:1;"/></g><!--link Admin to UC_AnularMov--><g class="link" data-entity-1="Admin" data-entity-2="UC_AnularMov" data-source-line="66" data-uid="lnk52" id="link_Admin_UC_AnularMov"><path d="M164.75,1578.65 C176.73,1572.58 187.66,1564.46 195.4,1553.59 C207.54,1536.56 189.98,1381.62 203.4,1365.59 C223.23,1341.9 248.9471,1332.5105 279.0071,1328.7205" fill="none" id="Admin-to-UC_AnularMov" style="stroke:#181818;stroke-width:1;"/><polygon fill="#181818" points="284.96,1327.97,275.5303,1325.1272,279.9993,1328.5955,276.5311,1333.0644,284.96,1327.97" style="stroke:#181818;stroke-width:1;"/></g><!--link Admin to UC_Historial--><g class="link" data-entity-1="Admin" data-entity-2="UC_Historial" data-source-line="67" data-uid="lnk53" id="link_Admin_UC_Historial"><path d="M89.56,1558.32 C99.93,1448.91 134.94,1138.03 203.4,1066.59 C219.17,1050.14 234.7086,1041.4492 256.6486,1034.9292" fill="none" id="Admin-to-UC_Historial" style="stroke:#181818;stroke-width:1;"/><polygon fill="#181818" points="262.4,1033.22,252.6334,1031.9495,257.6072,1034.6443,254.9123,1039.618,262.4,1033.22" style="stroke:#181818;stroke-width:1;"/></g><!--link Admin to UC_RepCartera--><g class="link" data-entity-1="Admin" data-entity-2="UC_RepCartera" data-source-line="68" data-uid="lnk54" id="link_Admin_UC_RepCartera"><path d="M85.29,1635.15 C85.83,1711.7 99.33,1881.96 203.4,1957.59 C311.67,2036.27 382.71,2013.01 504.53,1957.59 C563.03,1930.98 576.16,1908.45 599.53,1848.59 C643.28,1736.56 567.87,869.85 629.53,766.59 C647.69,736.19 675.9994,718.2301 706.3494,705.3101" fill="none" id="Admin-to-UC_RepCartera" style="stroke:#181818;stroke-width:1;"/><polygon fill="#181818" points="711.87,702.96,702.0224,702.8048,707.2695,704.9184,705.1559,710.1656,711.87,702.96" style="stroke:#181818;stroke-width:1;"/></g><!--link Admin to UC_RepMora--><g class="link" data-entity-1="Admin" data-entity-2="UC_RepMora" data-source-line="69" data-uid="lnk55" id="link_Admin_UC_RepMora"><path d="M87.46,1634.95 C92.15,1750.93 112.81,2094.14 194.4,2161.59 C333.18,2276.31 461.02,2276.64 599.53,2161.59 C744.35,2041.31 769.3579,1399.0278 773.1179,1259.8978" fill="none" id="Admin-to-UC_RepMora" style="stroke:#181818;stroke-width:1;"/><polygon fill="#181818" points="773.28,1253.9,769.0383,1262.7887,773.1449,1258.8982,777.0354,1263.0048,773.28,1253.9" style="stroke:#181818;stroke-width:1;"/></g><!--link Admin to UC_ExportCSV--><g class="link" data-entity-1="Admin" data-entity-2="UC_ExportCSV" data-source-line="70" data-uid="lnk56" id="link_Admin_UC_ExportCSV"><path d="M132.65,1557.96 C156.09,1535.46 182.28,1504.98 195.4,1471.59 C205.89,1444.9 185.31,1235.85 203.4,1213.59 C219.69,1193.55 238.4817,1184.0564 263.6517,1178.4864" fill="none" id="Admin-to-UC_ExportCSV" style="stroke:#181818;stroke-width:1;"/><polygon fill="#181818" points="269.51,1177.19,259.8583,1175.2291,264.6281,1178.2703,261.5869,1183.0401,269.51,1177.19" style="stroke:#181818;stroke-width:1;"/></g><!--link Admin to UC_AlertasMora--><g class="link" data-entity-1="Admin" data-entity-2="UC_AlertasMora" data-source-line="71" data-uid="lnk57" id="link_Admin_UC_AlertasMora"><path d="M155.38,1557.98 C171.28,1545.63 186.2,1530.45 195.4,1512.59 C206.56,1490.95 188.05,1312.49 203.4,1293.59 C219.07,1274.3 236.6211,1264.8828 260.7511,1258.9928" fill="none" id="Admin-to-UC_AlertasMora" style="stroke:#181818;stroke-width:1;"/><polygon fill="#181818" points="266.58,1257.57,256.8882,1255.8183,261.7226,1258.7557,258.7852,1263.5901,266.58,1257.57" style="stroke:#181818;stroke-width:1;"/></g><!--link Admin to UC_GestionUsuarios--><g class="link" data-entity-1="Admin" data-entity-2="UC_GestionUsuarios" data-source-line="72" data-uid="lnk58" id="link_Admin_UC_GestionUsuarios"><path d="M137,1635.21 C157.18,1645.72 179.36,1650.56 195.4,1635.59 C214.29,1617.96 186.56,1539.18 203.4,1519.59 C223.64,1496.06 249.5969,1486.7183 279.7469,1482.9283" fill="none" id="Admin-to-UC_GestionUsuarios" style="stroke:#181818;stroke-width:1;"/><polygon fill="#181818" points="285.7,1482.18,276.2714,1479.3337,280.739,1482.8036,277.2692,1487.2713,285.7,1482.18" style="stroke:#181818;stroke-width:1;"/></g><!--link Admin to UC_Roles--><g class="link" data-entity-1="Admin" data-entity-2="UC_Roles" data-source-line="73" data-uid="lnk59" id="link_Admin_UC_Roles"><path d="M110.93,1635.21 C133.8,1666.29 168.26,1701.06 195.4,1676.59 C208.18,1665.07 192.11,1612.57 203.4,1599.59 C220.09,1580.4 238.5593,1571.0533 263.2693,1565.2433" fill="none" id="Admin-to-UC_Roles" style="stroke:#181818;stroke-width:1;"/><polygon fill="#181818" points="269.11,1563.87,259.4334,1562.0362,264.2427,1565.0144,261.2645,1569.8238,269.11,1563.87" style="stroke:#181818;stroke-width:1;"/></g><!--link Admin to UC_Seguridad--><g class="link" data-entity-1="Admin" data-entity-2="UC_Seguridad" data-source-line="74" data-uid="lnk60" id="link_Admin_UC_Seguridad"><path d="M120.75,1635.09 C140.26,1653.92 166.34,1674.62 194.4,1684.59 C232.14,1698 270.7261,1689.6754 304.6561,1676.3354" fill="none" id="Admin-to-UC_Seguridad" style="stroke:#181818;stroke-width:1;"/><polygon fill="#181818" points="310.24,1674.14,300.4005,1673.7105,305.5867,1675.9695,303.3277,1681.1557,310.24,1674.14" style="stroke:#181818;stroke-width:1;"/></g><!--link Admin to UC_Backup--><g class="link" data-entity-1="Admin" data-entity-2="UC_Backup" data-source-line="75" data-uid="lnk61" id="link_Admin_UC_Backup"><path d="M99.66,1635.18 C116.92,1679.03 151.02,1749.67 203.4,1789.59 C220.34,1802.5 235.0444,1809.9235 255.5744,1816.6035" fill="none" id="Admin-to-UC_Backup" style="stroke:#181818;stroke-width:1;"/><polygon fill="#181818" points="261.28,1818.46,253.9593,1811.8716,256.5254,1816.9129,251.484,1819.479,261.28,1818.46" style="stroke:#181818;stroke-width:1;"/></g><!--link Admin to UC_Restore--><g class="link" data-entity-1="Admin" data-entity-2="UC_Restore" data-source-line="76" data-uid="lnk62" id="link_Admin_UC_Restore"><path d="M121.07,1634.87 C140.88,1654.6 167.12,1677.59 194.4,1692.59 C216,1704.47 235.0091,1711.999 258.8391,1719.089" fill="none" id="Admin-to-UC_Restore" style="stroke:#181818;stroke-width:1;"/><polygon fill="#181818" points="264.59,1720.8,257.1044,1714.3996,259.7976,1719.3741,254.823,1722.0674,264.59,1720.8" style="stroke:#181818;stroke-width:1;"/></g><!--link Aux to UC_Login--><g class="link" data-entity-1="Aux" data-entity-2="UC_Login" data-source-line="78" data-uid="lnk63" id="link_Aux_UC_Login"><path d="M89.3,533.31 C96.41,473.99 119.56,361.51 194.4,311.59 C350.53,207.46 482.03,284.27 599.53,430.59 C660.07,505.97 585.13,778.72 629.53,864.59 C655.03,913.9 705.8725,947.2456 740.1325,965.7756" fill="none" id="Aux-to-UC_Login" style="stroke:#181818;stroke-width:1;"/><polygon fill="#181818" points="745.41,968.63,739.3967,960.83,741.0121,966.2513,735.5908,967.8667,745.41,968.63" style="stroke:#181818;stroke-width:1;"/></g><!--link Aux to UC_Logout--><g class="link" data-entity-1="Aux" data-entity-2="UC_Logout" data-source-line="79" data-uid="lnk64" id="link_Aux_UC_Logout"><path d="M139.44,558 C159.4,556.18 180.76,558.69 195.4,572.59 C216.4,592.52 184.35,680.8 203.4,702.59 C227.87,730.58 263.1521,738.231 297.8621,739.151" fill="none" id="Aux-to-UC_Logout" style="stroke:#181818;stroke-width:1;"/><polygon fill="#181818" points="303.86,739.31,294.9691,735.0729,298.8618,739.1775,294.7572,743.0701,303.86,739.31" style="stroke:#181818;stroke-width:1;"/></g><!--link Aux to UC_RegistrarCliente--><g class="link" data-entity-1="Aux" data-entity-2="UC_RegistrarCliente" data-source-line="80" data-uid="lnk65" id="link_Aux_UC_RegistrarCliente"><path d="M139.44,579.35 C160.27,585.21 182.28,595.51 195.4,613.59 C215.53,641.33 181.2,741.49 203.4,767.59 C225.15,793.17 254.7923,802.1632 287.0623,804.9532" fill="none" id="Aux-to-UC_RegistrarCliente" style="stroke:#181818;stroke-width:1;"/><polygon fill="#181818" points="293.04,805.47,284.418,800.7096,288.0586,805.0393,283.7289,808.6799,293.04,805.47" style="stroke:#181818;stroke-width:1;"/></g><!--link Aux to UC_BuscarCliente--><g class="link" data-entity-1="Aux" data-entity-2="UC_BuscarCliente" data-source-line="81" data-uid="lnk66" id="link_Aux_UC_BuscarCliente"><path d="M139.53,598.59 C160.78,612.29 183.09,631.07 195.4,654.59 C204.84,672.62 190.19,822.11 203.4,837.59 C226.91,865.14 260.6452,873.2691 294.8152,874.6991" fill="none" id="Aux-to-UC_BuscarCliente" style="stroke:#181818;stroke-width:1;"/><polygon fill="#181818" points="300.81,874.95,291.9851,870.5772,295.8144,874.7409,291.6506,878.5702,300.81,874.95" style="stroke:#181818;stroke-width:1;"/></g><!--link Aux to UC_EditarCliente--><g class="link" data-entity-1="Aux" data-entity-2="UC_EditarCliente" data-source-line="82" data-uid="lnk67" id="link_Aux_UC_EditarCliente"><path d="M132.83,610.15 C156.17,632.44 182.2,662.56 195.4,695.59 C203.99,717.07 188.75,885.7 203.4,903.59 C220.77,924.8 241.6119,934.4866 268.3619,939.7266" fill="none" id="Aux-to-UC_EditarCliente" style="stroke:#181818;stroke-width:1;"/><polygon fill="#181818" points="274.25,940.88,266.1868,935.2245,269.3433,939.9188,264.6489,943.0753,274.25,940.88" style="stroke:#181818;stroke-width:1;"/></g><!--link Aux to UC_CompraFiada--><g class="link" data-entity-1="Aux" data-entity-2="UC_CompraFiada" data-source-line="83" data-uid="lnk68" id="link_Aux_UC_CompraFiada"><path d="M108.4,533.15 C128.88,503.14 161.2,468.82 195.4,483.59 C271.67,516.52 326.4627,597.3474 350.1627,637.3674" fill="none" id="Aux-to-UC_CompraFiada" style="stroke:#181818;stroke-width:1;"/><polygon fill="#181818" points="353.22,642.53,352.0758,632.7478,350.6722,638.2278,345.1923,636.8243,353.22,642.53" style="stroke:#181818;stroke-width:1;"/></g><!--link Aux to UC_RegistrarAbono--><g class="link" data-entity-1="Aux" data-entity-2="UC_RegistrarAbono" data-source-line="84" data-uid="lnk69" id="link_Aux_UC_RegistrarAbono"><path d="M99.99,609.82 C117.16,658.62 146.41,745.94 164.4,822.59 C165.96,829.25 198.7,1060.63 203.4,1065.59 C226.4,1089.87 255.9474,1098.7269 287.8374,1101.7869" fill="none" id="Aux-to-UC_RegistrarAbono" style="stroke:#181818;stroke-width:1;"/><polygon fill="#181818" points="293.81,1102.36,285.2332,1097.5186,288.8329,1101.8824,284.4691,1105.4821,293.81,1102.36" style="stroke:#181818;stroke-width:1;"/></g><!--link Aux to UC_SaldoMov--><g class="link" data-entity-1="Aux" data-entity-2="UC_SaldoMov" data-source-line="85" data-uid="lnk70" id="link_Aux_UC_SaldoMov"><path d="M91.23,532.95 C103.64,444.29 138.82,230.65 194.4,188.59 C266.2,134.27 534.12,126.74 599.53,188.59 C642.87,229.57 599.27,673.19 629.53,724.59 C646.07,752.67 669.7287,770.629 697.3987,785.169" fill="none" id="Aux-to-UC_SaldoMov" style="stroke:#181818;stroke-width:1;"/><polygon fill="#181818" points="702.71,787.96,696.6037,780.2326,698.2839,785.6342,692.8823,787.3144,702.71,787.96" style="stroke:#181818;stroke-width:1;"/></g><!--link Aux to UC_Historial--><g class="link" data-entity-1="Aux" data-entity-2="UC_Historial" data-source-line="86" data-uid="lnk71" id="link_Aux_UC_Historial"><path d="M120.65,610.01 C146.56,641.54 180.11,688.65 195.4,736.59 C203.64,762.43 186.52,959.36 203.4,980.59 C217.4,998.2 231.9945,1007.3281 253.5445,1013.9481" fill="none" id="Aux-to-UC_Historial" style="stroke:#181818;stroke-width:1;"/><polygon fill="#181818" points="259.28,1015.71,251.8514,1009.2435,254.5004,1014.2418,249.5022,1016.8908,259.28,1015.71" style="stroke:#181818;stroke-width:1;"/></g><!--link Aux to UC_RepCartera--><g class="link" data-entity-1="Aux" data-entity-2="UC_RepCartera" data-source-line="87" data-uid="lnk72" id="link_Aux_UC_RepCartera"><path d="M89.41,533.05 C98.61,433.05 128.75,169.44 194.4,117.59 C335.71,6 454.68,10.64 599.53,117.59 C691.25,185.31 753.9704,554.4609 769.3504,653.6209" fill="none" id="Aux-to-UC_RepCartera" style="stroke:#181818;stroke-width:1;"/><polygon fill="#181818" points="770.27,659.55,772.8433,650.0433,769.5036,654.6091,764.9378,651.2694,770.27,659.55" style="stroke:#181818;stroke-width:1;"/></g><!--link Backup to UC_Backup--><g class="link" data-entity-1="Backup" data-entity-2="UC_Backup" data-source-line="89" data-uid="lnk73" id="link_Backup_UC_Backup"><path d="M87.14,2209.14 C91.1,2134.96 110.52,1971.5 203.4,1881.59 C217.86,1867.6 230.6089,1859.8163 249.7789,1852.9763" fill="none" id="Backup-to-UC_Backup" style="stroke:#181818;stroke-width:1;"/><polygon fill="#181818" points="255.43,1850.96,245.6092,1850.2171,250.7208,1852.6403,248.2976,1857.7519,255.43,1850.96" style="stroke:#181818;stroke-width:1;"/></g><!--link UC_Forgot to UC_Login--><g class="link" data-entity-1="UC_Forgot" data-entity-2="UC_Login" data-source-line="92" data-uid="lnk74" id="link_UC_Forgot_UC_Login"><path d="M450.83,1912.01 C470.88,1906.35 490.51,1896.97 504.53,1881.59 C716.6,1649.05 507.28,1474.6 629.53,1184.59 C662.35,1106.74 725.4388,1034.0789 755.1188,1002.2389" fill="none" id="UC_Forgot-to-UC_Login" style="stroke:#181818;stroke-width:1;stroke-dasharray:7,7;"/><polygon fill="#181818" points="759.21,997.85,750.1473,1001.7059,755.8007,1001.5074,755.9992,1007.1608,759.21,997.85" style="stroke:#181818;stroke-width:1;"/><text fill="#000000" font-family="sans-serif" font-size="13" lengthAdjust="spacing" textLength="61.1851" x="536.53" y="1280.6569">&#171;extend&#187;</text></g><!--link UC_ExportCSV to UC_RepCartera--><g class="link" data-entity-1="UC_ExportCSV" data-entity-2="UC_RepCartera" data-source-line="93" data-uid="lnk75" id="link_UC_ExportCSV_UC_RepCartera"><path d="M453.98,1165.04 C473.01,1159.03 491.38,1149.52 504.53,1134.59 C561.05,1070.44 507.36,1025.65 534.53,944.59 C563.03,859.57 567.13,830.99 629.53,766.59 C655.68,739.6 687.0745,721.1821 716.9745,707.0621" fill="none" id="UC_ExportCSV-to-UC_RepCartera" style="stroke:#181818;stroke-width:1;stroke-dasharray:7,7;"/><polygon fill="#181818" points="722.4,704.5,712.5537,704.7262,717.8788,706.6351,715.9699,711.9601,722.4,704.5" style="stroke:#181818;stroke-width:1;"/><text fill="#000000" font-family="sans-serif" font-size="13" lengthAdjust="spacing" textLength="63.0068" x="535.53" y="798.6569">&#171;include&#187;</text></g><!--link UC_ExportCSV to UC_RepMora--><g class="link" data-entity-1="UC_ExportCSV" data-entity-2="UC_RepMora" data-source-line="94" data-uid="lnk76" id="link_UC_ExportCSV_UC_RepMora"><path d="M450.79,1185.51 C515.23,1193.9 598.5603,1204.7547 666.9403,1213.6647" fill="none" id="UC_ExportCSV-to-UC_RepMora" style="stroke:#181818;stroke-width:1;stroke-dasharray:7,7;"/><polygon fill="#181818" points="672.89,1214.44,664.4823,1209.3106,667.9319,1213.794,663.4486,1217.2436,672.89,1214.44" style="stroke:#181818;stroke-width:1;"/><text fill="#000000" font-family="sans-serif" font-size="13" lengthAdjust="spacing" textLength="63.0068" x="535.53" y="1194.6569">&#171;include&#187;</text></g><!--link UC_AlertasMora to UC_RepMora--><g class="link" data-entity-1="UC_AlertasMora" data-entity-2="UC_RepMora" data-source-line="95" data-uid="lnk77" id="link_UC_AlertasMora_UC_RepMora"><path d="M466.35,1251.67 C507.59,1250.48 555.9,1248.59 599.53,1245.59 C622.3,1244.03 640.72,1242.4293 663.83,1240.1093" fill="none" id="UC_AlertasMora-to-UC_RepMora" style="stroke:#181818;stroke-width:1;stroke-dasharray:7,7;"/><polygon fill="#181818" points="669.8,1239.51,660.4455,1236.429,664.825,1240.0094,661.2446,1244.389,669.8,1239.51" style="stroke:#181818;stroke-width:1;"/><text fill="#000000" font-family="sans-serif" font-size="13" lengthAdjust="spacing" textLength="61.1851" x="536.53" y="1241.6569">&#171;extend&#187;</text></g><!--link UC_AnularMov to UC_SaldoMov--><g class="link" data-entity-1="UC_AnularMov" data-entity-2="UC_SaldoMov" data-source-line="96" data-uid="lnk78" id="link_UC_AnularMov_UC_SaldoMov"><path d="M443.98,1324.16 C466.06,1319.03 488.47,1309.83 504.53,1293.59 C543.19,1254.51 517.08,1225.72 534.53,1173.59 C568.86,1071.05 567.42,1038.11 629.53,949.59 C658.21,908.73 696.4129,874.6107 728.0029,849.6407" fill="none" id="UC_AnularMov-to-UC_SaldoMov" style="stroke:#181818;stroke-width:1;stroke-dasharray:7,7;"/><polygon fill="#181818" points="732.71,845.92,723.1689,848.3629,728.7874,849.0206,728.1298,854.6391,732.71,845.92" style="stroke:#181818;stroke-width:1;"/><text fill="#000000" font-family="sans-serif" font-size="13" lengthAdjust="spacing" textLength="63.0068" x="535.53" y="993.6569">&#171;include&#187;</text></g><!--SRC=[VLPDJnin4Btlhx3IGzi3e5uhX1JIq5Q22u5UAxFhB0Ql9_872ghwOpZsMFNMQ_vOn_Pwr_OkpIcPzpnVRsP0iAqX1eZYxRqX3LUiDXnafH-vt555ExAZzIDjsSOy2qOSJ6KhM4AmcjLKitDG3LCh4A38cm_-CqD2Pwq2AvkUUE4_LKLhWpyNDqoY4rWGgad_FKAVB3ly1d92bat79TT6qGQKPtfBv2tjdWjE5MaOgUa33GoxZ_W6dxAEEjXbOtUU4BvMrL0WMLpoEmLaBT2Y3dyahy6zMQd3huORq0loewe8UVSL4HTECysHzjvvkrrzluGMSqBycjLsnnGoQf2OjCOoQ6HTW6h1EDgAAJNh1QofWf_M5ur-16VIiCWPW5MmE_AvrVMK6Qm9ROsLk4vHhCVtA-S7EE4lSJYUyC49aZNjVnIFRg35ziL7HURGxHGbMqwReGKhRxjmffnCxq32fCYbi_g6WTHMkFGr5GsGPtBuAmpli98EddZdueEExpUESmLFlWff1JuRMP4K0CToj6zCaNiC2efJuRepu_PBnDs3pqnwdHNRWJ8i321-KNIiOhSAbbVu7IZGlA5Dyk8A0dszTxIHhmabgystGImFeo7cJWL3kfvrkmoOTnrIqMxjqRdLbYe-LjWZjxtPzq_prb4L24pYcU1qTroFJwwTlPTeorlhQiGhS7Zfc55Xq3H3SvhG9XfyEki7N1fNwfrVIxnBBZYXra1tU36uYiD8XxtrWwCDzR6ut8BgQEqMoGqgnWj-ngOwrVnmlYNNJ20L9FE9-IFXi-_F3pawEaltUMfs2pgnponbmIYNiO3BtIlWVCicSBvKh-KMTwd0arqfa7519b2w2PDuoTHFiNw-o_gJSIwpo8VNN_zIfj8OHCgiCn9bU2bG1fRoP60fJWRcqind58N9q4IMp9wAaW6f94MSH90IwUN8gqt4o6CdKXJGz73aaVeZaPSuN85IYxZcHRR37kCV-Ca8PAP-04RRdFmZEX5_X2RIZr2XxKomGTaHItKThPbugQD1EWH2MuecbLUDorfOF6qdXEqDRXBYmtyUvFXux1dvI4vF0-ViBB06uIDnZE_PlU__qTrip76JqPbZvtaCCnwfiMc5v-hdFm00]--></g></svg>