<svg xmlns="http://www.w3.org/2000/svg" xmlns:xlink="http://www.w3.org/1999/xlink" contentStyleType="text/css" data-diagram-type="CLASS" height="1211px" preserveAspectRatio="none" style="width:2038px;height:1211px;background:#FFFFFF;" version="1.1" viewBox="0 0 2038 1211" width="2038px" zoomAndPan="magnify"><defs/><g><!--cluster Dominio Cr?ditos Tienda--><g class="cluster" data-entity="Dominio Cr.ditos Tienda" data-source-line="4" data-uid="ent0002" id="cluster_Dominio Cr.ditos Tienda"><path d="M8.5,6 L203.6748,6 A3.75,3.75 0 0 1 206.1748,8.5 L213.1748,28.2969 L2029.48,28.2969 A2.5,2.5 0 0 1 2031.98,30.7969 L2031.98,1201.5 A2.5,2.5 0 0 1 2029.48,1204 L8.5,1204 A2.5,2.5 0 0 1 6,1201.5 L6,8.5 A2.5,2.5 0 0 1 8.5,6" fill="none" style="stroke:#000000;stroke-width:1.5;"/><line style="stroke:#000000;stroke-width:1.5;" x1="6" x2="213.1748" y1="28.2969" y2="28.2969"/><text fill="#000000" font-family="sans-serif" font-size="14" font-weight="bold" lengthAdjust="spacing" textLength="194.1748" x="10" y="20.9951">Dominio Cr&#233;ditos Tienda</text></g><!--class Usuario--><g class="entity" data-entity="Usuario" data-source-line="7" data-uid="ent0003" id="entity_Usuario"><rect fill="#F1F1F1" height="178.375" rx="2.5" ry="2.5" style="stroke:#181818;stroke-width:0.5;" width="265.3262" x="1288.57" y="588.81"/><ellipse cx="1390.381" cy="604.81" fill="#ADD1B2" rx="11" ry="11" style="stroke:#181818;stroke-width:1;"/><path d="M1393.3498,610.4506 Q1392.7717,610.7475 1392.131,610.8881 Q1391.4904,611.0444 1390.7873,611.0444 Q1388.2873,611.0444 1386.9592,609.4038 Q1385.6467,607.7475 1385.6467,604.6225 Q1385.6467,601.4975 1386.9592,599.8413 Q1388.2873,598.185 1390.7873,598.185 Q1391.4904,598.185 1392.131,598.3413 Q1392.7873,598.4975 1393.3498,598.7944 L1393.3498,601.5131 Q1392.7248,600.935 1392.131,600.6694 Q1391.5373,600.3881 1390.9123,600.3881 Q1389.5685,600.3881 1388.881,601.4663 Q1388.1935,602.5288 1388.1935,604.6225 Q1388.1935,606.7163 1388.881,607.7944 Q1389.5685,608.8569 1390.9123,608.8569 Q1391.5373,608.8569 1392.131,608.5913 Q1392.7248,608.31 1393.3498,607.7319 L1393.3498,610.4506 Z " fill="#000000"/><text fill="#000000" font-family="sans-serif" font-size="14" lengthAdjust="spacing" textLength="53.2041" x="1410.881" y="609.6567">Usuario</text><line style="stroke:#181818;stroke-width:0.5;" x1="1289.57" x2="1552.8962" y1="620.81" y2="620.81"/><text fill="#000000" font-family="sans-serif" font-size="14" lengthAdjust="spacing" textLength="98.4512" x="1294.57" y="637.8051">-idUsuario: int</text><text fill="#000000" font-family="sans-serif" font-size="14" lengthAdjust="spacing" textLength="176.1621" x="1294.57" y="654.102">-nombreCompleto: string</text><text fill="#000000" font-family="sans-serif" font-size="14" lengthAdjust="spacing" textLength="161.9434" x="1294.57" y="670.3989">-nombreUsuario: string</text><text fill="#000000" font-family="sans-serif" font-size="14" lengthAdjust="spacing" textLength="99.3604" x="1294.57" y="686.6957">-correo: string</text><text fill="#000000" font-family="sans-serif" font-size="14" lengthAdjust="spacing" textLength="168" x="1294.57" y="702.9926">-contrasenaHash: string</text><text fill="#000000" font-family="sans-serif" font-size="14" lengthAdjust="spacing" textLength="162.5107" x="1294.57" y="719.2895">-estado: EstadoUsuario</text><line style="stroke:#181818;stroke-width:0.5;" x1="1289.57" x2="1552.8962" y1="726.5913" y2="726.5913"/><text fill="#000000" font-family="sans-serif" font-size="14" lengthAdjust="spacing" textLength="253.3262" x="1294.57" y="743.5864">+autenticar(passPlano: string): bool</text><text fill="#000000" font-family="sans-serif" font-size="14" lengthAdjust="spacing" textLength="233.0371" x="1294.57" y="759.8832">+puedeAnularMovimiento(): bool</text></g><!--class Rol--><g class="entity" data-entity="Rol" data-source-line="18" data-uid="ent0004" id="entity_Rol"><rect fill="#F1F1F1" height="96.8906" rx="2.5" ry="2.5" style="stroke:#181818;stroke-width:0.5;" width="337.8623" x="1672.51" y="930.55"/><ellipse cx="1826.0998" cy="946.55" fill="#ADD1B2" rx="11" ry="11" style="stroke:#181818;stroke-width:1;"/><path d="M1829.0686,952.1906 Q1828.4905,952.4875 1827.8498,952.6281 Q1827.2092,952.7844 1826.5061,952.7844 Q1824.0061,952.7844 1822.678,951.1438 Q1821.3655,949.4875 1821.3655,946.3625 Q1821.3655,943.2375 1822.678,941.5813 Q1824.0061,939.925 1826.5061,939.925 Q1827.2092,939.925 1827.8498,940.0813 Q1828.5061,940.2375 1829.0686,940.5344 L1829.0686,943.2531 Q1828.4436,942.675 1827.8498,942.4094 Q1827.2561,942.1281 1826.6311,942.1281 Q1825.2873,942.1281 1824.5998,943.2063 Q1823.9123,944.2688 1823.9123,946.3625 Q1823.9123,948.4563 1824.5998,949.5344 Q1825.2873,950.5969 1826.6311,950.5969 Q1827.2561,950.5969 1827.8498,950.3313 Q1828.4436,950.05 1829.0686,949.4719 L1829.0686,952.1906 Z " fill="#000000"/><text fill="#000000" font-family="sans-serif" font-size="14" lengthAdjust="spacing" textLength="22.1826" x="1846.5998" y="951.3967">Rol</text><line style="stroke:#181818;stroke-width:0.5;" x1="1673.51" x2="2009.3723" y1="962.55" y2="962.55"/><text fill="#000000" font-family="sans-serif" font-size="14" lengthAdjust="spacing" textLength="67.4297" x="1678.51" y="979.5451">-idRol: int</text><text fill="#000000" font-family="sans-serif" font-size="14" lengthAdjust="spacing" textLength="325.8623" x="1678.51" y="995.842">-nombre: string        ' Propietario, Auxiliar, etc.</text><text fill="#000000" font-family="sans-serif" font-size="14" lengthAdjust="spacing" textLength="134.4561" x="1678.51" y="1012.1389">-descripcion: string</text><line style="stroke:#181818;stroke-width:0.5;" x1="1673.51" x2="2009.3723" y1="1019.4406" y2="1019.4406"/></g><!--class EstadoUsuario--><g class="entity" data-entity="EstadoUsuario" data-source-line="24" data-uid="ent0005" id="entity_EstadoUsuario"><rect fill="#F1F1F1" height="80.5938" rx="2.5" ry="2.5" style="stroke:#181818;stroke-width:0.5;" width="132.8643" x="212.77" y="1107.7"/><ellipse cx="227.77" cy="1123.7" fill="#EB937F" rx="11" ry="11" style="stroke:#181818;stroke-width:1;"/><path d="M231.8794,1129.7 L224.1606,1129.7 L224.1606,1117.3094 L231.8794,1117.3094 L231.8794,1119.4656 L226.6138,1119.4656 L226.6138,1122.1375 L231.3794,1122.1375 L231.3794,1124.2938 L226.6138,1124.2938 L226.6138,1127.5438 L231.8794,1127.5438 L231.8794,1129.7 Z " fill="#000000"/><text fill="#000000" font-family="sans-serif" font-size="14" lengthAdjust="spacing" textLength="100.8643" x="241.77" y="1128.5467">EstadoUsuario</text><line style="stroke:#181818;stroke-width:0.5;" x1="213.77" x2="344.6343" y1="1139.7" y2="1139.7"/><text fill="#000000" font-family="sans-serif" font-size="14" lengthAdjust="spacing" textLength="52.6299" x="218.77" y="1156.6951">ACTIVO</text><text fill="#000000" font-family="sans-serif" font-size="14" lengthAdjust="spacing" textLength="67.2314" x="218.77" y="1172.992">INACTIVO</text><line style="stroke:#181818;stroke-width:0.5;" x1="213.77" x2="344.6343" y1="1180.2938" y2="1180.2938"/></g><!--class Cliente--><g class="entity" data-entity="Cliente" data-source-line="32" data-uid="ent0007" id="entity_Cliente"><rect fill="#F1F1F1" height="162.0781" rx="2.5" ry="2.5" style="stroke:#181818;stroke-width:0.5;" width="188.1621" x="1327.15" y="391.96"/><ellipse cx="1392.4093" cy="407.96" fill="#ADD1B2" rx="11" ry="11" style="stroke:#181818;stroke-width:1;"/><path d="M1395.378,413.6006 Q1394.7999,413.8975 1394.1593,414.0381 Q1393.5187,414.1944 1392.8155,414.1944 Q1390.3155,414.1944 1388.9874,412.5538 Q1387.6749,410.8975 1387.6749,407.7725 Q1387.6749,404.6475 1388.9874,402.9913 Q1390.3155,401.335 1392.8155,401.335 Q1393.5187,401.335 1394.1593,401.4913 Q1394.8155,401.6475 1395.378,401.9444 L1395.378,404.6631 Q1394.753,404.085 1394.1593,403.8194 Q1393.5655,403.5381 1392.9405,403.5381 Q1391.5968,403.5381 1390.9093,404.6163 Q1390.2218,405.6788 1390.2218,407.7725 Q1390.2218,409.8663 1390.9093,410.9444 Q1391.5968,412.0069 1392.9405,412.0069 Q1393.5655,412.0069 1394.1593,411.7413 Q1394.753,411.46 1395.378,410.8819 L1395.378,413.6006 Z " fill="#000000"/><text fill="#000000" font-family="sans-serif" font-size="14" lengthAdjust="spacing" textLength="49.1436" x="1412.9093" y="412.8067">Cliente</text><line style="stroke:#181818;stroke-width:0.5;" x1="1328.15" x2="1514.3121" y1="423.96" y2="423.96"/><text fill="#000000" font-family="sans-serif" font-size="14" lengthAdjust="spacing" textLength="94.3906" x="1333.15" y="440.9551">-idCliente: int</text><text fill="#000000" font-family="sans-serif" font-size="14" lengthAdjust="spacing" textLength="176.1621" x="1333.15" y="457.252">-nombreCompleto: string</text><text fill="#000000" font-family="sans-serif" font-size="14" lengthAdjust="spacing" textLength="86.6387" x="1333.15" y="473.5489">-alias: string</text><text fill="#000000" font-family="sans-serif" font-size="14" lengthAdjust="spacing" textLength="111.9453" x="1333.15" y="489.8457">-telefono: string</text><text fill="#000000" font-family="sans-serif" font-size="14" lengthAdjust="spacing" textLength="155.3193" x="1333.15" y="506.1426">-observaciones: string</text><text fill="#000000" font-family="sans-serif" font-size="14" lengthAdjust="spacing" textLength="158.4502" x="1333.15" y="522.4395">-estado: EstadoCliente</text><line style="stroke:#181818;stroke-width:0.5;" x1="1328.15" x2="1514.3121" y1="529.7413" y2="529.7413"/><text fill="#000000" font-family="sans-serif" font-size="14" lengthAdjust="spacing" textLength="135.208" x="1333.15" y="546.7364">+estaActivo(): bool</text></g><!--class EstadoCliente--><g class="entity" data-entity="EstadoCliente" data-source-line="42" data-uid="ent0008" id="entity_EstadoCliente"><rect fill="#F1F1F1" height="80.5938" rx="2.5" ry="2.5" style="stroke:#181818;stroke-width:0.5;" width="128.8037" x="214.8" y="991.7"/><ellipse cx="229.8" cy="1007.7" fill="#EB937F" rx="11" ry="11" style="stroke:#181818;stroke-width:1;"/><path d="M233.9094,1013.7 L226.1906,1013.7 L226.1906,1001.3094 L233.9094,1001.3094 L233.9094,1003.4656 L228.6438,1003.4656 L228.6438,1006.1375 L233.4094,1006.1375 L233.4094,1008.2938 L228.6438,1008.2938 L228.6438,1011.5438 L233.9094,1011.5438 L233.9094,1013.7 Z " fill="#000000"/><text fill="#000000" font-family="sans-serif" font-size="14" lengthAdjust="spacing" textLength="96.8037" x="243.8" y="1012.5467">EstadoCliente</text><line style="stroke:#181818;stroke-width:0.5;" x1="215.8" x2="342.6037" y1="1023.7" y2="1023.7"/><text fill="#000000" font-family="sans-serif" font-size="14" lengthAdjust="spacing" textLength="52.6299" x="220.8" y="1040.6951">ACTIVO</text><text fill="#000000" font-family="sans-serif" font-size="14" lengthAdjust="spacing" textLength="67.2314" x="220.8" y="1056.992">INACTIVO</text><line style="stroke:#181818;stroke-width:0.5;" x1="215.8" x2="342.6037" y1="1064.2938" y2="1064.2938"/></g><!--class MovimientoCredito--><g class="entity" data-entity="MovimientoCredito" data-source-line="47" data-uid="ent0009" id="entity_MovimientoCredito"><rect fill="#F1F1F1" height="178.375" rx="2.5" ry="2.5" style="stroke:#181818;stroke-width:0.5;" width="203.1943" x="786.89" y="460.81"/><ellipse cx="819.139" cy="476.81" fill="#ADD1B2" rx="11" ry="11" style="stroke:#181818;stroke-width:1;"/><path d="M822.1077,482.4506 Q821.5296,482.7475 820.889,482.8881 Q820.2483,483.0444 819.5452,483.0444 Q817.0452,483.0444 815.7171,481.4037 Q814.4046,479.7475 814.4046,476.6225 Q814.4046,473.4975 815.7171,471.8412 Q817.0452,470.185 819.5452,470.185 Q820.2483,470.185 820.889,470.3412 Q821.5452,470.4975 822.1077,470.7944 L822.1077,473.5131 Q821.4827,472.935 820.889,472.6694 Q820.2952,472.3881 819.6702,472.3881 Q818.3265,472.3881 817.639,473.4662 Q816.9515,474.5287 816.9515,476.6225 Q816.9515,478.7162 817.639,479.7944 Q818.3265,480.8569 819.6702,480.8569 Q820.2952,480.8569 820.889,480.5912 Q821.4827,480.31 822.1077,479.7319 L822.1077,482.4506 Z " fill="#000000"/><text fill="#000000" font-family="sans-serif" font-size="14" lengthAdjust="spacing" textLength="132.8633" x="836.9721" y="481.6567">MovimientoCredito</text><line style="stroke:#181818;stroke-width:0.5;" x1="787.89" x2="989.0843" y1="492.81" y2="492.81"/><text fill="#000000" font-family="sans-serif" font-size="14" lengthAdjust="spacing" textLength="127.1348" x="792.89" y="509.8051">-idMovimiento: int</text><text fill="#000000" font-family="sans-serif" font-size="14" lengthAdjust="spacing" textLength="121.0645" x="792.89" y="526.102">-fecha: DateTime</text><text fill="#000000" font-family="sans-serif" font-size="14" lengthAdjust="spacing" textLength="152.8311" x="792.89" y="542.3989">-tipo: TipoMovimiento</text><text fill="#000000" font-family="sans-serif" font-size="14" lengthAdjust="spacing" textLength="114.543" x="792.89" y="558.6957">-monto: decimal</text><text fill="#000000" font-family="sans-serif" font-size="14" lengthAdjust="spacing" textLength="125.7266" x="792.89" y="574.9926">-referencia: string</text><text fill="#000000" font-family="sans-serif" font-size="14" lengthAdjust="spacing" textLength="182.0684" x="792.89" y="591.2895">-saldoResultante: decimal</text><text fill="#000000" font-family="sans-serif" font-size="14" lengthAdjust="spacing" textLength="171.6572" x="792.89" y="607.5864">-motivoAnulacion: string</text><text fill="#000000" font-family="sans-serif" font-size="14" lengthAdjust="spacing" textLength="191.1943" x="792.89" y="623.8832">-estado: EstadoMovimiento</text><line style="stroke:#181818;stroke-width:0.5;" x1="787.89" x2="989.0843" y1="631.185" y2="631.185"/></g><!--class TipoMovimiento--><g class="entity" data-entity="TipoMovimiento" data-source-line="58" data-uid="ent0010" id="entity_TipoMovimiento"><rect fill="#F1F1F1" height="80.5938" rx="2.5" ry="2.5" style="stroke:#181818;stroke-width:0.5;" width="143.7813" x="207.31" y="875.7"/><ellipse cx="222.31" cy="891.7" fill="#EB937F" rx="11" ry="11" style="stroke:#181818;stroke-width:1;"/><path d="M226.4194,897.7 L218.7006,897.7 L218.7006,885.3094 L226.4194,885.3094 L226.4194,887.4656 L221.1538,887.4656 L221.1538,890.1375 L225.9194,890.1375 L225.9194,892.2938 L221.1538,892.2938 L221.1538,895.5438 L226.4194,895.5438 L226.4194,897.7 Z " fill="#000000"/><text fill="#000000" font-family="sans-serif" font-size="14" lengthAdjust="spacing" textLength="111.7813" x="236.31" y="896.5467">TipoMovimiento</text><line style="stroke:#181818;stroke-width:0.5;" x1="208.31" x2="350.0913" y1="907.7" y2="907.7"/><text fill="#000000" font-family="sans-serif" font-size="14" lengthAdjust="spacing" textLength="109.7373" x="213.31" y="924.6951">COMPRA_FIADA</text><text fill="#000000" font-family="sans-serif" font-size="14" lengthAdjust="spacing" textLength="51.6934" x="213.31" y="940.992">ABONO</text><line style="stroke:#181818;stroke-width:0.5;" x1="208.31" x2="350.0913" y1="948.2938" y2="948.2938"/></g><!--class EstadoMovimiento--><g class="entity" data-entity="EstadoMovimiento" data-source-line="63" data-uid="ent0011" id="entity_EstadoMovimiento"><rect fill="#F1F1F1" height="80.5938" rx="2.5" ry="2.5" style="stroke:#181818;stroke-width:0.5;" width="161.5479" x="807.71" y="1107.7"/><ellipse cx="822.71" cy="1123.7" fill="#EB937F" rx="11" ry="11" style="stroke:#181818;stroke-width:1;"/><path d="M826.8194,1129.7 L819.1006,1129.7 L819.1006,1117.3094 L826.8194,1117.3094 L826.8194,1119.4656 L821.5538,1119.4656 L821.5538,1122.1375 L826.3194,1122.1375 L826.3194,1124.2938 L821.5538,1124.2938 L821.5538,1127.5438 L826.8194,1127.5438 L826.8194,1129.7 Z " fill="#000000"/><text fill="#000000" font-family="sans-serif" font-size="14" lengthAdjust="spacing" textLength="129.5479" x="836.71" y="1128.5467">EstadoMovimiento</text><line style="stroke:#181818;stroke-width:0.5;" x1="808.71" x2="968.2579" y1="1139.7" y2="1139.7"/><text fill="#000000" font-family="sans-serif" font-size="14" lengthAdjust="spacing" textLength="61.2705" x="813.71" y="1156.6951">VIGENTE</text><text fill="#000000" font-family="sans-serif" font-size="14" lengthAdjust="spacing" textLength="69.4736" x="813.71" y="1172.992">ANULADO</text><line style="stroke:#181818;stroke-width:0.5;" x1="808.71" x2="968.2579" y1="1180.2938" y2="1180.2938"/></g><!--class CuentaCredito--><g class="entity" data-entity="CuentaCredito" data-source-line="68" data-uid="ent0012" id="entity_CuentaCredito"><rect fill="#F1F1F1" height="129.4844" rx="2.5" ry="2.5" style="stroke:#181818;stroke-width:0.5;" width="349.0801" x="1666.9" y="657.26"/><ellipse cx="1786.6007" cy="673.26" fill="#ADD1B2" rx="11" ry="11" style="stroke:#181818;stroke-width:1;"/><path d="M1789.5694,678.9006 Q1788.9913,679.1975 1788.3507,679.3381 Q1787.7101,679.4944 1787.0069,679.4944 Q1784.5069,679.4944 1783.1788,677.8538 Q1781.8663,676.1975 1781.8663,673.0725 Q1781.8663,669.9475 1783.1788,668.2913 Q1784.5069,666.635 1787.0069,666.635 Q1787.7101,666.635 1788.3507,666.7913 Q1789.0069,666.9475 1789.5694,667.2444 L1789.5694,669.9631 Q1788.9444,669.385 1788.3507,669.1194 Q1787.7569,668.8381 1787.1319,668.8381 Q1785.7882,668.8381 1785.1007,669.9163 Q1784.4132,670.9788 1784.4132,673.0725 Q1784.4132,675.1663 1785.1007,676.2444 Q1785.7882,677.3069 1787.1319,677.3069 Q1787.7569,677.3069 1788.3507,677.0413 Q1788.9444,676.76 1789.5694,676.1819 L1789.5694,678.9006 Z " fill="#000000"/><text fill="#000000" font-family="sans-serif" font-size="14" lengthAdjust="spacing" textLength="101.1787" x="1807.1007" y="678.1067">CuentaCredito</text><line style="stroke:#181818;stroke-width:0.5;" x1="1667.9" x2="2014.9801" y1="689.26" y2="689.26"/><text fill="#000000" font-family="sans-serif" font-size="14" lengthAdjust="spacing" textLength="95.4502" x="1672.9" y="706.2551">-idCuenta: int</text><text fill="#000000" font-family="sans-serif" font-size="14" lengthAdjust="spacing" textLength="150.7324" x="1672.9" y="722.552">-saldoActual: decimal</text><text fill="#000000" font-family="sans-serif" font-size="14" lengthAdjust="spacing" textLength="248.6709" x="1672.9" y="738.8489">-fechaUltimoMovimiento: DateTime</text><line style="stroke:#181818;stroke-width:0.5;" x1="1667.9" x2="2014.9801" y1="746.1506" y2="746.1506"/><text fill="#000000" font-family="sans-serif" font-size="14" lengthAdjust="spacing" textLength="337.0801" x="1672.9" y="763.1457">+registrarMovimiento(mov: MovimientoCredito)</text><text fill="#000000" font-family="sans-serif" font-size="14" lengthAdjust="spacing" textLength="180.7832" x="1672.9" y="779.4426">+calcularSaldo(): decimal</text></g><!--class ServicioReportes--><g class="entity" data-entity="ServicioReportes" data-source-line="83" data-uid="ent0017" id="entity_ServicioReportes"><rect fill="#F1F1F1" height="96.8906" rx="2.5" ry="2.5" style="stroke:#181818;stroke-width:0.5;" width="514.4004" x="22" y="725.55"/><ellipse cx="215.686" cy="741.55" fill="#ADD1B2" rx="11" ry="11" style="stroke:#181818;stroke-width:1;"/><path d="M218.6548,747.1906 Q218.0767,747.4875 217.436,747.6281 Q216.7954,747.7844 216.0923,747.7844 Q213.5923,747.7844 212.2642,746.1438 Q210.9517,744.4875 210.9517,741.3625 Q210.9517,738.2375 212.2642,736.5813 Q213.5923,734.925 216.0923,734.925 Q216.7954,734.925 217.436,735.0813 Q218.0923,735.2375 218.6548,735.5344 L218.6548,738.2531 Q218.0298,737.675 217.436,737.4094 Q216.8423,737.1281 216.2173,737.1281 Q214.8735,737.1281 214.186,738.2063 Q213.4985,739.2688 213.4985,741.3625 Q213.4985,743.4563 214.186,744.5344 Q214.8735,745.5969 216.2173,745.5969 Q216.8423,745.5969 217.436,745.3313 Q218.0298,745.05 218.6548,744.4719 L218.6548,747.1906 Z " fill="#000000"/><text fill="#000000" font-family="sans-serif" font-size="14" lengthAdjust="spacing" textLength="118.5283" x="236.186" y="746.3967">ServicioReportes</text><line style="stroke:#181818;stroke-width:0.5;" x1="23" x2="535.4004" y1="757.55" y2="757.55"/><line style="stroke:#181818;stroke-width:0.5;" x1="23" x2="535.4004" y1="765.55" y2="765.55"/><text fill="#000000" font-family="sans-serif" font-size="14" lengthAdjust="spacing" textLength="381.582" x="28" y="782.5451">+generarReporteCartera(): List&lt;DTOReporteCartera&gt;</text><text fill="#000000" font-family="sans-serif" font-size="14" lengthAdjust="spacing" textLength="502.4004" x="28" y="798.842">+generarReporteMorosidad(diasMin: int): List&lt;DTOReporteMorosidad&gt;</text><text fill="#000000" font-family="sans-serif" font-size="14" lengthAdjust="spacing" textLength="322.5264" x="28" y="815.1389">+exportarCSV(datos: List&lt;any&gt;): ArchivoCSV</text></g><!--class DTOReporteCartera--><g class="entity" data-entity="DTOReporteCartera" data-source-line="89" data-uid="ent0018" id="entity_DTOReporteCartera"><rect fill="#F1F1F1" height="96.8906" rx="2.5" ry="2.5" style="stroke:#181818;stroke-width:0.5;" width="170.5508" x="803.21" y="674.55"/><ellipse cx="818.21" cy="690.55" fill="#ADD1B2" rx="11" ry="11" style="stroke:#181818;stroke-width:1;"/><path d="M821.1788,696.1906 Q820.6006,696.4875 819.96,696.6281 Q819.3194,696.7844 818.6163,696.7844 Q816.1163,696.7844 814.7881,695.1438 Q813.4756,693.4875 813.4756,690.3625 Q813.4756,687.2375 814.7881,685.5813 Q816.1163,683.925 818.6163,683.925 Q819.3194,683.925 819.96,684.0813 Q820.6163,684.2375 821.1788,684.5344 L821.1788,687.2531 Q820.5538,686.675 819.96,686.4094 Q819.3663,686.1281 818.7413,686.1281 Q817.3975,686.1281 816.71,687.2063 Q816.0225,688.2688 816.0225,690.3625 Q816.0225,692.4563 816.71,693.5344 Q817.3975,694.5969 818.7413,694.5969 Q819.3663,694.5969 819.96,694.3313 Q820.5538,694.05 821.1788,693.4719 L821.1788,696.1906 Z " fill="#000000"/><text fill="#000000" font-family="sans-serif" font-size="14" lengthAdjust="spacing" textLength="138.5508" x="832.21" y="695.3967">DTOReporteCartera</text><line style="stroke:#181818;stroke-width:0.5;" x1="804.21" x2="972.7608" y1="706.55" y2="706.55"/><text fill="#000000" font-family="sans-serif" font-size="14" lengthAdjust="spacing" textLength="92.5518" x="809.21" y="723.5451">-clienteId: int</text><text fill="#000000" font-family="sans-serif" font-size="14" lengthAdjust="spacing" textLength="157.8828" x="809.21" y="739.842">-nombreCliente: string</text><text fill="#000000" font-family="sans-serif" font-size="14" lengthAdjust="spacing" textLength="150.7324" x="809.21" y="756.1389">-saldoActual: decimal</text><line style="stroke:#181818;stroke-width:0.5;" x1="804.21" x2="972.7608" y1="763.4406" y2="763.4406"/></g><!--class DTOReporteMorosidad--><g class="entity" data-entity="DTOReporteMorosidad" data-source-line="95" data-uid="ent0019" id="entity_DTOReporteMorosidad"><rect fill="#F1F1F1" height="113.1875" rx="2.5" ry="2.5" style="stroke:#181818;stroke-width:0.5;" width="190.5049" x="793.23" y="806.41"/><ellipse cx="808.23" cy="822.41" fill="#ADD1B2" rx="11" ry="11" style="stroke:#181818;stroke-width:1;"/><path d="M811.1988,828.0506 Q810.6206,828.3475 809.98,828.4881 Q809.3394,828.6444 808.6363,828.6444 Q806.1363,828.6444 804.8081,827.0038 Q803.4956,825.3475 803.4956,822.2225 Q803.4956,819.0975 804.8081,817.4413 Q806.1363,815.785 808.6363,815.785 Q809.3394,815.785 809.98,815.9413 Q810.6363,816.0975 811.1988,816.3944 L811.1988,819.1131 Q810.5738,818.535 809.98,818.2694 Q809.3863,817.9881 808.7613,817.9881 Q807.4175,817.9881 806.73,819.0663 Q806.0425,820.1288 806.0425,822.2225 Q806.0425,824.3163 806.73,825.3944 Q807.4175,826.4569 808.7613,826.4569 Q809.3863,826.4569 809.98,826.1913 Q810.5738,825.91 811.1988,825.3319 L811.1988,828.0506 Z " fill="#000000"/><text fill="#000000" font-family="sans-serif" font-size="14" lengthAdjust="spacing" textLength="158.5049" x="822.23" y="827.2567">DTOReporteMorosidad</text><line style="stroke:#181818;stroke-width:0.5;" x1="794.23" x2="982.7349" y1="838.41" y2="838.41"/><text fill="#000000" font-family="sans-serif" font-size="14" lengthAdjust="spacing" textLength="92.5518" x="799.23" y="855.4051">-clienteId: int</text><text fill="#000000" font-family="sans-serif" font-size="14" lengthAdjust="spacing" textLength="157.8828" x="799.23" y="871.702">-nombreCliente: string</text><text fill="#000000" font-family="sans-serif" font-size="14" lengthAdjust="spacing" textLength="150.7324" x="799.23" y="887.9989">-saldoActual: decimal</text><text fill="#000000" font-family="sans-serif" font-size="14" lengthAdjust="spacing" textLength="96.0996" x="799.23" y="904.2957">-diasMora: int</text><line style="stroke:#181818;stroke-width:0.5;" x1="794.23" x2="982.7349" y1="911.5975" y2="911.5975"/></g><!--class ArchivoCSV--><g class="entity" data-entity="ArchivoCSV" data-source-line="102" data-uid="ent0020" id="entity_ArchivoCSV"><rect fill="#F1F1F1" height="80.5938" rx="2.5" ry="2.5" style="stroke:#181818;stroke-width:0.5;" width="173.3828" x="801.79" y="991.7"/><ellipse cx="844.015" cy="1007.7" fill="#ADD1B2" rx="11" ry="11" style="stroke:#181818;stroke-width:1;"/><path d="M846.9838,1013.3406 Q846.4056,1013.6375 845.765,1013.7781 Q845.1244,1013.9344 844.4213,1013.9344 Q841.9213,1013.9344 840.5931,1012.2938 Q839.2806,1010.6375 839.2806,1007.5125 Q839.2806,1004.3875 840.5931,1002.7313 Q841.9213,1001.075 844.4213,1001.075 Q845.1244,1001.075 845.765,1001.2313 Q846.4213,1001.3875 846.9838,1001.6844 L846.9838,1004.4031 Q846.3588,1003.825 845.765,1003.5594 Q845.1713,1003.2781 844.5463,1003.2781 Q843.2025,1003.2781 842.515,1004.3563 Q841.8275,1005.4188 841.8275,1007.5125 Q841.8275,1009.6063 842.515,1010.6844 Q843.2025,1011.7469 844.5463,1011.7469 Q845.1713,1011.7469 845.765,1011.4813 Q846.3588,1011.2 846.9838,1010.6219 L846.9838,1013.3406 Z " fill="#000000"/><text fill="#000000" font-family="sans-serif" font-size="14" lengthAdjust="spacing" textLength="80.8828" x="864.065" y="1012.5467">ArchivoCSV</text><line style="stroke:#181818;stroke-width:0.5;" x1="802.79" x2="974.1728" y1="1023.7" y2="1023.7"/><text fill="#000000" font-family="sans-serif" font-size="14" lengthAdjust="spacing" textLength="161.3828" x="807.79" y="1040.6951">-nombreArchivo: string</text><text fill="#000000" font-family="sans-serif" font-size="14" lengthAdjust="spacing" textLength="149.584" x="807.79" y="1056.992">-rutaTemporal: string</text><line style="stroke:#181818;stroke-width:0.5;" x1="802.79" x2="974.1728" y1="1064.2938" y2="1064.2938"/></g><!--class ServicioAutenticacion--><g class="entity" data-entity="ServicioAutenticacion" data-source-line="113" data-uid="ent0025" id="entity_ServicioAutenticacion"><rect fill="#F1F1F1" height="96.8906" rx="2.5" ry="2.5" style="stroke:#181818;stroke-width:0.5;" width="470.1719" x="653.4" y="242.55"/><ellipse cx="808.3912" cy="258.55" fill="#ADD1B2" rx="11" ry="11" style="stroke:#181818;stroke-width:1;"/><path d="M811.36,264.1906 Q810.7818,264.4875 810.1412,264.6281 Q809.5006,264.7844 808.7975,264.7844 Q806.2975,264.7844 804.9693,263.1437 Q803.6568,261.4875 803.6568,258.3625 Q803.6568,255.2375 804.9693,253.5812 Q806.2975,251.925 808.7975,251.925 Q809.5006,251.925 810.1412,252.0812 Q810.7975,252.2375 811.36,252.5344 L811.36,255.2531 Q810.735,254.675 810.1412,254.4094 Q809.5475,254.1281 808.9225,254.1281 Q807.5787,254.1281 806.8912,255.2062 Q806.2037,256.2687 806.2037,258.3625 Q806.2037,260.4562 806.8912,261.5344 Q807.5787,262.5969 808.9225,262.5969 Q809.5475,262.5969 810.1412,262.3312 Q810.735,262.05 811.36,261.4719 L811.36,264.1906 Z " fill="#000000"/><text fill="#000000" font-family="sans-serif" font-size="14" lengthAdjust="spacing" textLength="151.6895" x="828.8912" y="263.3967">ServicioAutenticacion</text><line style="stroke:#181818;stroke-width:0.5;" x1="654.4" x2="1122.5719" y1="274.55" y2="274.55"/><line style="stroke:#181818;stroke-width:0.5;" x1="654.4" x2="1122.5719" y1="282.55" y2="282.55"/><text fill="#000000" font-family="sans-serif" font-size="14" lengthAdjust="spacing" textLength="310.625" x="659.4" y="299.5451">+login(usuario: string, pass: string): Usuario</text><text fill="#000000" font-family="sans-serif" font-size="14" lengthAdjust="spacing" textLength="458.1719" x="659.4" y="315.842">+generarTokenRecuperacion(correo: string): TokenRecuperacion</text><text fill="#000000" font-family="sans-serif" font-size="14" lengthAdjust="spacing" textLength="443.4063" x="659.4" y="332.1389">+restablecerContrasena(token: string, nuevaPass: string): bool</text></g><!--class TokenRecuperacion--><g class="entity" data-entity="TokenRecuperacion" data-source-line="119" data-uid="ent0026" id="entity_TokenRecuperacion"><rect fill="#F1F1F1" height="113.1875" rx="2.5" ry="2.5" style="stroke:#181818;stroke-width:0.5;" width="206.332" x="1318.07" y="243.41"/><ellipse cx="1349.2023" cy="259.41" fill="#ADD1B2" rx="11" ry="11" style="stroke:#181818;stroke-width:1;"/><path d="M1352.1711,265.0506 Q1351.5929,265.3475 1350.9523,265.4881 Q1350.3117,265.6444 1349.6086,265.6444 Q1347.1086,265.6444 1345.7804,264.0037 Q1344.4679,262.3475 1344.4679,259.2225 Q1344.4679,256.0975 1345.7804,254.4412 Q1347.1086,252.785 1349.6086,252.785 Q1350.3117,252.785 1350.9523,252.9412 Q1351.6086,253.0975 1352.1711,253.3944 L1352.1711,256.1131 Q1351.5461,255.535 1350.9523,255.2694 Q1350.3586,254.9881 1349.7336,254.9881 Q1348.3898,254.9881 1347.7023,256.0662 Q1347.0148,257.1287 1347.0148,259.2225 Q1347.0148,261.3162 1347.7023,262.3944 Q1348.3898,263.4569 1349.7336,263.4569 Q1350.3586,263.4569 1350.9523,263.1912 Q1351.5461,262.91 1352.1711,262.3319 L1352.1711,265.0506 Z " fill="#000000"/><text fill="#000000" font-family="sans-serif" font-size="14" lengthAdjust="spacing" textLength="138.4824" x="1366.7873" y="264.2567">TokenRecuperacion</text><line style="stroke:#181818;stroke-width:0.5;" x1="1319.07" x2="1523.402" y1="275.41" y2="275.41"/><text fill="#000000" font-family="sans-serif" font-size="14" lengthAdjust="spacing" textLength="94.0557" x="1324.07" y="292.4051">-token: string</text><text fill="#000000" font-family="sans-serif" font-size="14" lengthAdjust="spacing" textLength="152.5645" x="1324.07" y="308.702">-correoUsuario: string</text><text fill="#000000" font-family="sans-serif" font-size="14" lengthAdjust="spacing" textLength="194.332" x="1324.07" y="324.9989">-fechaExpiracion: DateTime</text><line style="stroke:#181818;stroke-width:0.5;" x1="1319.07" x2="1523.402" y1="332.3006" y2="332.3006"/><text fill="#000000" font-family="sans-serif" font-size="14" lengthAdjust="spacing" textLength="121.0234" x="1324.07" y="349.2957">+esValido(): bool</text></g><!--class ServicioBackup--><g class="entity" data-entity="ServicioBackup" data-source-line="130" data-uid="ent0029" id="entity_ServicioBackup"><rect fill="#F1F1F1" height="80.5938" rx="2.5" ry="2.5" style="stroke:#181818;stroke-width:0.5;" width="312.4121" x="122.99" y="258.7"/><ellipse cx="221.2805" cy="274.7" fill="#ADD1B2" rx="11" ry="11" style="stroke:#181818;stroke-width:1;"/><path d="M224.2493,280.3406 Q223.6712,280.6375 223.0305,280.7781 Q222.3899,280.9344 221.6868,280.9344 Q219.1868,280.9344 217.8587,279.2938 Q216.5462,277.6375 216.5462,274.5125 Q216.5462,271.3875 217.8587,269.7313 Q219.1868,268.075 221.6868,268.075 Q222.3899,268.075 223.0305,268.2313 Q223.6868,268.3875 224.2493,268.6844 L224.2493,271.4031 Q223.6243,270.825 223.0305,270.5594 Q222.4368,270.2781 221.8118,270.2781 Q220.468,270.2781 219.7805,271.3563 Q219.093,272.4188 219.093,274.5125 Q219.093,276.6063 219.7805,277.6844 Q220.468,278.7469 221.8118,278.7469 Q222.4368,278.7469 223.0305,278.4813 Q223.6243,278.2 224.2493,277.6219 L224.2493,280.3406 Z " fill="#000000"/><text fill="#000000" font-family="sans-serif" font-size="14" lengthAdjust="spacing" textLength="107.3311" x="241.7805" y="279.5467">ServicioBackup</text><line style="stroke:#181818;stroke-width:0.5;" x1="123.99" x2="434.4021" y1="290.7" y2="290.7"/><line style="stroke:#181818;stroke-width:0.5;" x1="123.99" x2="434.4021" y1="298.7" y2="298.7"/><text fill="#000000" font-family="sans-serif" font-size="14" lengthAdjust="spacing" textLength="212.4473" x="128.99" y="315.6951">+ejecutarBackupDiario(): bool</text><text fill="#000000" font-family="sans-serif" font-size="14" lengthAdjust="spacing" textLength="300.4121" x="128.99" y="331.992">+restaurarDesdeBackup(ruta: string): bool</text></g><!--class LogAuditoria--><g class="entity" data-entity="LogAuditoria" data-source-line="135" data-uid="ent0030" id="entity_LogAuditoria"><rect fill="#F1F1F1" height="129.4844" rx="2.5" ry="2.5" style="stroke:#181818;stroke-width:0.5;" width="133.0645" x="821.95" y="41.26"/><ellipse cx="842.488" cy="57.26" fill="#ADD1B2" rx="11" ry="11" style="stroke:#181818;stroke-width:1;"/><path d="M845.4567,62.9006 Q844.8786,63.1975 844.238,63.3381 Q843.5974,63.4944 842.8942,63.4944 Q840.3942,63.4944 839.0661,61.8537 Q837.7536,60.1975 837.7536,57.0725 Q837.7536,53.9475 839.0661,52.2912 Q840.3942,50.635 842.8942,50.635 Q843.5974,50.635 844.238,50.7912 Q844.8942,50.9475 845.4567,51.2444 L845.4567,53.9631 Q844.8317,53.385 844.238,53.1194 Q843.6442,52.8381 843.0192,52.8381 Q841.6755,52.8381 840.988,53.9162 Q840.3005,54.9787 840.3005,57.0725 Q840.3005,59.1662 840.988,60.2444 Q841.6755,61.3069 843.0192,61.3069 Q843.6442,61.3069 844.238,61.0412 Q844.8317,60.76 845.4567,60.1819 L845.4567,62.9006 Z " fill="#000000"/><text fill="#000000" font-family="sans-serif" font-size="14" lengthAdjust="spacing" textLength="88.7578" x="857.7187" y="62.1067">LogAuditoria</text><line style="stroke:#181818;stroke-width:0.5;" x1="822.95" x2="954.0145" y1="73.26" y2="73.26"/><text fill="#000000" font-family="sans-serif" font-size="14" lengthAdjust="spacing" textLength="70.499" x="827.95" y="90.2551">-idLog: int</text><text fill="#000000" font-family="sans-serif" font-size="14" lengthAdjust="spacing" textLength="121.0645" x="827.95" y="106.552">-fecha: DateTime</text><text fill="#000000" font-family="sans-serif" font-size="14" lengthAdjust="spacing" textLength="106.2373" x="827.95" y="122.8489">-usuario: string</text><text fill="#000000" font-family="sans-serif" font-size="14" lengthAdjust="spacing" textLength="99.709" x="827.95" y="139.1457">-accion: string</text><text fill="#000000" font-family="sans-serif" font-size="14" lengthAdjust="spacing" textLength="109.6621" x="827.95" y="155.4426">-detalles: string</text><line style="stroke:#181818;stroke-width:0.5;" x1="822.95" x2="954.0145" y1="162.7444" y2="162.7444"/></g><!--link Usuario to Rol--><g class="link" data-entity-1="Usuario" data-entity-2="Rol" data-source-line="29" data-uid="lnk6" id="link_Usuario_Rol"><path codeLine="29" d="M1546.58,767.49 C1620.61,820.78 1711.72,886.35 1772.68,930.23" fill="none" id="Usuario-Rol" style="stroke:#181818;stroke-width:1;"/><polygon fill="#000000" points="1595.9581,796.4873,1590.3338,788.818,1586.9,793.5886,1595.9581,796.4873" style="stroke:#000000;stroke-width:1;"/><text fill="#000000" font-family="sans-serif" font-size="13" lengthAdjust="spacing" textLength="32.9443" x="1600.9" y="798.0669">tiene</text><text fill="#000000" font-family="sans-serif" font-size="13" lengthAdjust="spacing" textLength="8.271" x="1548.2606" y="787.2913">1</text><text fill="#000000" font-family="sans-serif" font-size="13" lengthAdjust="spacing" textLength="8.271" x="1754.467" y="919.3939">1</text></g><!--link Cliente to CuentaCredito--><g class="link" data-entity-1="Cliente" data-entity-2="CuentaCredito" data-source-line="76" data-uid="lnk13" id="link_Cliente_CuentaCredito"><path codeLine="76" d="M1515.57,528.57 C1579.36,566.55 1664.15,617.04 1731.11,656.9" fill="none" id="Cliente-CuentaCredito" style="stroke:#181818;stroke-width:1;"/><polygon fill="#000000" points="1593.1962,570.1243,1586.9278,562.9718,1583.9208,568.0223,1593.1962,570.1243" style="stroke:#000000;stroke-width:1;"/><text fill="#000000" font-family="sans-serif" font-size="13" lengthAdjust="spacing" textLength="38.9746" x="1597.9" y="572.0669">posee</text><text fill="#000000" font-family="sans-serif" font-size="13" lengthAdjust="spacing" textLength="8.271" x="1523.4172" y="545.6682">1</text><text fill="#000000" font-family="sans-serif" font-size="13" lengthAdjust="spacing" textLength="8.271" x="1710.62" y="646.0333">1</text></g><!--reverse link CuentaCredito to MovimientoCredito--><g class="link" data-entity-1="CuentaCredito" data-entity-2="MovimientoCredito" data-source-line="77" data-uid="lnk14" id="link_CuentaCredito_MovimientoCredito"><path codeLine="77" d="M1665.6111,790.7329 C1553.2711,825.6629 1413.81,849.21 1288.57,802 C1197.22,767.56 1205.51,710.08 1123.57,657 C1082.23,630.21 1033.08,606.65 990.51,588.51" fill="none" id="CuentaCredito-backto-MovimientoCredito" style="stroke:#181818;stroke-width:1;"/><polygon fill="none" points="1677.07,787.17,1670.1529,785.1318,1665.6111,790.7329,1672.5282,792.7711,1677.07,787.17" style="stroke:#181818;stroke-width:1;"/><polygon fill="#000000" points="1388.9503,792.1317,1396.7717,797.5425,1398.4583,791.9118,1388.9503,792.1317" style="stroke:#000000;stroke-width:1;"/><text fill="#000000" font-family="sans-serif" font-size="13" lengthAdjust="spacing" textLength="50.3877" x="1402.74" y="798.0669">registra</text><text fill="#000000" font-family="sans-serif" font-size="13" lengthAdjust="spacing" textLength="8.271" x="1651.7208" y="806.7376">1</text><text fill="#000000" font-family="sans-serif" font-size="13" lengthAdjust="spacing" textLength="6.5" x="998.241" y="603.9608">*</text></g><!--link MovimientoCredito to Usuario--><g class="link" data-entity-1="MovimientoCredito" data-entity-2="Usuario" data-source-line="79" data-uid="lnk15" id="link_MovimientoCredito_Usuario"><path codeLine="79" d="M990.57,574.38 C1075.08,594.76 1190.4172,622.5733 1282.5472,644.7933" fill="none" id="MovimientoCredito-to-Usuario" style="stroke:#181818;stroke-width:1;"/><polygon fill="#181818" points="1288.38,646.2,1280.5687,640.2014,1283.5194,645.0277,1278.693,647.9784,1288.38,646.2" style="stroke:#181818;stroke-width:1;"/><polygon fill="#000000" points="1164.9307,606.7386,1156.8266,601.7611,1155.4486,607.4751,1164.9307,606.7386" style="stroke:#000000;stroke-width:1;"/><text fill="#000000" font-family="sans-serif" font-size="13" lengthAdjust="spacing" textLength="87.731" x="1169.07" y="610.0669">registradoPor</text><text fill="#000000" font-family="sans-serif" font-size="13" lengthAdjust="spacing" textLength="6.5" x="997.9762" y="588.6933">*</text><text fill="#000000" font-family="sans-serif" font-size="13" lengthAdjust="spacing" textLength="8.271" x="1272.476" y="656.866">1</text></g><!--link MovimientoCredito to Cliente--><g class="link" data-entity-1="MovimientoCredito" data-entity-2="Cliente" data-source-line="80" data-uid="lnk16" id="link_MovimientoCredito_Cliente"><path codeLine="80" d="M990.57,535.34 C1087.56,521.26 1226.9022,501.0518 1321.1522,487.3718" fill="none" id="MovimientoCredito-to-Cliente" style="stroke:#181818;stroke-width:1;"/><polygon fill="#181818" points="1327.09,486.51,1317.6088,483.8442,1322.1419,487.2282,1318.7579,491.7613,1327.09,486.51" style="stroke:#181818;stroke-width:1;"/><polygon fill="#000000" points="1163.5182,488.8484,1154.1448,487.2388,1154.9889,493.0557,1163.5182,488.8484" style="stroke:#000000;stroke-width:1;"/><text fill="#000000" font-family="sans-serif" font-size="13" lengthAdjust="spacing" textLength="90.1494" x="1167.57" y="494.0669">correspondeA</text><text fill="#000000" font-family="sans-serif" font-size="13" lengthAdjust="spacing" textLength="6.5" x="997.9762" y="546.9083">*</text><text fill="#000000" font-family="sans-serif" font-size="13" lengthAdjust="spacing" textLength="8.271" x="1310.9739" y="500.3224">1</text></g><!--link ServicioReportes to CuentaCredito--><g class="link" data-entity-1="ServicioReportes" data-entity-2="CuentaCredito" data-source-line="107" data-uid="lnk21" id="link_ServicioReportes_CuentaCredito"><path codeLine="107" d="M451.65,822.88 C480.49,833.17 509.71,844.93 536.4,858 C592.75,885.59 593.4,918.64 653.4,937 C853.22,998.14 915.96,960.75 1123.57,937 C1356.25,910.38 1415.66,894.83 1636.9,818 C1662,809.28 1682.6544,800.9054 1707.4944,789.6554" fill="none" id="ServicioReportes-to-CuentaCredito" style="stroke:#181818;stroke-width:1;stroke-dasharray:7,7;"/><polygon fill="#181818" points="1712.96,787.18,1703.1114,787.2493,1708.4053,789.2428,1706.4119,794.5368,1712.96,787.18" style="stroke:#181818;stroke-width:1;"/><text fill="#000000" font-family="sans-serif" font-size="13" lengthAdjust="spacing" textLength="22.9785" x="1195.07" y="917.0669">usa</text></g><!--link ServicioReportes to MovimientoCredito--><g class="link" data-entity-1="ServicioReportes" data-entity-2="MovimientoCredito" data-source-line="108" data-uid="lnk22" id="link_ServicioReportes_MovimientoCredito"><path codeLine="108" d="M412.72,725.12 C525.27,683.6 678.7707,626.9864 781.1407,589.2264" fill="none" id="ServicioReportes-to-MovimientoCredito" style="stroke:#181818;stroke-width:1;stroke-dasharray:7,7;"/><polygon fill="#181818" points="786.77,587.15,776.9418,586.5118,782.0789,588.8803,779.7104,594.0174,786.77,587.15" style="stroke:#181818;stroke-width:1;"/><text fill="#000000" font-family="sans-serif" font-size="13" lengthAdjust="spacing" textLength="55.0278" x="567.4" y="645.0669">consulta</text></g><!--link ServicioReportes to DTOReporteCartera--><g class="link" data-entity-1="ServicioReportes" data-entity-2="DTOReporteCartera" data-source-line="109" data-uid="lnk23" id="link_ServicioReportes_DTOReporteCartera"><path codeLine="109" d="M536.86,752.45 C632.2,744.44 727.881,736.4021 797.061,730.5921" fill="none" id="ServicioReportes-to-DTOReporteCartera" style="stroke:#181818;stroke-width:1;stroke-dasharray:7,7;"/><polygon fill="#181818" points="803.04,730.09,793.7368,726.8572,798.0575,730.5084,794.4063,734.8292,803.04,730.09" style="stroke:#181818;stroke-width:1;"/></g><!--link ServicioReportes to DTOReporteMorosidad--><g class="link" data-entity-1="ServicioReportes" data-entity-2="DTOReporteMorosidad" data-source-line="110" data-uid="lnk24" id="link_ServicioReportes_DTOReporteMorosidad"><path codeLine="110" d="M536.86,811.62 C627.67,824.92 718.2735,838.1996 787.0235,848.2796" fill="none" id="ServicioReportes-to-DTOReporteMorosidad" style="stroke:#181818;stroke-width:1;stroke-dasharray:7,7;"/><polygon fill="#181818" points="792.96,849.15,784.6355,843.8867,788.0129,848.4247,783.4749,851.8021,792.96,849.15" style="stroke:#181818;stroke-width:1;"/></g><!--link ServicioAutenticacion to Usuario--><g class="link" data-entity-1="ServicioAutenticacion" data-entity-2="Usuario" data-source-line="126" data-uid="lnk27" id="link_ServicioAutenticacion_Usuario"><path codeLine="126" d="M1065.87,339.86 C1085.77,347.6 1105.41,356.31 1123.57,366 C1191.12,402.04 1215.51,409.7 1258.57,473 C1284.43,511.01 1262.86,533.89 1288.57,572 C1292.35,577.59 1292.6484,578.4478 1297.0884,583.7278" fill="none" id="ServicioAutenticacion-to-Usuario" style="stroke:#181818;stroke-width:1;stroke-dasharray:7,7;"/><polygon fill="#181818" points="1300.95,588.32,1298.219,578.8573,1297.732,584.4932,1292.0962,584.0061,1300.95,588.32" style="stroke:#181818;stroke-width:1;"/><text fill="#000000" font-family="sans-serif" font-size="13" lengthAdjust="spacing" textLength="39.1016" x="1186.57" y="380.0669">valida</text></g><!--link ServicioAutenticacion to TokenRecuperacion--><g class="link" data-entity-1="ServicioAutenticacion" data-entity-2="TokenRecuperacion" data-source-line="127" data-uid="lnk28" id="link_ServicioAutenticacion_TokenRecuperacion"><path codeLine="127" d="M1123.83,294.97 C1191.72,296.13 1256.3709,297.218 1311.6509,298.158" fill="none" id="ServicioAutenticacion-to-TokenRecuperacion" style="stroke:#181818;stroke-width:1;stroke-dasharray:7,7;"/><polygon fill="#181818" points="1317.65,298.26,1308.7193,294.1076,1312.6507,298.175,1308.5833,302.1064,1317.65,298.26" style="stroke:#181818;stroke-width:1;"/><text fill="#000000" font-family="sans-serif" font-size="13" lengthAdjust="spacing" textLength="55.8149" x="1178.57" y="292.0669">crea/usa</text></g><!--link ServicioBackup to LogAuditoria--><g class="link" data-entity-1="ServicioBackup" data-entity-2="LogAuditoria" data-source-line="143" data-uid="lnk31" id="link_ServicioBackup_LogAuditoria"><path codeLine="143" d="M390.78,258.23 C443.68,239.17 508.05,216.64 566.4,198 C654.09,169.99 750.7103,142.9147 815.8603,125.1947" fill="none" id="ServicioBackup-to-LogAuditoria" style="stroke:#181818;stroke-width:1;stroke-dasharray:7,7;"/><polygon fill="#181818" points="821.65,123.62,811.9157,122.1223,816.8253,124.9323,814.0153,129.8419,821.65,123.62" style="stroke:#181818;stroke-width:1;"/><text fill="#000000" font-family="sans-serif" font-size="13" lengthAdjust="spacing" textLength="50.3877" x="569.9" y="178.0669">registra</text></g><!--link ServicioBackup to CuentaCredito--><g class="link" data-entity-1="ServicioBackup" data-entity-2="CuentaCredito" data-source-line="144" data-uid="lnk32" id="link_ServicioBackup_CuentaCredito"><path codeLine="144" d="M435.8,261.08 C502.38,246.69 581.25,232.08 653.4,225 C752.98,215.22 1467.3,175.88 1553.9,226 C1716.36,320.02 1793.4583,539.2368 1823.5783,650.9668" fill="none" id="ServicioBackup-to-CuentaCredito" style="stroke:#181818;stroke-width:1;stroke-dasharray:7,7;"/><polygon fill="#181818" points="1825.14,656.76,1826.6595,647.0291,1823.8386,651.9323,1818.9353,649.1114,1825.14,656.76" style="stroke:#181818;stroke-width:1;"/><text fill="#000000" font-family="sans-serif" font-size="13" lengthAdjust="spacing" textLength="46.541" x="1183.07" y="198.0669">incluye</text></g><!--link ServicioBackup to MovimientoCredito--><g class="link" data-entity-1="ServicioBackup" data-entity-2="MovimientoCredito" data-source-line="145" data-uid="lnk33" id="link_ServicioBackup_MovimientoCredito"><path codeLine="145" d="M378.78,339.75 C490.97,386.12 667.7251,459.1679 780.9151,505.9579" fill="none" id="ServicioBackup-to-MovimientoCredito" style="stroke:#181818;stroke-width:1;stroke-dasharray:7,7;"/><polygon fill="#181818" points="786.46,508.25,779.6707,501.1152,781.8392,506.3399,776.6145,508.5084,786.46,508.25" style="stroke:#181818;stroke-width:1;"/><text fill="#000000" font-family="sans-serif" font-size="13" lengthAdjust="spacing" textLength="46.541" x="571.9" y="421.0669">incluye</text></g><!--link ServicioBackup to Cliente--><g class="link" data-entity-1="ServicioBackup" data-entity-2="Cliente" data-source-line="146" data-uid="lnk34" id="link_ServicioBackup_Cliente"><path codeLine="146" d="M435.46,332.73 C502.32,346.6 581.51,362.15 653.4,374 C895.12,413.84 1175.9557,446.5361 1320.7057,462.4061" fill="none" id="ServicioBackup-to-Cliente" style="stroke:#181818;stroke-width:1;stroke-dasharray:7,7;"/><polygon fill="#181818" points="1326.67,463.06,1318.1595,458.103,1321.6998,462.5151,1317.2877,466.0553,1326.67,463.06" style="stroke:#181818;stroke-width:1;"/><text fill="#000000" font-family="sans-serif" font-size="13" lengthAdjust="spacing" textLength="46.541" x="865.49" y="370.0669">incluye</text></g><!--SRC=[hLRDRkCs4BxxAOXSrcb-jhqQtG2Ax6w5EfOXom5wAXXfuh2HI86aZEmkzW5wwAbFiS-H5-jGfYLHLBmzr0Sd7ivmPhvlPZW5F6gY1P5izwH9pYHacWa-KS-CLrJIacG5LIhGMhA7MaEK2RvXdu7yE9bKD7kcEo1dSr4opWG9vUktd6cXICg0v_ICV9bC27b7FZGVijriWoIAD-HtaiJBnSRAKQLnGhQgfXBl-O8IGgu8owraHXZNLiX5-I0X56LLWCOJXP7ndNFOMZbdcP0IV27NaYhWz5UgdWQ7e3JDqMBH_BMtDcSNX28ONBECocc5iQyBojkxpsVaGOZ2QbOrv13mkg3oJknPYT1eCUrqlavQ019Hz9B7NtxYHn_4VjwHjHGL0srYkoH1_S8AHkKb0PrTMyiSL2PPbI6nlGmRly3hqitF1X24QNGVD_z6g_P7OtDKFFlfZ5nTDNzCu3EYCJKWDmxduJ9QhDA5uJnCNl-QHsdiyHuM1XFefMub_vbtYZchWKn30O-23rN5WmAvfmOCK2S9jq5O6irPWCsnzxZhOUXcSWB3G-9TFOGIJEVq8EZE-YWyGlP4PsHEDQIiX6Egh4Aj5ByxAtjKYkQ6739Mqi8A9Jo219unEW10qI8N2QYwqBJ1txKhXSc_gUL1CVdeEP5qEBb1sdp3-6wT17_y4WNpu83SRRoAH_3rBE-ZZwQy3aQhxJAO3o0EQzIcFhm7UH_Q9dTakAR5CEy6zMsXMIdwj3WiN22gEuQ0E6rUYltCf_dSMcIqoCnSs1ZNfgmwjqqAntBgTPgRpunKGe7fEJ8uCRh2sFnmDb9cipROGxlw6iRkwkgckUVOy9rLBjP2DbvFMnuJc1schwe4nrau6179OXqdTaJ4gyrscGRUYDXWppAikGGg8JKeo-G5sU78GSYjFAJu9Qc1Sec1_ZnFO_VaPjJiJaYXM4xpQOvpv8xnfYxyIrgzupNmOkHKXflxQKxnvRCcb7-wGVD0Pa_OC7Zg5gKNLbkOsG6mA1yPVSUPw7UiNxMZpjhm_tTtpIjZe1EoxQbU21qEhUU34timS29hJLCeCMRZnNsml4Aulhxncg9Mz2tLiLx09Q2PU6_PU7HzNx65sgdqO9lYj8h288nU_rcHzsIp-BXDedamVwlUW-EQOUPjM_I5s34-hTqrvvAOHQItWxWBYwtuL3m3Jo2hA_nbBfswUn7QUIhjVCCP_5101Z9irwQfDjfT3Bo6FLsxWVYBZkUYhGldEcTp6z_gcj6yUAcOj4_IO2Y3kiVb8FSUxN603OdTjDiRItfIsKy4oqa2VMzAi4_zRH3-jbqZvS7Mx439wzy1cSRhC8fNmVByBVflSSMkgvPt-1CzuRWvYEVCn3brjys6f1g9deFAuQ0uDGrrae-bs0MrwGR9QE-HHF7tbuzwb1UQZMm8EQwfHU6iNGuPDbq3h1DHz_2CAm_xd_6ig3_1kFBO13Xfq3rYHxN9rty1]--></g></svg>