<svg xmlns="http://www.w3.org/2000/svg" xmlns:xlink="http://www.w3.org/1999/xlink" contentStyleType="text/css" data-diagram-type="DESCRIPTION" height="852px" preserveAspectRatio="none" style="width:1905px;height:852px;background:#FFFFFF;" version="1.1" viewBox="0 0 1905 852" width="1905px" zoomAndPan="magnify"><title>Diagrama de Componentes - Libro Electr&#243;nico de Cr&#233;ditos</title><defs/><g><g class="title" data-source-line="1"><text fill="#000000" font-family="sans-serif" font-size="14" font-weight="bold" lengthAdjust="spacing" textLength="457.7617" x="717.0891" y="22.9951">Diagrama de Componentes - Libro Electr&#243;nico de Cr&#233;ditos</text></g><!--cluster Browser--><g class="cluster" data-entity="Browser" data-source-line="8" data-uid="ent0003" id="cluster_Browser"><polygon fill="none" points="326.62,586.2969,336.62,576.2969,527.4,576.2969,527.4,674.2969,517.4,684.2969,326.62,684.2969,326.62,586.2969" style="stroke:#181818;stroke-width:1;"/><line style="stroke:#181818;stroke-width:1;" x1="517.4" x2="527.4" y1="586.2969" y2="576.2969"/><line style="stroke:#181818;stroke-width:1;" x1="326.62" x2="517.4" y1="586.2969" y2="586.2969"/><line style="stroke:#181818;stroke-width:1;" x1="517.4" x2="517.4" y1="586.2969" y2="684.2969"/><text fill="#000000" font-family="sans-serif" font-size="14" font-weight="bold" lengthAdjust="spacing" textLength="125.6309" x="360.1946" y="602.292">Navegador Web</text></g><!--cluster AppServer--><g class="cluster" data-entity="AppServer" data-source-line="12" data-uid="ent0005" id="cluster_AppServer"><polygon fill="none" points="701.4,335.2969,711.4,325.2969,1146.02,325.2969,1146.02,687.2969,1136.02,697.2969,701.4,697.2969,701.4,335.2969" style="stroke:#181818;stroke-width:1;"/><line style="stroke:#181818;stroke-width:1;" x1="1136.02" x2="1146.02" y1="335.2969" y2="325.2969"/><line style="stroke:#181818;stroke-width:1;" x1="701.4" x2="1136.02" y1="335.2969" y2="335.2969"/><line style="stroke:#181818;stroke-width:1;" x1="1136.02" x2="1136.02" y1="335.2969" y2="697.2969"/><text fill="#000000" font-family="sans-serif" font-size="14" font-weight="bold" lengthAdjust="spacing" textLength="152.708" x="843.356" y="351.292">Servidor Aplicaci&#243;n</text></g><!--cluster Infra--><g class="cluster" data-entity="Infra" data-source-line="23" data-uid="ent0012" id="cluster_Infra"><polygon fill="none" points="1315.02,53.2969,1325.02,43.2969,1888.94,43.2969,1888.94,245.2969,1878.94,255.2969,1315.02,255.2969,1315.02,53.2969" style="stroke:#181818;stroke-width:1;"/><line style="stroke:#181818;stroke-width:1;" x1="1878.94" x2="1888.94" y1="53.2969" y2="43.2969"/><line style="stroke:#181818;stroke-width:1;" x1="1315.02" x2="1878.94" y1="53.2969" y2="53.2969"/><line style="stroke:#181818;stroke-width:1;" x1="1878.94" x2="1878.94" y1="53.2969" y2="255.2969"/><text fill="#000000" font-family="sans-serif" font-size="14" font-weight="bold" lengthAdjust="spacing" textLength="120.3193" x="1537.8203" y="69.292">Infraestructura</text></g><!--entity UIWeb--><g class="entity" data-entity="UIWeb" data-source-line="9" data-uid="ent0004" id="entity_UIWeb"><rect fill="#F1F1F1" height="52.5938" rx="2.5" ry="2.5" style="stroke:#181818;stroke-width:0.5;" width="144.7764" x="354.62" y="615.9969"/><text fill="#000000" font-family="sans-serif" font-size="14" lengthAdjust="spacing" textLength="50.1689" x="364.62" y="638.992">UI Web</text><text fill="#000000" font-family="sans-serif" font-size="14" lengthAdjust="spacing" textLength="124.7764" x="364.62" y="655.2889">(P&#225;ginas y Vistas)</text></g><!--entity CAuth--><g class="entity" data-entity="CAuth" data-source-line="14" data-uid="ent0006" id="entity_CAuth"><rect fill="#F1F1F1" height="36.2969" rx="2.5" ry="2.5" style="stroke:#181818;stroke-width:0.5;" width="171.416" x="717.4" y="365.1469"/><text fill="#000000" font-family="sans-serif" font-size="14" lengthAdjust="spacing" textLength="151.416" x="727.4" y="388.142">M&#243;dulo Autenticaci&#243;n</text></g><!--entity CClientes--><g class="entity" data-entity="CClientes" data-source-line="15" data-uid="ent0007" id="entity_CClientes"><rect fill="#F1F1F1" height="52.5938" rx="2.5" ry="2.5" style="stroke:#181818;stroke-width:0.5;" width="128.8828" x="975.48" y="540.9969"/><text fill="#000000" font-family="sans-serif" font-size="14" lengthAdjust="spacing" textLength="108.8828" x="985.48" y="563.992">M&#243;dulo Gesti&#243;n</text><text fill="#000000" font-family="sans-serif" font-size="14" lengthAdjust="spacing" textLength="56.4375" x="985.48" y="580.2889">Clientes</text></g><!--entity CCreditos--><g class="entity" data-entity="CCreditos" data-source-line="16" data-uid="ent0008" id="entity_CCreditos"><rect fill="#F1F1F1" height="52.5938" rx="2.5" ry="2.5" style="stroke:#181818;stroke-width:0.5;" width="128.8828" x="975.48" y="452.9969"/><text fill="#000000" font-family="sans-serif" font-size="14" lengthAdjust="spacing" textLength="108.8828" x="985.48" y="475.992">M&#243;dulo Gesti&#243;n</text><text fill="#000000" font-family="sans-serif" font-size="14" lengthAdjust="spacing" textLength="58.2695" x="985.48" y="492.2889">Cr&#233;ditos</text></g><!--entity CReportes--><g class="entity" data-entity="CReportes" data-source-line="17" data-uid="ent0009" id="entity_CReportes"><rect fill="#F1F1F1" height="52.5938" rx="2.5" ry="2.5" style="stroke:#181818;stroke-width:0.5;" width="162.2354" x="958.8" y="364.9969"/><text fill="#000000" font-family="sans-serif" font-size="14" lengthAdjust="spacing" textLength="118.2549" x="968.8" y="387.992">M&#243;dulo Reportes</text><text fill="#000000" font-family="sans-serif" font-size="14" lengthAdjust="spacing" textLength="142.2354" x="968.8" y="404.2889">Cartera y Morosidad</text></g><!--entity CAdminUsuarios--><g class="entity" data-entity="CAdminUsuarios" data-source-line="18" data-uid="ent0010" id="entity_CAdminUsuarios"><rect fill="#F1F1F1" height="52.5938" rx="2.5" ry="2.5" style="stroke:#181818;stroke-width:0.5;" width="180.207" x="949.81" y="628.9969"/><text fill="#000000" font-family="sans-serif" font-size="14" lengthAdjust="spacing" textLength="160.207" x="959.81" y="651.992">M&#243;dulo Administraci&#243;n</text><text fill="#000000" font-family="sans-serif" font-size="14" lengthAdjust="spacing" textLength="115.7734" x="959.81" y="668.2889">Usuarios y Roles</text></g><!--entity CAPI--><g class="entity" data-entity="CAPI" data-source-line="19" data-uid="ent0011" id="entity_CAPI"><rect fill="#F1F1F1" height="52.5938" rx="2.5" ry="2.5" style="stroke:#181818;stroke-width:0.5;" width="145.5283" x="730.34" y="435.9969"/><text fill="#000000" font-family="sans-serif" font-size="14" lengthAdjust="spacing" textLength="76.9111" x="740.34" y="458.992">API Interna</text><text fill="#000000" font-family="sans-serif" font-size="14" lengthAdjust="spacing" textLength="125.5283" x="740.34" y="475.2889">Servicios Dominio</text></g><!--entity BDD--><g class="entity" data-entity="BDD" data-source-line="25" data-uid="ent0013" id="entity_BDD"><path d="M1708.75,171.3469 C1708.75,161.3469 1790.8418,161.3469 1790.8418,161.3469 C1790.8418,161.3469 1872.9336,161.3469 1872.9336,171.3469 L1872.9336,229.2375 C1872.9336,239.2375 1790.8418,239.2375 1790.8418,239.2375 C1790.8418,239.2375 1708.75,239.2375 1708.75,229.2375 L1708.75,171.3469" fill="#F1F1F1" style="stroke:#181818;stroke-width:0.5;"/><path d="M1708.75,171.3469 C1708.75,181.3469 1790.8418,181.3469 1790.8418,181.3469 C1790.8418,181.3469 1872.9336,181.3469 1872.9336,171.3469" fill="none" style="stroke:#181818;stroke-width:0.5;"/><text fill="#000000" font-family="sans-serif" font-size="14" lengthAdjust="spacing" textLength="101.1992" x="1718.75" y="198.342">Base de Datos</text><text fill="#000000" font-family="sans-serif" font-size="14" lengthAdjust="spacing" textLength="130.2861" x="1718.75" y="214.6389">Usuarios, Clientes,</text><text fill="#000000" font-family="sans-serif" font-size="14" lengthAdjust="spacing" textLength="144.1836" x="1718.75" y="230.9357">Movimientos, Saldos</text></g><!--entity CMail--><g class="entity" data-entity="CMail" data-source-line="26" data-uid="ent0014" id="entity_CMail"><rect fill="#F1F1F1" height="68.8906" rx="2.5" ry="2.5" style="stroke:#181818;stroke-width:0.5;" width="180.7334" x="1331.02" y="170.8469"/><text fill="#000000" font-family="sans-serif" font-size="14" lengthAdjust="spacing" textLength="107.0645" x="1341.02" y="193.842">Servicio Correo</text><text fill="#000000" font-family="sans-serif" font-size="14" lengthAdjust="spacing" textLength="116.6416" x="1341.02" y="210.1389">(Notificaciones y</text><text fill="#000000" font-family="sans-serif" font-size="14" lengthAdjust="spacing" textLength="160.7334" x="1341.02" y="226.4357">Recuperar contrase&#241;a)</text></g><!--entity CBackup--><g class="entity" data-entity="CBackup" data-source-line="27" data-uid="ent0015" id="entity_CBackup"><rect fill="#F1F1F1" height="52.5938" rx="2.5" ry="2.5" style="stroke:#181818;stroke-width:0.5;" width="153.9707" x="1344.4" y="82.9969"/><text fill="#000000" font-family="sans-serif" font-size="14" lengthAdjust="spacing" textLength="111.7813" x="1354.4" y="105.992">Servicio Backup</text><text fill="#000000" font-family="sans-serif" font-size="14" lengthAdjust="spacing" textLength="133.9707" x="1354.4" y="122.2889">(Respaldos diarios)</text></g><!--entity Usuario--><g class="entity" data-entity="Usuario" data-source-line="6" data-uid="ent0002" id="entity_Usuario"><ellipse cx="102.8105" cy="604.4969" fill="#F1F1F1" rx="8" ry="8" style="stroke:#181818;stroke-width:0.5;"/><path d="M102.8105,612.4969 L102.8105,639.4969 M89.8105,620.4969 L115.8105,620.4969 M102.8105,639.4969 L89.8105,654.4969 M102.8105,639.4969 L115.8105,654.4969" fill="none" style="stroke:#181818;stroke-width:0.5;"/><text fill="#000000" font-family="sans-serif" font-size="14" lengthAdjust="spacing" textLength="53.2041" x="6" y="668.992">Usuario</text><text fill="#000000" font-family="sans-serif" font-size="14" lengthAdjust="spacing" textLength="193.6211" x="6" y="685.2889">(Tendero / Admin / Auxiliar)</text></g><!--entity CAudit--><g class="entity" data-entity="CAudit" data-source-line="57" data-uid="ent0033" id="entity_CAudit"><rect fill="#F1F1F1" height="52.5938" rx="2.5" ry="2.5" style="stroke:#181818;stroke-width:0.5;" width="143.7852" x="1349.49" y="635.9969"/><text fill="#000000" font-family="sans-serif" font-size="14" lengthAdjust="spacing" textLength="123.5391" x="1359.49" y="658.992">Servicio Auditor&#237;a</text><text fill="#000000" font-family="sans-serif" font-size="14" lengthAdjust="spacing" textLength="123.7852" x="1359.49" y="675.2889">(Log de acciones)</text></g><!--link Usuario to UIWeb--><g class="link" data-entity-1="Usuario" data-entity-2="UIWeb" data-source-line="32" data-uid="lnk16" id="link_Usuario_UIWeb"><path d="M200.04,642.2969 C249.55,642.2969 302.88,642.2969 348.31,642.2969" fill="none" id="Usuario-to-UIWeb" style="stroke:#181818;stroke-width:1;"/><polygon fill="#181818" points="354.31,642.2969,345.31,638.2969,349.31,642.2969,345.31,646.2969,354.31,642.2969" style="stroke:#181818;stroke-width:1;"/><text fill="#000000" font-family="sans-serif" font-size="13" lengthAdjust="spacing" textLength="79.625" x="230.62" y="638.3638">HTTP/HTTPS</text></g><!--link UIWeb to CAuth--><g class="link" data-entity-1="UIWeb" data-entity-2="CAuth" data-source-line="33" data-uid="lnk17" id="link_UIWeb_CAuth"><path d="M448.5,615.6169 C470.27,588.3069 506.54,545.5469 543.4,514.2969 C603.77,463.1069 621.8,452.0369 693.4,418.2969 C706.49,412.1269 715.2736,408.5413 729.2636,403.8313" fill="none" id="UIWeb-to-CAuth" style="stroke:#181818;stroke-width:1;"/><polygon fill="#181818" points="734.95,401.9169,725.1441,400.9976,730.2113,403.5122,727.6967,408.5794,734.95,401.9169" style="stroke:#181818;stroke-width:1;"/><text fill="#000000" font-family="sans-serif" font-size="13" lengthAdjust="spacing" textLength="110.5825" x="559.3551" y="403.3638">Peticiones login /</text><text fill="#000000" font-family="sans-serif" font-size="13" lengthAdjust="spacing" textLength="140.4927" x="544.4" y="418.4966">recuperar contrase&#241;a</text></g><!--link UIWeb to CClientes--><g class="link" data-entity-1="UIWeb" data-entity-2="CClientes" data-source-line="34" data-uid="lnk18" id="link_UIWeb_CClientes"><path d="M486.84,668.9969 C577.28,705.9469 754.12,761.7569 888.81,702.2969 C933.36,682.6269 914.94,645.2769 949.81,611.2969 C957.23,604.0669 960.8736,600.8338 970.0536,595.4938" fill="none" id="UIWeb-to-CClientes" style="stroke:#181818;stroke-width:1;"/><polygon fill="#181818" points="975.24,592.4769,965.4492,593.5447,970.918,594.991,969.4717,600.4598,975.24,592.4769" style="stroke:#181818;stroke-width:1;"/><text fill="#000000" font-family="sans-serif" font-size="13" lengthAdjust="spacing" textLength="124.7378" x="741.11" y="698.3638">Gesti&#243;n de clientes</text></g><!--link UIWeb to CCreditos--><g class="link" data-entity-1="UIWeb" data-entity-2="CCreditos" data-source-line="35" data-uid="lnk19" id="link_UIWeb_CCreditos"><path d="M499.88,656.7669 C595.57,672.0769 766.9,685.4069 888.81,615.2969 C931.34,590.8369 912.99,555.7169 949.81,523.2969 C957.45,516.5669 961.0905,513.5837 970.1905,508.3837" fill="none" id="UIWeb-to-CCreditos" style="stroke:#181818;stroke-width:1;"/><polygon fill="#181818" points="975.4,505.4069,965.6013,506.3992,971.0588,507.8876,969.5704,513.3451,975.4,505.4069" style="stroke:#181818;stroke-width:1;"/><text fill="#000000" font-family="sans-serif" font-size="13" lengthAdjust="spacing" textLength="109.8208" x="748.61" y="596.3638">Compras fiadas /</text><text fill="#000000" font-family="sans-serif" font-size="13" lengthAdjust="spacing" textLength="48.0645" x="779.4882" y="611.4966">Abonos</text></g><!--link UIWeb to CReportes--><g class="link" data-entity-1="UIWeb" data-entity-2="CReportes" data-source-line="36" data-uid="lnk20" id="link_UIWeb_CReportes"><path d="M499.41,625.2369 C624.74,595.1069 872.65,534.5569 888.81,523.2969 C927.86,496.0869 913.78,466.3769 949.81,435.2969 C957.26,428.8769 960.6075,426.1158 969.3975,421.0658" fill="none" id="UIWeb-to-CReportes" style="stroke:#181818;stroke-width:1;"/><polygon fill="#181818" points="974.6,418.0769,964.8036,419.0919,970.2646,420.5677,968.7888,426.0286,974.6,418.0769" style="stroke:#181818;stroke-width:1;"/><text fill="#000000" font-family="sans-serif" font-size="13" lengthAdjust="spacing" textLength="121.1958" x="742.61" y="519.3638">Consultar reportes</text></g><!--link UIWeb to CAdminUsuarios--><g class="link" data-entity-1="UIWeb" data-entity-2="CAdminUsuarios" data-source-line="37" data-uid="lnk21" id="link_UIWeb_CAdminUsuarios"><path d="M447.9,668.9969 C468.78,695.0569 504,733.8269 543.4,755.2969 C603.42,788.0069 625.46,781.6969 693.4,789.2969 C779.71,798.9569 807.66,820.2469 888.81,789.2969 C945.12,767.8169 989.9812,719.1554 1015.6812,686.6154" fill="none" id="UIWeb-to-CAdminUsuarios" style="stroke:#181818;stroke-width:1;"/><polygon fill="#181818" points="1019.4,681.9069,1010.6828,686.4905,1016.301,685.8307,1016.9608,691.4489,1019.4,681.9069" style="stroke:#181818;stroke-width:1;"/><text fill="#000000" font-family="sans-serif" font-size="13" lengthAdjust="spacing" textLength="156.438" x="725.11" y="785.3638">Administraci&#243;n usuarios</text></g><!--link CAuth to BDD--><g class="link" data-entity-1="CAuth" data-entity-2="BDD" data-source-line="40" data-uid="lnk22" id="link_CAuth_BDD"><path d="M874.24,364.7069 C898.13,358.7169 925.04,352.3269 949.81,347.2969 C1197.68,296.9169 1262.93,302.6969 1511.75,257.2969 C1578.18,245.1769 1647.2812,230.9549 1702.6312,219.1849" fill="none" id="CAuth-to-BDD" style="stroke:#181818;stroke-width:1;"/><polygon fill="#181818" points="1708.5,217.9369,1698.8648,215.8963,1703.6094,218.9769,1700.5288,223.7214,1708.5,217.9369" style="stroke:#181818;stroke-width:1;"/><text fill="#000000" font-family="sans-serif" font-size="13" lengthAdjust="spacing" textLength="106.4565" x="1177.6958" y="273.3638">CRUD Usuarios /</text><text fill="#000000" font-family="sans-serif" font-size="13" lengthAdjust="spacing" textLength="135.8081" x="1163.02" y="288.4966">Tokens recuperaci&#243;n</text></g><!--link CClientes to BDD--><g class="link" data-entity-1="CClientes" data-entity-2="BDD" data-source-line="41" data-uid="lnk23" id="link_CClientes_BDD"><path d="M1104.71,565.7069 C1249.5,560.7669 1596.77,540.9069 1678.75,463.2969 C1743.72,401.7869 1771.14,302.1537 1782.35,245.2637" fill="none" id="CClientes-to-BDD" style="stroke:#181818;stroke-width:1;"/><polygon fill="#181818" points="1783.51,239.3769,1777.8455,247.4338,1782.5434,244.2825,1785.6946,248.9804,1783.51,239.3769" style="stroke:#181818;stroke-width:1;"/><text fill="#000000" font-family="sans-serif" font-size="13" lengthAdjust="spacing" textLength="94.1738" x="1374.39" y="524.3638">CRUD Clientes</text></g><!--link CCreditos to BDD--><g class="link" data-entity-1="CCreditos" data-entity-2="BDD" data-source-line="42" data-uid="lnk24" id="link_CCreditos_BDD"><path d="M1104.67,489.0469 C1230.1,504.4669 1511.28,519.7869 1678.75,380.2969 C1724.61,342.1069 1754.6174,285.3692 1772.1674,245.0092" fill="none" id="CCreditos-to-BDD" style="stroke:#181818;stroke-width:1;"/><polygon fill="#181818" points="1774.56,239.5069,1767.3029,246.1653,1772.5662,244.0921,1774.6393,249.3554,1774.56,239.5069" style="stroke:#181818;stroke-width:1;"/><text fill="#000000" font-family="sans-serif" font-size="13" lengthAdjust="spacing" textLength="133.0913" x="1354.9693" y="448.3638">CRUD Movimientos /</text><text fill="#000000" font-family="sans-serif" font-size="13" lengthAdjust="spacing" textLength="133.25" x="1354.89" y="463.4966">Actualizaci&#243;n Saldos</text></g><!--link CReportes to BDD--><g class="link" data-entity-1="CReportes" data-entity-2="BDD" data-source-line="43" data-uid="lnk25" id="link_CReportes_BDD"><path d="M1121.5,400.6769 C1248.48,411.5669 1499.14,416.9869 1678.75,318.2969 C1713.15,299.3969 1739.4191,270.8336 1759.5091,244.4036" fill="none" id="CReportes-to-BDD" style="stroke:#181818;stroke-width:1;"/><polygon fill="#181818" points="1763.14,239.6269,1754.5092,244.3713,1760.1143,243.6075,1760.8782,249.2125,1763.14,239.6269" style="stroke:#181818;stroke-width:1;"/><text fill="#000000" font-family="sans-serif" font-size="13" lengthAdjust="spacing" textLength="136.6333" x="1353.5262" y="362.3638">Consultas agregadas</text><text fill="#000000" font-family="sans-serif" font-size="13" lengthAdjust="spacing" textLength="138.9058" x="1352.39" y="377.4966">(Cartera / Morosidad)</text></g><!--link CAdminUsuarios to BDD--><g class="link" data-entity-1="CAdminUsuarios" data-entity-2="BDD" data-source-line="44" data-uid="lnk26" id="link_CAdminUsuarios_BDD"><path d="M1097.86,682.0269 C1224.64,737.1669 1530.62,845.1669 1678.75,680.2969 C1737.85,614.5169 1773.2692,347.8681 1784.9692,245.4181" fill="none" id="CAdminUsuarios-to-BDD" style="stroke:#181818;stroke-width:1;"/><polygon fill="#181818" points="1785.65,239.4569,1780.6547,247.9449,1785.0827,244.4246,1788.603,248.8526,1785.65,239.4569" style="stroke:#181818;stroke-width:1;"/><text fill="#000000" font-family="sans-serif" font-size="13" lengthAdjust="spacing" textLength="106.4565" x="1368.39" y="734.3638">CRUD Usuarios /</text><text fill="#000000" font-family="sans-serif" font-size="13" lengthAdjust="spacing" textLength="35.3691" x="1403.9337" y="749.4966">Roles</text></g><!--link CAPI to CClientes--><g class="link" data-entity-1="CAPI" data-entity-2="CClientes" data-source-line="47" data-uid="lnk27" id="link_CAPI_CClientes"><path d="M876.19,478.0569 C891.12,482.7969 906.38,488.7869 919.81,496.2969 C935.47,505.0369 934.97,513.2269 949.81,523.2969 C958.95,529.4869 963.7783,532.5465 973.8483,537.8365" fill="none" id="CAPI-to-CClientes" style="stroke:#181818;stroke-width:1;stroke-dasharray:7,7;"/><polygon fill="#181818" points="979.16,540.6269,973.0527,532.9002,974.7336,538.3016,969.3322,539.9825,979.16,540.6269" style="stroke:#181818;stroke-width:1;"/></g><!--link CAPI to CCreditos--><g class="link" data-entity-1="CAPI" data-entity-2="CCreditos" data-source-line="48" data-uid="lnk28" id="link_CAPI_CCreditos"><path d="M876.15,467.5069 C907.83,469.8069 938.7357,472.0433 969.3757,474.2633" fill="none" id="CAPI-to-CCreditos" style="stroke:#181818;stroke-width:1;stroke-dasharray:7,7;"/><polygon fill="#181818" points="975.36,474.6969,966.6726,470.0569,970.3731,474.3356,966.0945,478.036,975.36,474.6969" style="stroke:#181818;stroke-width:1;"/></g><!--link CAPI to CReportes--><g class="link" data-entity-1="CAPI" data-entity-2="CReportes" data-source-line="49" data-uid="lnk29" id="link_CAPI_CReportes"><path d="M876.15,440.5069 C902.17,432.6469 925.9572,425.4548 952.6572,417.3748" fill="none" id="CAPI-to-CReportes" style="stroke:#181818;stroke-width:1;stroke-dasharray:7,7;"/><polygon fill="#181818" points="958.4,415.6369,948.6272,414.4152,953.6143,417.0851,950.9444,422.0722,958.4,415.6369" style="stroke:#181818;stroke-width:1;"/></g><!--link CAPI to CAdminUsuarios--><g class="link" data-entity-1="CAPI" data-entity-2="CAdminUsuarios" data-source-line="50" data-uid="lnk30" id="link_CAPI_CAdminUsuarios"><path d="M854.76,488.8569 C866.7,496.4569 878.84,505.3969 888.81,515.2969 C924.68,550.9169 912.2,577.5169 949.81,611.2969 C957,617.7469 960.1297,620.4595 968.7197,625.4795" fill="none" id="CAPI-to-CAdminUsuarios" style="stroke:#181818;stroke-width:1;stroke-dasharray:7,7;"/><polygon fill="#181818" points="973.9,628.5069,968.1478,620.5123,969.5831,625.9841,964.1114,627.4194,973.9,628.5069" style="stroke:#181818;stroke-width:1;"/></g><!--link CAuth to CMail--><g class="link" data-entity-1="CAuth" data-entity-2="CMail" data-source-line="53" data-uid="lnk31" id="link_CAuth_CMail"><path d="M815.98,364.9169 C834.41,338.1269 872.64,289.0669 918.81,266.2969 C1051.18,201.0169 1220.2137,194.9856 1324.6537,198.6656" fill="none" id="CAuth-to-CMail" style="stroke:#181818;stroke-width:1;"/><polygon fill="#181818" points="1330.65,198.8769,1321.7964,194.5624,1325.6531,198.7008,1321.5147,202.5575,1330.65,198.8769" style="stroke:#181818;stroke-width:1;"/><text fill="#000000" font-family="sans-serif" font-size="13" lengthAdjust="spacing" textLength="88.1626" x="996.085" y="186.3638">Enviar enlace</text><text fill="#000000" font-family="sans-serif" font-size="13" lengthAdjust="spacing" textLength="140.4927" x="969.92" y="201.4966">recuperar contrase&#241;a</text></g><!--link CBackup to BDD--><g class="link" data-entity-1="CBackup" data-entity-2="BDD" data-source-line="54" data-uid="lnk32" id="link_CBackup_BDD"><path d="M1498.52,128.1469 C1559.8,143.3269 1639.9158,163.165 1702.5658,178.675" fill="none" id="CBackup-to-BDD" style="stroke:#181818;stroke-width:1;"/><polygon fill="#181818" points="1708.39,180.1169,1700.615,174.0713,1703.5365,178.9153,1698.6925,181.8369,1708.39,180.1169" style="stroke:#181818;stroke-width:1;"/><text fill="#000000" font-family="sans-serif" font-size="13" lengthAdjust="spacing" textLength="96.6113" x="1562.1421" y="123.3638">Lectura / copia</text><text fill="#000000" font-family="sans-serif" font-size="13" lengthAdjust="spacing" textLength="135.3955" x="1542.75" y="138.4966">archivos de respaldo</text></g><!--link CAudit to BDD--><g class="link" data-entity-1="CAudit" data-entity-2="BDD" data-source-line="58" data-uid="lnk34" id="link_CAudit_BDD"><path d="M1493.72,671.4169 C1550.7,674.5369 1629,668.8969 1678.75,624.2969 C1736.48,572.5469 1771.9145,340.5365 1784.2945,245.5565" fill="none" id="CAudit-to-BDD" style="stroke:#181818;stroke-width:1;"/><polygon fill="#181818" points="1785.07,239.6069,1779.9403,248.0144,1784.4238,244.5649,1787.8732,249.0484,1785.07,239.6069" style="stroke:#181818;stroke-width:1;"/><text fill="#000000" font-family="sans-serif" font-size="13" lengthAdjust="spacing" textLength="120.3896" x="1550.25" y="605.3638">Registrar acciones</text><text fill="#000000" font-family="sans-serif" font-size="13" lengthAdjust="spacing" textLength="119.082" x="1550.9038" y="620.4966">(alt. tabla de logs)</text></g><!--link CAdminUsuarios to CAudit--><g class="link" data-entity-1="CAdminUsuarios" data-entity-2="CAudit" data-source-line="59" data-uid="lnk35" id="link_CAdminUsuarios_CAudit"><path d="M1130.37,656.9469 C1197.2,658.1769 1281.321,659.7255 1343.271,660.8755" fill="none" id="CAdminUsuarios-to-CAudit" style="stroke:#181818;stroke-width:1;"/><polygon fill="#181818" points="1349.27,660.9869,1340.3458,656.8205,1344.2709,660.8941,1340.1973,664.8191,1349.27,660.9869" style="stroke:#181818;stroke-width:1;"/></g><!--link CCreditos to CAudit--><g class="link" data-entity-1="CCreditos" data-entity-2="CAudit" data-source-line="60" data-uid="lnk36" id="link_CCreditos_CAudit"><path d="M1104.58,503.3369 C1120.78,509.6569 1138.1,516.5769 1154.02,523.2969 C1219.26,550.8069 1250.13,538.0769 1299.02,589.2969 C1305.63,596.2169 1300.45,602.3369 1307.02,609.2969 C1318.66,621.6169 1328.3516,628.6875 1343.6816,636.2675" fill="none" id="CCreditos-to-CAudit" style="stroke:#181818;stroke-width:1;"/><polygon fill="#181818" points="1349.06,638.9269,1342.7653,631.3522,1344.578,636.7107,1339.2194,638.5234,1349.06,638.9269" style="stroke:#181818;stroke-width:1;"/></g><!--link CClientes to CAudit--><g class="link" data-entity-1="CClientes" data-entity-2="CAudit" data-source-line="61" data-uid="lnk37" id="link_CClientes_CAudit"><path d="M1104.43,583.1969 C1172.05,600.1269 1272.9995,625.4003 1343.4095,643.0203" fill="none" id="CClientes-to-CAudit" style="stroke:#181818;stroke-width:1;"/><polygon fill="#181818" points="1349.23,644.4769,1341.4703,638.4117,1344.3796,643.2631,1339.5282,646.1724,1349.23,644.4769" style="stroke:#181818;stroke-width:1;"/></g><!--SRC=[XLNBRXCn5DtxAwwwWKgqtIE1b3O88hKGfGKssTpCk5EhZZsoFU4bFeOb2nQ8JyYFSMoFCvCgXImo6llSr_4vdg22bZHLt3XUCzMIBkowjKQQ83sTqALQEKkljAo2s_ungh89uxO_QnMi5qBBsq31abFDNQ1QEI2LDSBVAzCoab9L4bw7BwWL0MmQBONWAbX7H-zznqxPfNbw8qqjKU-C9lLQcVZiFYkjs1qV4NlgaK8OYowEtl96DbmZnqUvIe1pPpzvwUYReA4kAimY0WNcsn-DCW1-eG_A1_PztXcsnVUIzrgwZOff9wrM5LSAaoVSf6tZNYgmN-5g-wVkj4M_0UzxGHTOkpkCVYrzYBYbkT0gKPuZojj_eyevz65EvbCv6BQGhNL8YZ36qp58kBBEUbLpdHCKo2EpnJC1QouFjpJzSKGs5rQNvXEiRErdcindDCDWpl3I99Qh63wrCR7jm-SpCHp5pDmwnhokgqBdE47IMZw1cWEls0Du7lyHCMKGCBJsZ0gNpvRcocxKEhx5zMlMTK_S-NIwtsTf3MPmJaPblhL1tQPZ1GG3Byr2LbqB5Xq23JZnSlkRivmkhbZfHpAUStNVjSYuaBvDBS0qgTK-DWCI1K_e1NuuE5tgOa3MS9jH6wdJhkWdfPEJbrd7z9pUtDpCp-BVjSXBSJFf49jp6LIVJjickcnftA5Xnh65HSGN-SLcgYBKCRHN8Q3nBa4okbLSuu52avKrTWzUD9VWndSwe0jNX3XkVwmhe1_8aReYEV1soU22l8LgxtYbEOw5QJsjivOpauExHIOdre4OOYkBzrFQ5KFZD_PU6a-5g3vgHyk3o9s11pOU84PQJBn0tgpLrtwMB4una3EAxadoX3ixNdyCkJyjbZuRB7qi7b3sZ-cIVIDnqQ4gEpJArrB5RVei-9rRyL9dmufeLZez7UbZl5Hkes5fTxyCI_kt1Jg8zqFZYk3bvzIB7nrGSXU6U6KsC0v90tV8noJSssaq-wLCDmcOgcohS0-ng-xK9W_cUbF6HjwriGVMpucxE8ZR_efHy8mNXvmzsQ5m7fUsIHAhyXp7vKi0YCYFKKiBsIGTknqU6U3pKmf9l4WKgnuyq99pJsUxnR4yy-9V]--></g></svg>