<svg xmlns="http://www.w3.org/2000/svg" xmlns:xlink="http://www.w3.org/1999/xlink" contentStyleType="text/css" data-diagram-type="DESCRIPTION" height="1095px" preserveAspectRatio="none" style="width:2102px;height:1095px;background:#FFFFFF;" version="1.1" viewBox="0 0 2102 1095" width="2102px" zoomAndPan="magnify"><title>Despliegue - Libro Electr&#243;nico de Cr&#233;ditos</title><defs/><g><g class="title" data-source-line="1"><text fill="#000000" font-family="sans-serif" font-size="14" font-weight="bold" lengthAdjust="spacing" textLength="332.1992" x="878.0354" y="22.9951">Despliegue - Libro Electr&#243;nico de Cr&#233;ditos</text></g><!--cluster Client--><g class="cluster" data-entity="Client" data-source-line="9" data-uid="ent0003" id="cluster_Client"><polygon fill="none" points="140.55,518.9869,150.55,508.9869,304.96,508.9869,304.96,590.9869,294.96,600.9869,140.55,600.9869,140.55,518.9869" style="stroke:#181818;stroke-width:1;"/><line style="stroke:#181818;stroke-width:1;" x1="294.96" x2="304.96" y1="518.9869" y2="508.9869"/><line style="stroke:#181818;stroke-width:1;" x1="140.55" x2="294.96" y1="518.9869" y2="518.9869"/><line style="stroke:#181818;stroke-width:1;" x1="294.96" x2="294.96" y1="518.9869" y2="600.9869"/><text fill="#000000" font-family="sans-serif" font-size="14" font-weight="bold" lengthAdjust="spacing" textLength="55.5215" x="190.9943" y="534.982">Cliente</text></g><!--cluster Edge--><g class="cluster" data-entity="Edge" data-source-line="13" data-uid="ent0005" id="cluster_Edge"><polygon fill="none" points="408.96,505.9869,418.96,495.9869,882.6,495.9869,882.6,603.9869,872.6,613.9869,408.96,613.9869,408.96,505.9869" style="stroke:#181818;stroke-width:1;"/><line style="stroke:#181818;stroke-width:1;" x1="872.6" x2="882.6" y1="505.9869" y2="495.9869"/><line style="stroke:#181818;stroke-width:1;" x1="408.96" x2="872.6" y1="505.9869" y2="505.9869"/><line style="stroke:#181818;stroke-width:1;" x1="872.6" x2="872.6" y1="505.9869" y2="613.9869"/><text fill="#000000" font-family="sans-serif" font-size="14" font-weight="bold" lengthAdjust="spacing" textLength="78.7568" x="602.4016" y="521.982">Per&#237;metro</text></g><!--cluster AppServer--><g class="cluster" data-entity="AppServer" data-source-line="18" data-uid="ent0008" id="cluster_AppServer"><polygon fill="none" points="986.6,124.9869,996.6,114.9869,1663.6,114.9869,1663.6,592.9869,1653.6,602.9869,986.6,602.9869,986.6,124.9869" style="stroke:#181818;stroke-width:1;"/><line style="stroke:#181818;stroke-width:1;" x1="1653.6" x2="1663.6" y1="124.9869" y2="114.9869"/><line style="stroke:#181818;stroke-width:1;" x1="986.6" x2="1653.6" y1="124.9869" y2="124.9869"/><line style="stroke:#181818;stroke-width:1;" x1="1653.6" x2="1653.6" y1="124.9869" y2="602.9869"/><text fill="#000000" font-family="sans-serif" font-size="14" font-weight="bold" lengthAdjust="spacing" textLength="177.0986" x="1232.5507" y="140.982">Servidor de Aplicaci&#243;n</text></g><!--cluster Web--><g class="cluster" data-entity="Web" data-source-line="19" data-uid="ent0009" id="cluster_Web"><polygon fill="none" points="1018.6,180.9869,1028.6,170.9869,1631.6,170.9869,1631.6,560.9869,1621.6,570.9869,1018.6,570.9869,1018.6,180.9869" style="stroke:#181818;stroke-width:1;"/><line style="stroke:#181818;stroke-width:1;" x1="1621.6" x2="1631.6" y1="180.9869" y2="170.9869"/><line style="stroke:#181818;stroke-width:1;" x1="1018.6" x2="1621.6" y1="180.9869" y2="180.9869"/><line style="stroke:#181818;stroke-width:1;" x1="1621.6" x2="1621.6" y1="180.9869" y2="570.9869"/><text fill="#000000" font-family="sans-serif" font-size="14" font-weight="bold" lengthAdjust="spacing" textLength="70.9502" x="1285.6249" y="196.982">Web/App</text></g><!--cluster Platform--><g class="cluster" data-entity="Platform" data-source-line="29" data-uid="ent0016" id="cluster_Platform"><polygon fill="none" points="1401.47,700.9869,1411.47,690.9869,2085.27,690.9869,2085.27,960.9869,2075.27,970.9869,1401.47,970.9869,1401.47,700.9869" style="stroke:#181818;stroke-width:1;"/><line style="stroke:#181818;stroke-width:1;" x1="2075.27" x2="2085.27" y1="700.9869" y2="690.9869"/><line style="stroke:#181818;stroke-width:1;" x1="1401.47" x2="2075.27" y1="700.9869" y2="700.9869"/><line style="stroke:#181818;stroke-width:1;" x1="2075.27" x2="2075.27" y1="700.9869" y2="970.9869"/><text fill="#000000" font-family="sans-serif" font-size="14" font-weight="bold" lengthAdjust="spacing" textLength="173.6123" x="1652.5638" y="716.982">Plataforma / Servicios</text></g><!--entity Navegador Web--><g class="entity" data-entity="Navegador Web" data-source-line="10" data-uid="ent0004" id="entity_Navegador Web"><rect fill="#F1F1F1" height="36.2969" rx="2.5" ry="2.5" style="stroke:#181818;stroke-width:0.5;" width="132.417" x="156.55" y="548.8469"/><text fill="#000000" font-family="sans-serif" font-size="14" lengthAdjust="spacing" textLength="112.417" x="166.55" y="571.842">Navegador Web</text></g><!--entity CDN--><g class="entity" data-entity="CDN" data-source-line="14" data-uid="ent0006" id="entity_CDN"><polygon fill="#F1F1F1" points="424.96,545.6969,434.96,535.6969,541.0782,535.6969,541.0782,588.2906,531.0782,598.2906,424.96,598.2906,424.96,545.6969" style="stroke:#181818;stroke-width:0.5;"/><line style="stroke:#181818;stroke-width:0.5;" x1="531.0782" x2="541.0782" y1="545.6969" y2="535.6969"/><line style="stroke:#181818;stroke-width:0.5;" x1="424.96" x2="531.0782" y1="545.6969" y2="545.6969"/><line style="stroke:#181818;stroke-width:0.5;" x1="531.0782" x2="531.0782" y1="545.6969" y2="598.2906"/><text fill="#000000" font-family="sans-serif" font-size="14" lengthAdjust="spacing" textLength="76.1182" x="439.96" y="568.692">CDN / WAF</text><text fill="#000000" font-family="sans-serif" font-size="14" lengthAdjust="spacing" textLength="69.8701" x="439.96" y="584.9889">(opcional)</text></g><!--entity LB--><g class="entity" data-entity="LB" data-source-line="15" data-uid="ent0007" id="entity_LB"><polygon fill="#F1F1F1" points="673.08,549.8469,683.08,539.8469,866.6015,539.8469,866.6015,576.1438,856.6015,586.1438,673.08,586.1438,673.08,549.8469" style="stroke:#181818;stroke-width:0.5;"/><line style="stroke:#181818;stroke-width:0.5;" x1="856.6015" x2="866.6015" y1="549.8469" y2="539.8469"/><line style="stroke:#181818;stroke-width:0.5;" x1="673.08" x2="856.6015" y1="549.8469" y2="549.8469"/><line style="stroke:#181818;stroke-width:0.5;" x1="856.6015" x2="856.6015" y1="549.8469" y2="586.1438"/><text fill="#000000" font-family="sans-serif" font-size="14" lengthAdjust="spacing" textLength="153.5215" x="688.08" y="572.842">Balanceador de carga</text></g><!--entity AppArtifact--><g class="entity" data-entity="AppArtifact" data-source-line="20" data-uid="ent0010" id="entity_AppArtifact"><rect fill="#F1F1F1" height="55.5938" rx="2.5" ry="2.5" style="stroke:#181818;stroke-width:0.5;" width="160.4912" x="1042.6" y="351.1969"/><polygon fill="#F1F1F1" points="1186.0912,356.1969,1186.0912,370.1969,1198.0912,370.1969,1198.0912,362.1969,1192.0912,356.1969,1186.0912,356.1969" style="stroke:#181818;stroke-width:0.5;"/><line style="stroke:#181818;stroke-width:0.5;" x1="1192.0912" x2="1192.0912" y1="356.1969" y2="362.1969"/><line style="stroke:#181818;stroke-width:0.5;" x1="1198.0912" x2="1192.0912" y1="362.1969" y2="362.1969"/><text fill="#000000" font-family="sans-serif" font-size="14" lengthAdjust="spacing" textLength="63.1436" x="1052.6" y="377.192">App Web</text><text fill="#000000" font-family="sans-serif" font-size="14" lengthAdjust="spacing" textLength="130.4912" x="1052.6" y="393.4889">(Libro de Cr&#233;ditos)</text></g><!--entity CAuth--><g class="entity" data-entity="CAuth" data-source-line="21" data-uid="ent0011" id="entity_CAuth"><rect fill="#F1F1F1" height="36.2969" rx="2.5" ry="2.5" style="stroke:#181818;stroke-width:0.5;" width="116.1064" x="1481.4" y="502.8469"/><text fill="#000000" font-family="sans-serif" font-size="14" lengthAdjust="spacing" textLength="96.1064" x="1491.4" y="525.842">Autenticaci&#243;n</text></g><!--entity CClientes--><g class="entity" data-entity="CClientes" data-source-line="22" data-uid="ent0012" id="entity_CClientes"><rect fill="#F1F1F1" height="36.2969" rx="2.5" ry="2.5" style="stroke:#181818;stroke-width:0.5;" width="134.4609" x="1472.22" y="431.8469"/><text fill="#000000" font-family="sans-serif" font-size="14" lengthAdjust="spacing" textLength="114.4609" x="1482.22" y="454.842">Gesti&#243;n Clientes</text></g><!--entity CCreditos--><g class="entity" data-entity="CCreditos" data-source-line="23" data-uid="ent0013" id="entity_CCreditos"><rect fill="#F1F1F1" height="36.2969" rx="2.5" ry="2.5" style="stroke:#181818;stroke-width:0.5;" width="136.293" x="1471.31" y="360.8469"/><text fill="#000000" font-family="sans-serif" font-size="14" lengthAdjust="spacing" textLength="116.293" x="1481.31" y="383.842">Gesti&#243;n Cr&#233;ditos</text></g><!--entity CReportes--><g class="entity" data-entity="CReportes" data-source-line="24" data-uid="ent0014" id="entity_CReportes"><rect fill="#F1F1F1" height="36.2969" rx="2.5" ry="2.5" style="stroke:#181818;stroke-width:0.5;" width="82.9453" x="1497.98" y="289.8469"/><text fill="#000000" font-family="sans-serif" font-size="14" lengthAdjust="spacing" textLength="62.9453" x="1507.98" y="312.842">Reportes</text></g><!--entity CAdmin--><g class="entity" data-entity="CAdmin" data-source-line="25" data-uid="ent0015" id="entity_CAdmin"><rect fill="#F1F1F1" height="36.2969" rx="2.5" ry="2.5" style="stroke:#181818;stroke-width:0.5;" width="129.8125" x="1474.55" y="218.8469"/><text fill="#000000" font-family="sans-serif" font-size="14" lengthAdjust="spacing" textLength="109.8125" x="1484.55" y="241.842">Admin Usuarios</text></g><!--entity BDD--><g class="entity" data-entity="BDD" data-source-line="30" data-uid="ent0017" id="entity_BDD"><path d="M1904.81,901.1969 C1904.81,891.1969 1987.0419,891.1969 1987.0419,891.1969 C1987.0419,891.1969 2069.2739,891.1969 2069.2739,901.1969 L2069.2739,942.7906 C2069.2739,952.7906 1987.0419,952.7906 1987.0419,952.7906 C1987.0419,952.7906 1904.81,952.7906 1904.81,942.7906 L1904.81,901.1969" fill="#F1F1F1" style="stroke:#181818;stroke-width:0.5;"/><path d="M1904.81,901.1969 C1904.81,911.1969 1987.0419,911.1969 1987.0419,911.1969 C1987.0419,911.1969 2069.2739,911.1969 2069.2739,901.1969" fill="none" style="stroke:#181818;stroke-width:0.5;"/><text fill="#000000" font-family="sans-serif" font-size="14" lengthAdjust="spacing" textLength="101.1992" x="1914.81" y="928.192">Base de Datos</text><text fill="#000000" font-family="sans-serif" font-size="14" lengthAdjust="spacing" textLength="144.4639" x="1914.81" y="944.4889">(PostgreSQL/MySQL)</text></g><!--entity SMTP--><g class="entity" data-entity="SMTP" data-source-line="31" data-uid="ent0018" id="entity_SMTP"><polygon fill="#F1F1F1" points="1436.35,740.6969,1446.35,730.6969,1642.5453,730.6969,1642.5453,783.2906,1632.5453,793.2906,1436.35,793.2906,1436.35,740.6969" style="stroke:#181818;stroke-width:0.5;"/><line style="stroke:#181818;stroke-width:0.5;" x1="1632.5453" x2="1642.5453" y1="740.6969" y2="730.6969"/><line style="stroke:#181818;stroke-width:0.5;" x1="1436.35" x2="1632.5453" y1="740.6969" y2="740.6969"/><line style="stroke:#181818;stroke-width:0.5;" x1="1632.5453" x2="1632.5453" y1="740.6969" y2="793.2906"/><text fill="#000000" font-family="sans-serif" font-size="14" lengthAdjust="spacing" textLength="101.0488" x="1451.35" y="763.692">Servidor SMTP</text><text fill="#000000" font-family="sans-serif" font-size="14" lengthAdjust="spacing" textLength="166.1953" x="1451.35" y="779.9889">(Recuperar contrase&#241;a)</text></g><!--entity Backup--><g class="entity" data-entity="Backup" data-source-line="32" data-uid="ent0019" id="entity_Backup"><polygon fill="#F1F1F1" points="1417.47,918.8469,1427.47,908.8469,1661.427,908.8469,1661.427,945.1438,1651.427,955.1438,1417.47,955.1438,1417.47,918.8469" style="stroke:#181818;stroke-width:0.5;"/><line style="stroke:#181818;stroke-width:0.5;" x1="1651.427" x2="1661.427" y1="918.8469" y2="908.8469"/><line style="stroke:#181818;stroke-width:0.5;" x1="1417.47" x2="1651.427" y1="918.8469" y2="918.8469"/><line style="stroke:#181818;stroke-width:0.5;" x1="1651.427" x2="1651.427" y1="918.8469" y2="955.1438"/><text fill="#000000" font-family="sans-serif" font-size="14" lengthAdjust="spacing" textLength="203.957" x="1432.47" y="941.842">Almacenamiento de Backups</text></g><!--entity Monitor--><g class="entity" data-entity="Monitor" data-source-line="33" data-uid="ent0020" id="entity_Monitor"><polygon fill="#F1F1F1" points="1461.17,837.8469,1471.17,827.8469,1617.7296,827.8469,1617.7296,864.1438,1607.7296,874.1438,1461.17,874.1438,1461.17,837.8469" style="stroke:#181818;stroke-width:0.5;"/><line style="stroke:#181818;stroke-width:0.5;" x1="1607.7296" x2="1617.7296" y1="837.8469" y2="827.8469"/><line style="stroke:#181818;stroke-width:0.5;" x1="1461.17" x2="1607.7296" y1="837.8469" y2="837.8469"/><line style="stroke:#181818;stroke-width:0.5;" x1="1607.7296" x2="1607.7296" y1="837.8469" y2="874.1438"/><text fill="#000000" font-family="sans-serif" font-size="14" lengthAdjust="spacing" textLength="116.5596" x="1476.17" y="860.842">Monitoreo / Logs</text></g><!--entity Usuario--><g class="entity" data-entity="Usuario" data-source-line="7" data-uid="ent0002" id="entity_Usuario"><ellipse cx="49.7739" cy="529.1969" fill="#F1F1F1" rx="8" ry="8" style="stroke:#181818;stroke-width:0.5;"/><path d="M49.7739,537.1969 L49.7739,564.1969 M36.7739,545.1969 L62.7739,545.1969 M49.7739,564.1969 L36.7739,579.1969 M49.7739,564.1969 L62.7739,579.1969" fill="none" style="stroke:#181818;stroke-width:0.5;"/><text fill="#000000" font-family="sans-serif" font-size="14" lengthAdjust="spacing" textLength="53.2041" x="6" y="593.692">Usuario</text><text fill="#000000" font-family="sans-serif" font-size="14" lengthAdjust="spacing" textLength="87.5479" x="6" y="609.9889">(Navegador)</text></g><g class="entity" data-entity="GMN34" data-source-line="55" data-uid="ent0035" id="entity_GMN34"><path d="M1357.1,619.2969 L1357.1,674.6953 L1721.8129,674.6953 L1721.8129,629.2969 L1711.8129,619.2969 L1357.1,619.2969" fill="#FEFFDD" style="stroke:#181818;stroke-width:0.5;"/><path d="M1711.8129,619.2969 L1711.8129,629.2969 L1721.8129,629.2969 L1711.8129,619.2969" fill="#FEFFDD" style="stroke:#181818;stroke-width:1;"/><text fill="#000000" font-family="sans-serif" font-size="13" lengthAdjust="spacing" textLength="197.8882" x="1363.1" y="636.3638">Despliegue en VM/Contenedor</text><text fill="#000000" font-family="sans-serif" font-size="13" lengthAdjust="spacing" textLength="343.7129" x="1363.1" y="651.4966">- Variables de entorno (DB_URL, SMTP, JWT_SECRET)</text><text fill="#000000" font-family="sans-serif" font-size="13" lengthAdjust="spacing" textLength="176.0776" x="1363.1" y="666.6294">- Health checks / readiness</text></g><g class="entity" data-entity="GMN37" data-source-line="61" data-uid="ent0038" id="entity_GMN37"><path d="M1459.02,43.2969 L1459.02,98.6953 L1619.8843,98.6953 L1619.8843,53.2969 L1609.8843,43.2969 L1459.02,43.2969" fill="#FEFFDD" style="stroke:#181818;stroke-width:0.5;"/><path d="M1609.8843,43.2969 L1609.8843,53.2969 L1619.8843,53.2969 L1609.8843,43.2969" fill="#FEFFDD" style="stroke:#181818;stroke-width:1;"/><text fill="#000000" font-family="sans-serif" font-size="13" lengthAdjust="spacing" textLength="139.8643" x="1465.02" y="60.3638">Respaldos nocturnos,</text><text fill="#000000" font-family="sans-serif" font-size="13" lengthAdjust="spacing" textLength="110.354" x="1465.02" y="75.4966">retenci&#243;n N d&#237;as,</text><text fill="#000000" font-family="sans-serif" font-size="13" lengthAdjust="spacing" textLength="123.8491" x="1465.02" y="90.6294">pruebas de restore</text></g><!--link Usuario to Navegador Web--><g class="link" data-entity-1="Usuario" data-entity-2="Navegador Web" data-source-line="37" data-uid="lnk21" id="link_Usuario_Navegador Web"><path d="M93.92,566.9869 C112.82,566.9869 129.4,566.9869 150.3,566.9869" fill="none" id="Usuario-to-Navegador Web" style="stroke:#181818;stroke-width:1;"/><polygon fill="#181818" points="156.3,566.9869,147.3,562.9869,151.3,566.9869,147.3,570.9869,156.3,566.9869" style="stroke:#181818;stroke-width:1;"/></g><!--link Navegador Web to CDN--><g class="link" data-entity-1="Navegador Web" data-entity-2="CDN" data-source-line="38" data-uid="lnk22" id="link_Navegador Web_CDN"><path d="M289.26,566.9869 C330.96,566.9869 378.45,566.9869 418.5,566.9869" fill="none" id="Navegador Web-to-CDN" style="stroke:#181818;stroke-width:1;"/><polygon fill="#181818" points="424.5,566.9869,415.5,562.9869,419.5,566.9869,415.5,570.9869,424.5,566.9869" style="stroke:#181818;stroke-width:1;"/><text fill="#000000" font-family="sans-serif" font-size="13" lengthAdjust="spacing" textLength="70.6938" x="321.96" y="563.0538">HTTPS 443</text></g><!--link CDN to LB--><g class="link" data-entity-1="CDN" data-entity-2="LB" data-source-line="39" data-uid="lnk23" id="link_CDN_LB"><path d="M541.32,566.1869 C578.92,565.6569 623.0406,565.0408 666.6606,564.4308" fill="none" id="CDN-to-LB" style="stroke:#181818;stroke-width:1;"/><polygon fill="#181818" points="672.66,564.3469,663.6049,560.4731,667.6605,564.4168,663.7168,568.4723,672.66,564.3469" style="stroke:#181818;stroke-width:1;"/><text fill="#000000" font-family="sans-serif" font-size="13" lengthAdjust="spacing" textLength="70.6938" x="572.08" y="561.0538">HTTPS 443</text></g><!--link LB to Web--><g class="link" data-entity-1="LB" data-entity-2="Web" data-source-line="40" data-uid="lnk24" id="link_LB_Web"><path d="M866.76,562.9869 C892.335,562.9869 920.7713,562.9869 949.1116,562.9869 C963.2817,562.9869 977.4279,562.9869 991.1804,562.9869 C998.0567,562.9869 1004.8346,562.9869 1011.4678,562.9869 C1013.1261,562.9869 1014.7754,562.9869 1016.4149,562.9869 C1016.8248,562.9869 1011.2341,562.9869 1011.6427,562.9869" fill="none" id="LB-to-Web" style="stroke:#181818;stroke-width:1;"/><polygon fill="#181818" points="1017.6427,562.9869,1008.6427,558.9869,1012.6427,562.9869,1008.6427,566.9869,1017.6427,562.9869" style="stroke:#181818;stroke-width:1;"/><text fill="#000000" font-family="sans-serif" font-size="13" lengthAdjust="spacing" textLength="70.6938" x="899.6" y="559.0538">HTTPS 443</text></g><!--link Web to BDD--><g class="link" data-entity-1="Web" data-entity-2="BDD" data-source-line="41" data-uid="lnk25" id="link_Web_BDD"><path d="M1125.1582,571.6361 C1125.1943,571.8599 1125.2312,572.0879 1125.2689,572.3198 C1125.5703,574.1754 1125.9232,576.2898 1126.3306,578.6468 C1127.9604,588.0746 1130.4626,601.3834 1134.0364,617.5317 C1141.1841,649.8284 1152.6181,693.4838 1169.9312,740.1681 C1204.5575,833.5369 1262.7,939.0219 1357.1,989.9869 C1540.47,1088.9969 1792.0176,1006.199 1912.7876,955.509" fill="none" id="Web-to-BDD" style="stroke:#181818;stroke-width:1;"/><polygon fill="#181818" points="1918.32,953.1869,1908.4733,952.9817,1913.7096,955.122,1911.5694,960.3583,1918.32,953.1869" style="stroke:#181818;stroke-width:1;"/><text fill="#000000" font-family="sans-serif" font-size="13" lengthAdjust="spacing" textLength="134.6465" x="1472.45" y="986.0538">JDBC/SSL 5432/3306</text></g><!--link Web to SMTP--><g class="link" data-entity-1="Web" data-entity-2="SMTP" data-source-line="42" data-uid="lnk26" id="link_Web_SMTP"><path d="M1136.788,571.0344 C1137.0063,571.1693 1137.227,571.3056 1137.45,571.4432 C1138.342,571.9939 1139.2712,572.567 1140.2355,573.161 C1142.1641,574.349 1144.2333,575.6208 1146.4266,576.9653 C1150.8131,579.6543 1155.6963,582.6341 1160.945,585.8156 C1181.94,598.5419 1208.785,614.4969 1233.1,627.9869 C1287.32,658.0869 1300.53,666.5669 1357.1,691.9869 C1387.11,705.4769 1414.9626,716.7122 1444.8826,728.1022" fill="none" id="Web-to-SMTP" style="stroke:#181818;stroke-width:1;"/><polygon fill="#181818" points="1450.49,730.2369,1443.502,723.2966,1445.8171,728.458,1440.6558,730.7732,1450.49,730.2369" style="stroke:#181818;stroke-width:1;"/><text fill="#000000" font-family="sans-serif" font-size="13" lengthAdjust="spacing" textLength="92.0093" x="1234.1" y="624.0538">SMTP/TLS 587</text></g><!--link Web to Monitor--><g class="link" data-entity-1="Web" data-entity-2="Monitor" data-source-line="43" data-uid="lnk27" id="link_Web_Monitor"><path d="M1128.4824,571.1191 C1128.5746,571.2769 1128.6681,571.4367 1128.7629,571.5987 C1128.9525,571.9226 1129.1475,572.2549 1129.3478,572.5954 C1132.5521,578.0442 1137.1135,585.6043 1142.9183,594.7323 C1154.5278,612.9884 1171.1106,637.5162 1191.7563,663.9681 C1233.0475,716.8719 1290.59,777.4719 1357.1,810.9869 C1389.2,827.1669 1421.8279,835.8236 1455.1079,841.5836" fill="none" id="Web-to-Monitor" style="stroke:#181818;stroke-width:1;"/><polygon fill="#181818" points="1461.02,842.6069,1452.834,837.1306,1456.0932,841.7542,1451.4697,845.0134,1461.02,842.6069" style="stroke:#181818;stroke-width:1;"/><text fill="#000000" font-family="sans-serif" font-size="13" lengthAdjust="spacing" textLength="80.4121" x="1240.1" y="711.0538">HTTP/Syslog</text></g><!--link Backup to BDD--><g class="link" data-entity-1="Backup" data-entity-2="BDD" data-source-line="44" data-uid="lnk28" id="link_Backup_BDD"><path d="M1661.92,929.2669 C1738.97,927.5369 1830.5615,925.4812 1898.4315,923.9612" fill="none" id="Backup-to-BDD" style="stroke:#181818;stroke-width:1;"/><polygon fill="#181818" points="1904.43,923.8269,1895.3427,920.0294,1899.4313,923.9388,1895.5218,928.0274,1904.43,923.8269" style="stroke:#181818;stroke-width:1;"/><text fill="#000000" font-family="sans-serif" font-size="13" lengthAdjust="spacing" textLength="121.3101" x="1752.81" y="906.0538">Tarea programada</text><text fill="#000000" font-family="sans-serif" font-size="13" lengthAdjust="spacing" textLength="101.5815" x="1762.6743" y="921.1866">(Copia/Restore)</text></g><!--link AppArtifact to CAuth--><g class="link" data-entity-1="AppArtifact" data-entity-2="CAuth" data-source-line="47" data-uid="lnk29" id="link_AppArtifact_CAuth"><path d="M1194.39,407.1769 C1197.34,408.4469 1200.25,409.7269 1203.1,410.9869 C1272.66,441.9269 1284.88,461.9069 1357.1,485.9869 C1397.55,499.4869 1438.9869,507.5131 1475.1669,512.9631" fill="none" id="AppArtifact-to-CAuth" style="stroke:#181818;stroke-width:1;stroke-dasharray:7,7;"/><polygon fill="#181818" points="1481.1,513.8569,1472.7962,508.5609,1476.1558,513.1121,1471.6046,516.4717,1481.1,513.8569" style="stroke:#181818;stroke-width:1;"/></g><!--link AppArtifact to CClientes--><g class="link" data-entity-1="AppArtifact" data-entity-2="CClientes" data-source-line="48" data-uid="lnk30" id="link_AppArtifact_CClientes"><path d="M1203.3,392.5969 C1281.24,405.9469 1392.8361,425.0541 1466.0061,437.5841" fill="none" id="AppArtifact-to-CClientes" style="stroke:#181818;stroke-width:1;stroke-dasharray:7,7;"/><polygon fill="#181818" points="1471.92,438.5969,1463.7243,433.1352,1466.9917,437.7529,1462.374,441.0204,1471.92,438.5969" style="stroke:#181818;stroke-width:1;"/></g><!--link AppArtifact to CCreditos--><g class="link" data-entity-1="AppArtifact" data-entity-2="CCreditos" data-source-line="49" data-uid="lnk31" id="link_AppArtifact_CCreditos"><path d="M1203.3,378.9869 C1280.89,378.9869 1391.69,378.9869 1464.93,378.9869" fill="none" id="AppArtifact-to-CCreditos" style="stroke:#181818;stroke-width:1;stroke-dasharray:7,7;"/><polygon fill="#181818" points="1470.93,378.9869,1461.93,374.9869,1465.93,378.9869,1461.93,382.9869,1470.93,378.9869" style="stroke:#181818;stroke-width:1;"/></g><!--link AppArtifact to CReportes--><g class="link" data-entity-1="AppArtifact" data-entity-2="CReportes" data-source-line="50" data-uid="lnk32" id="link_AppArtifact_CReportes"><path d="M1203.3,365.3869 C1291.24,350.3269 1423.6262,327.6603 1491.7862,315.9803" fill="none" id="AppArtifact-to-CReportes" style="stroke:#181818;stroke-width:1;stroke-dasharray:7,7;"/><polygon fill="#181818" points="1497.7,314.9669,1488.1537,312.5444,1492.7718,315.8114,1489.5049,320.4295,1497.7,314.9669" style="stroke:#181818;stroke-width:1;"/></g><!--link AppArtifact to CAdmin--><g class="link" data-entity-1="AppArtifact" data-entity-2="CAdmin" data-source-line="51" data-uid="lnk33" id="link_AppArtifact_CAdmin"><path d="M1175.67,350.8369 C1222.01,326.7369 1292.4,292.7369 1357.1,271.9869 C1395.11,259.7969 1433.1157,252.1369 1468.2257,246.5069" fill="none" id="AppArtifact-to-CAdmin" style="stroke:#181818;stroke-width:1;stroke-dasharray:7,7;"/><polygon fill="#181818" points="1474.15,245.5569,1464.6302,243.0323,1469.2131,246.3485,1465.8968,250.9314,1474.15,245.5569" style="stroke:#181818;stroke-width:1;"/></g><!--link Web to GMN34--><g class="link" data-entity-1="Web" data-entity-2="GMN34" data-source-line="55" data-uid="lnk36" id="link_Web_GMN34"><path d="M1163.7341,571.0729 C1164.3401,571.1957 1164.9518,571.3196 1165.5691,571.4447 C1170.5074,572.4452 1175.804,573.5183 1181.4143,574.655 C1192.635,576.9284 1205.1106,579.4559 1218.485,582.1656 C1271.9825,593.0044 1339.86,606.7569 1399.32,618.8069" fill="none" id="Web-GMN34" style="stroke:#181818;stroke-width:1;stroke-dasharray:7,7;"/></g><!--link Backup to GMN37--><g class="link" data-entity-1="Backup" data-entity-2="GMN37" data-source-line="61" data-uid="lnk39" id="link_Backup_GMN37"><path d="M1417.18,936.3069 C1366.71,931.1269 1312.54,915.1369 1280.1,874.4869 C1189.43,760.9069 1207.39,346.3269 1280.1,220.4869 C1318.19,154.5669 1397.62,115.1369 1458.6,93.4669" fill="none" id="Backup-GMN37" style="stroke:#181818;stroke-width:1;stroke-dasharray:7,7;"/></g><!--SRC=[TLJBRjim4BphAnQ-D0RYgAYJjkWXW5zj43Y6Qpd9eIs2DRMMYSYaGD9fZI8Vr4CEHJ_1FzOb9QjAZ5uaSNTskPmPoacN4mp95hcaR4FGWR5S60sZd8GpkpzA2WqfmS3iVgNIQHj5EIqTE0r6PYi7gJICb5f5zbwg0WskGUXreHKfbxWjj_S0L5bE3OXTOQg_IvN14dDBKOJ2QGEjQxj18_LNTJJ11yeOPDejG0jL8egKvd5Q0vvNEGgfyXj-HW1VwYgufSMtw76FdvBPFQt96HrAHcb6eQ3gDfn03BUzZxolBWIV1lDoMyxKg3xcg0I5xhmMQ38Ce77_tqO9cGTP8NhCga0XcSQ0wnM5JvDfRCrZnXmFUVuE6G0qJYwP4cXnpiTvi5AOfXRjVTTU1G-rDVjSl77yVZR3W6EhbxXFP9r7L5IIBQ7xrV_X-qaglA7I8o_mCogqgRlkLmV3fckfzZfNs11Zu6D3oHmTBhLP8qiMs1Pxk4_vJ20nPTW2RT2DdrmwH9wDYPngwp93oUTnVBNbPqbZVpYiHQb5JAxcKwwOaTWKPD3mlCePxhVxZMMPHzHrlNoDWXIkFMz1gpwA-qrHZbT-r-0hhPWiGvhFCTPPYQc2_hYlOC3C_60palMjc5pOGc6qqqBdp7955NGwvmV6Vx4E6E_o3t0ndqyJE3tjHdxju-F-ip0lVTIRiHdsQnzddZX-EUmFuYGPmzbfzqtSxRv-MmCy8upmhtW-Jk3i_RiwLnslQXmdMvlhB2g9QNIVeo7qHytuNu4fiWG3NKYCP-myfgpjsHbIGIeb9IJp9jcdHg6D6hS1JaxEAxyVH6jh7sRs9Zx8rCOzt2FOb6UQQCSpAEse-ZtgfIUIDM_yOqd1pLNCulBb95Q8insuOIbnaPTIU_SOfU5esB-xdesF0vd7S7axlqj6WzbetWur5uIvMu5OaRYtx28cBPNi5XinCU2dYCfP5jevlVR3r1va9WlCKsqP9zo6TxF773RaFAF-SayWtJrXY1PcGtoNIXS61UeT_W80]--></g></svg>