<svg xmlns="http://www.w3.org/2000/svg" xmlns:xlink="http://www.w3.org/1999/xlink" contentStyleType="text/css" data-diagram-type="SEQUENCE" height="1291px" preserveAspectRatio="none" style="width:1339px;height:1291px;background:#FFFFFF;" version="1.1" viewBox="0 0 1339 1291" width="1339px" zoomAndPan="magnify"><title>Registrar compra fiada - Libro Electr&#243;nico de Cr&#233;ditos</title><defs/><g><text fill="#000000" font-family="sans-serif" font-size="14" font-weight="bold" lengthAdjust="spacing" textLength="425.9609" x="452.9907" y="27.9951">Registrar compra fiada - Libro Electr&#243;nico de Cr&#233;ditos</text><rect fill="none" height="104.5313" style="stroke:#000000;stroke-width:1.5;" width="856.0093" x="10" y="578.5859"/><rect fill="none" height="89.3984" style="stroke:#000000;stroke-width:1.5;" width="856.0093" x="10" y="739.25"/><g><title>Tendero</title><rect fill="#000000" fill-opacity="0.00000" height="1091.7813" width="8" x="47.9297" y="118.5938"/><line style="stroke:#181818;stroke-width:0.5;stroke-dasharray:5,5;" x1="51" x2="51" y1="118.5938" y2="1210.375"/></g><g><title>UI Web</title><rect fill="#000000" fill-opacity="0.00000" height="1091.7813" width="8" x="318.0664" y="118.5938"/><line style="stroke:#181818;stroke-width:0.5;stroke-dasharray:5,5;" x1="321.1338" x2="321.1338" y1="118.5938" y2="1210.375"/></g><g><title>Control de Cr.ditos</title><rect fill="#000000" fill-opacity="0.00000" height="1091.7813" width="8" x="777.2173" y="118.5938"/><line style="stroke:#181818;stroke-width:0.5;stroke-dasharray:5,5;" x1="780.4253" x2="780.4253" y1="118.5938" y2="1210.375"/></g><g><title>Servicio de Clientes</title><rect fill="#000000" fill-opacity="0.00000" height="1091.7813" width="8" x="999.9624" y="118.5938"/><line style="stroke:#181818;stroke-width:0.5;stroke-dasharray:5,5;" x1="1003.752" x2="1003.752" y1="118.5938" y2="1210.375"/></g><g><title>Repo Movimientos</title><rect fill="#000000" fill-opacity="0.00000" height="1091.7813" width="8" x="1153.8853" y="118.5938"/><line style="stroke:#181818;stroke-width:0.5;stroke-dasharray:5,5;" x1="1157.1729" x2="1157.1729" y1="118.5938" y2="1210.375"/></g><g><title>Repo Saldos</title><rect fill="#000000" fill-opacity="0.00000" height="1091.7813" width="8" x="1277.77" y="118.5938"/><line style="stroke:#181818;stroke-width:0.5;stroke-dasharray:5,5;" x1="1281.5977" x2="1281.5977" y1="118.5938" y2="1210.375"/></g><g class="participant participant-head" data-participant="Tendero"><text fill="#000000" font-family="sans-serif" font-size="14" lengthAdjust="spacing" textLength="57.8594" x="20" y="115.292">Tendero</text><ellipse cx="51.9297" cy="50.7969" fill="#E2E2F0" rx="8" ry="8" style="stroke:#181818;stroke-width:0.5;"/><path d="M51.9297,58.7969 L51.9297,85.7969 M38.9297,66.7969 L64.9297,66.7969 M51.9297,85.7969 L38.9297,100.7969 M51.9297,85.7969 L64.9297,100.7969" fill="none" style="stroke:#181818;stroke-width:0.5;"/></g><g class="participant participant-tail" data-participant="Tendero"><text fill="#000000" font-family="sans-serif" font-size="14" lengthAdjust="spacing" textLength="57.8594" x="20" y="1222.3701">Tendero</text><ellipse cx="51.9297" cy="1234.1719" fill="#E2E2F0" rx="8" ry="8" style="stroke:#181818;stroke-width:0.5;"/><path d="M51.9297,1242.1719 L51.9297,1269.1719 M38.9297,1250.1719 L64.9297,1250.1719 M51.9297,1269.1719 L38.9297,1284.1719 M51.9297,1269.1719 L64.9297,1284.1719" fill="none" style="stroke:#181818;stroke-width:0.5;"/></g><g class="participant participant-head" data-participant="UI"><rect fill="#E2E2F0" height="46.5938" rx="2.5" ry="2.5" style="stroke:#181818;stroke-width:0.5;" width="145.8652" x="249.1338" y="71"/><text fill="#000000" font-family="sans-serif" font-size="14" lengthAdjust="spacing" textLength="50.1689" x="296.9819" y="90.9951">UI Web</text><text fill="#000000" font-family="sans-serif" font-size="14" lengthAdjust="spacing" textLength="131.8652" x="256.1338" y="107.292">(Registro Cr&#233;ditos)</text></g><g class="participant participant-tail" data-participant="UI"><rect fill="#E2E2F0" height="46.5938" rx="2.5" ry="2.5" style="stroke:#181818;stroke-width:0.5;" width="145.8652" x="249.1338" y="1209.375"/><text fill="#000000" font-family="sans-serif" font-size="14" lengthAdjust="spacing" textLength="50.1689" x="296.9819" y="1229.3701">UI Web</text><text fill="#000000" font-family="sans-serif" font-size="14" lengthAdjust="spacing" textLength="131.8652" x="256.1338" y="1245.667">(Registro Cr&#233;ditos)</text></g><g class="participant participant-head" data-participant="Ctrl"><rect fill="#E2E2F0" height="30.2969" rx="2.5" ry="2.5" style="stroke:#181818;stroke-width:0.5;" width="149.584" x="706.4253" y="87.2969"/><text fill="#000000" font-family="sans-serif" font-size="14" lengthAdjust="spacing" textLength="135.584" x="713.4253" y="107.292">Control de Cr&#233;ditos</text></g><g class="participant participant-tail" data-participant="Ctrl"><rect fill="#E2E2F0" height="30.2969" rx="2.5" ry="2.5" style="stroke:#181818;stroke-width:0.5;" width="149.584" x="706.4253" y="1209.375"/><text fill="#000000" font-family="sans-serif" font-size="14" lengthAdjust="spacing" textLength="135.584" x="713.4253" y="1229.3701">Control de Cr&#233;ditos</text></g><g class="participant participant-head" data-participant="SClientes"><rect fill="#E2E2F0" height="30.2969" rx="2.5" ry="2.5" style="stroke:#181818;stroke-width:0.5;" width="152.4209" x="927.752" y="87.2969"/><text fill="#000000" font-family="sans-serif" font-size="14" lengthAdjust="spacing" textLength="138.4209" x="934.752" y="107.292">Servicio de Clientes</text></g><g class="participant participant-tail" data-participant="SClientes"><rect fill="#E2E2F0" height="30.2969" rx="2.5" ry="2.5" style="stroke:#181818;stroke-width:0.5;" width="152.4209" x="927.752" y="1209.375"/><text fill="#000000" font-family="sans-serif" font-size="14" lengthAdjust="spacing" textLength="138.4209" x="934.752" y="1229.3701">Servicio de Clientes</text></g><g class="participant participant-head" data-participant="RepoMov"><text fill="#000000" font-family="sans-serif" font-size="14" lengthAdjust="spacing" textLength="129.4248" x="1090.1729" y="115.292">Repo Movimientos</text><path d="M1139.8853,66.2969 C1139.8853,56.2969 1157.8853,56.2969 1157.8853,56.2969 C1157.8853,56.2969 1175.8853,56.2969 1175.8853,66.2969 L1175.8853,92.2969 C1175.8853,102.2969 1157.8853,102.2969 1157.8853,102.2969 C1157.8853,102.2969 1139.8853,102.2969 1139.8853,92.2969 L1139.8853,66.2969" fill="#E2E2F0" style="stroke:#181818;stroke-width:0.5;"/><path d="M1139.8853,66.2969 C1139.8853,76.2969 1157.8853,76.2969 1157.8853,76.2969 C1157.8853,76.2969 1175.8853,76.2969 1175.8853,66.2969" fill="none" style="stroke:#181818;stroke-width:0.5;"/></g><g class="participant participant-tail" data-participant="RepoMov"><text fill="#000000" font-family="sans-serif" font-size="14" lengthAdjust="spacing" textLength="129.4248" x="1090.1729" y="1222.3701">Repo Movimientos</text><path d="M1139.8853,1235.6719 C1139.8853,1225.6719 1157.8853,1225.6719 1157.8853,1225.6719 C1157.8853,1225.6719 1175.8853,1225.6719 1175.8853,1235.6719 L1175.8853,1261.6719 C1175.8853,1271.6719 1157.8853,1271.6719 1157.8853,1271.6719 C1157.8853,1271.6719 1139.8853,1271.6719 1139.8853,1261.6719 L1139.8853,1235.6719" fill="#E2E2F0" style="stroke:#181818;stroke-width:0.5;"/><path d="M1139.8853,1235.6719 C1139.8853,1245.6719 1157.8853,1245.6719 1157.8853,1245.6719 C1157.8853,1245.6719 1175.8853,1245.6719 1175.8853,1235.6719" fill="none" style="stroke:#181818;stroke-width:0.5;"/></g><g class="participant participant-head" data-participant="RepoSaldo"><text fill="#000000" font-family="sans-serif" font-size="14" lengthAdjust="spacing" textLength="86.3447" x="1235.5977" y="115.292">Repo Saldos</text><path d="M1263.77,66.2969 C1263.77,56.2969 1281.77,56.2969 1281.77,56.2969 C1281.77,56.2969 1299.77,56.2969 1299.77,66.2969 L1299.77,92.2969 C1299.77,102.2969 1281.77,102.2969 1281.77,102.2969 C1281.77,102.2969 1263.77,102.2969 1263.77,92.2969 L1263.77,66.2969" fill="#E2E2F0" style="stroke:#181818;stroke-width:0.5;"/><path d="M1263.77,66.2969 C1263.77,76.2969 1281.77,76.2969 1281.77,76.2969 C1281.77,76.2969 1299.77,76.2969 1299.77,66.2969" fill="none" style="stroke:#181818;stroke-width:0.5;"/></g><g class="participant participant-tail" data-participant="RepoSaldo"><text fill="#000000" font-family="sans-serif" font-size="14" lengthAdjust="spacing" textLength="86.3447" x="1235.5977" y="1222.3701">Repo Saldos</text><path d="M1263.77,1235.6719 C1263.77,1225.6719 1281.77,1225.6719 1281.77,1225.6719 C1281.77,1225.6719 1299.77,1225.6719 1299.77,1235.6719 L1299.77,1261.6719 C1299.77,1271.6719 1281.77,1271.6719 1281.77,1271.6719 C1281.77,1271.6719 1263.77,1271.6719 1263.77,1261.6719 L1263.77,1235.6719" fill="#E2E2F0" style="stroke:#181818;stroke-width:0.5;"/><path d="M1263.77,1235.6719 C1263.77,1245.6719 1281.77,1245.6719 1281.77,1245.6719 C1281.77,1245.6719 1299.77,1245.6719 1299.77,1235.6719" fill="none" style="stroke:#181818;stroke-width:0.5;"/></g><rect fill="#EEEEEE" height="3" style="stroke:#EEEEEE;stroke-width:1;" width="1332.9424" x="0" y="149.1602"/><line style="stroke:#000000;stroke-width:1;" x1="0" x2="1332.9424" y1="149.1602" y2="149.1602"/><line style="stroke:#000000;stroke-width:1;" x1="0" x2="1332.9424" y1="152.1602" y2="152.1602"/><rect fill="#EEEEEE" height="23.1328" style="stroke:#000000;stroke-width:2;" width="164.9282" x="584.0071" y="138.5938"/><text fill="#000000" font-family="sans-serif" font-size="13" font-weight="bold" lengthAdjust="spacing" textLength="146.4023" x="590.0071" y="154.6606">Selecci&#243;n de cliente</text><g class="message" data-participant-1="Tendero" data-participant-2="UI"><polygon fill="#181818" points="310.0664,203.9922,320.0664,207.9922,310.0664,211.9922,314.0664,207.9922" style="stroke:#181818;stroke-width:1;"/><line style="stroke:#181818;stroke-width:1;" x1="51.9297" x2="316.0664" y1="207.9922" y2="207.9922"/><text fill="#000000" font-family="sans-serif" font-size="13" lengthAdjust="spacing" textLength="123.1064" x="58.9297" y="187.7935">Seleccionar cliente</text><text fill="#000000" font-family="sans-serif" font-size="13" lengthAdjust="spacing" textLength="154.4258" x="58.9297" y="202.9263">(elegir desde buscador)</text></g><g class="message" data-participant-1="UI" data-participant-2="SClientes"><polygon fill="#181818" points="991.9624,233.125,1001.9624,237.125,991.9624,241.125,995.9624,237.125" style="stroke:#181818;stroke-width:1;"/><line style="stroke:#181818;stroke-width:1;" x1="322.0664" x2="997.9624" y1="237.125" y2="237.125"/><text fill="#000000" font-family="sans-serif" font-size="13" lengthAdjust="spacing" textLength="201.957" x="329.0664" y="232.0591">obtenerDatosCliente(idCliente)</text></g><g class="message" data-participant-1="SClientes" data-participant-2="UI"><polygon fill="#181818" points="333.0664,262.2578,323.0664,266.2578,333.0664,270.2578,329.0664,266.2578" style="stroke:#181818;stroke-width:1;"/><line style="stroke:#181818;stroke-width:1;stroke-dasharray:2,2;" x1="327.0664" x2="1002.9624" y1="266.2578" y2="266.2578"/><text fill="#000000" font-family="sans-serif" font-size="13" lengthAdjust="spacing" textLength="278.3511" x="339.0664" y="261.1919">datosCliente(saldoActual, estado, nombre)</text></g><path d="M327,279.2578 L327,319.2578 L600,319.2578 L600,289.2578 L590,279.2578 L327,279.2578" fill="#FEFFDD" style="stroke:#181818;stroke-width:0.5;"/><path d="M590,279.2578 L590,289.2578 L600,289.2578 L590,279.2578" fill="#FEFFDD" style="stroke:#181818;stroke-width:0.5;"/><text fill="#000000" font-family="sans-serif" font-size="13" lengthAdjust="spacing" textLength="221.4507" x="333" y="296.3247">La UI muestra nombre del cliente,</text><text fill="#000000" font-family="sans-serif" font-size="13" lengthAdjust="spacing" textLength="252.2939" x="333" y="311.4575">saldo actual y estado (activo/inactivo).</text><rect fill="#EEEEEE" height="3" style="stroke:#EEEEEE;stroke-width:1;" width="1332.9424" x="0" y="345.0898"/><line style="stroke:#000000;stroke-width:1;" x1="0" x2="1332.9424" y1="345.0898" y2="345.0898"/><line style="stroke:#000000;stroke-width:1;" x1="0" x2="1332.9424" y1="348.0898" y2="348.0898"/><rect fill="#EEEEEE" height="23.1328" style="stroke:#000000;stroke-width:2;" width="265.291" x="533.8257" y="334.5234"/><text fill="#000000" font-family="sans-serif" font-size="13" font-weight="bold" lengthAdjust="spacing" textLength="246.7651" x="539.8257" y="350.5903">Ingreso de datos de compra fiada</text><g class="message" data-participant-1="Tendero" data-participant-2="UI"><polygon fill="#181818" points="310.0664,399.9219,320.0664,403.9219,310.0664,407.9219,314.0664,403.9219" style="stroke:#181818;stroke-width:1;"/><line style="stroke:#181818;stroke-width:1;" x1="51.9297" x2="316.0664" y1="403.9219" y2="403.9219"/><text fill="#000000" font-family="sans-serif" font-size="13" lengthAdjust="spacing" textLength="138.2583" x="58.9297" y="383.7231">Digitar monto, fecha,</text><text fill="#000000" font-family="sans-serif" font-size="13" lengthAdjust="spacing" textLength="225.9766" x="58.9297" y="398.856">referencia y tipo = "Compra fiada"</text></g><g class="message" data-participant-1="Tendero" data-participant-2="UI"><polygon fill="#181818" points="310.0664,429.0547,320.0664,433.0547,310.0664,437.0547,314.0664,433.0547" style="stroke:#181818;stroke-width:1;"/><line style="stroke:#181818;stroke-width:1;" x1="51.9297" x2="316.0664" y1="433.0547" y2="433.0547"/><text fill="#000000" font-family="sans-serif" font-size="13" lengthAdjust="spacing" textLength="211.9673" x="58.9297" y="427.9888">Presionar "Guardar movimiento"</text></g><rect fill="#EEEEEE" height="3" style="stroke:#EEEEEE;stroke-width:1;" width="1332.9424" x="0" y="461.6211"/><line style="stroke:#000000;stroke-width:1;" x1="0" x2="1332.9424" y1="461.6211" y2="461.6211"/><line style="stroke:#000000;stroke-width:1;" x1="0" x2="1332.9424" y1="464.6211" y2="464.6211"/><rect fill="#EEEEEE" height="23.1328" style="stroke:#000000;stroke-width:2;" width="195.8286" x="568.5569" y="451.0547"/><text fill="#000000" font-family="sans-serif" font-size="13" font-weight="bold" lengthAdjust="spacing" textLength="177.3027" x="574.5569" y="467.1216">Validaciones de negocio</text><g class="message" data-participant-1="UI" data-participant-2="Ctrl"><polygon fill="#181818" points="769.2173,501.3203,779.2173,505.3203,769.2173,509.3203,773.2173,505.3203" style="stroke:#181818;stroke-width:1;"/><line style="stroke:#181818;stroke-width:1;" x1="322.0664" x2="775.2173" y1="505.3203" y2="505.3203"/><text fill="#000000" font-family="sans-serif" font-size="13" lengthAdjust="spacing" textLength="435.1509" x="329.0664" y="500.2544">registrarCompraFiada(idCliente, monto, fecha, referencia, usuario)</text></g><g class="message" data-participant-1="Ctrl" data-participant-2="SClientes"><polygon fill="#181818" points="991.9624,530.4531,1001.9624,534.4531,991.9624,538.4531,995.9624,534.4531" style="stroke:#181818;stroke-width:1;"/><line style="stroke:#181818;stroke-width:1;" x1="781.2173" x2="997.9624" y1="534.4531" y2="534.4531"/><text fill="#000000" font-family="sans-serif" font-size="13" lengthAdjust="spacing" textLength="198.1167" x="788.2173" y="529.3872">validarClienteActivo(idCliente)</text></g><g class="message" data-participant-1="SClientes" data-participant-2="Ctrl"><polygon fill="#181818" points="792.2173,559.5859,782.2173,563.5859,792.2173,567.5859,788.2173,563.5859" style="stroke:#181818;stroke-width:1;"/><line style="stroke:#181818;stroke-width:1;stroke-dasharray:2,2;" x1="786.2173" x2="1002.9624" y1="563.5859" y2="563.5859"/><text fill="#000000" font-family="sans-serif" font-size="13" lengthAdjust="spacing" textLength="198.7451" x="798.2173" y="558.52">resultadoValidaci&#243;n(ok / error)</text></g><path d="M10,578.5859 L74.4429,578.5859 L74.4429,585.7188 L64.4429,595.7188 L10,595.7188 L10,578.5859" fill="#EEEEEE" style="stroke:#000000;stroke-width:1.5;"/><rect fill="none" height="104.5313" style="stroke:#000000;stroke-width:1.5;" width="856.0093" x="10" y="578.5859"/><text fill="#000000" font-family="sans-serif" font-size="13" font-weight="bold" lengthAdjust="spacing" textLength="19.4429" x="25" y="591.6528">alt</text><text fill="#000000" font-family="sans-serif" font-size="11" font-weight="bold" lengthAdjust="spacing" textLength="106.8096" x="89.4429" y="590.7964">[Cliente inactivo]</text><g class="message" data-participant-1="Ctrl" data-participant-2="UI"><polygon fill="#181818" points="333.0664,627.9844,323.0664,631.9844,333.0664,635.9844,329.0664,631.9844" style="stroke:#181818;stroke-width:1;"/><line style="stroke:#181818;stroke-width:1;stroke-dasharray:2,2;" x1="327.0664" x2="780.2173" y1="631.9844" y2="631.9844"/><text fill="#000000" font-family="sans-serif" font-size="13" lengthAdjust="spacing" textLength="202.7251" x="339.0664" y="611.7856">error("El cliente no est&#225; activo.</text><text fill="#000000" font-family="sans-serif" font-size="13" lengthAdjust="spacing" textLength="262.1772" x="339.0664" y="626.9185">No se puede registrar la compra fiada.")</text></g><g class="message" data-participant-1="UI" data-participant-2="Tendero"><polygon fill="#181818" points="62.9297,657.1172,52.9297,661.1172,62.9297,665.1172,58.9297,661.1172" style="stroke:#181818;stroke-width:1;"/><line style="stroke:#181818;stroke-width:1;stroke-dasharray:2,2;" x1="56.9297" x2="321.0664" y1="661.1172" y2="661.1172"/><text fill="#000000" font-family="sans-serif" font-size="13" lengthAdjust="spacing" textLength="165.5786" x="68.9297" y="656.0513">Mostrar mensaje de error</text></g><g class="message" data-participant-1="Tendero" data-participant-2="UI"><polygon fill="#181818" points="310.0664,671.1172,320.0664,675.1172,310.0664,679.1172,314.0664,675.1172" style="stroke:#181818;stroke-width:1;"/><line style="stroke:#181818;stroke-width:1;stroke-dasharray:2,2;" x1="51.9297" x2="316.0664" y1="675.1172" y2="675.1172"/></g><g class="message" data-participant-1="Ctrl" data-participant-2="Ctrl"><line style="stroke:#181818;stroke-width:1;" x1="781.2173" x2="823.2173" y1="711.25" y2="711.25"/><line style="stroke:#181818;stroke-width:1;" x1="823.2173" x2="823.2173" y1="711.25" y2="724.25"/><line style="stroke:#181818;stroke-width:1;" x1="782.2173" x2="823.2173" y1="724.25" y2="724.25"/><polygon fill="#181818" points="792.2173,720.25,782.2173,724.25,792.2173,728.25,788.2173,724.25" style="stroke:#181818;stroke-width:1;"/><text fill="#000000" font-family="sans-serif" font-size="13" lengthAdjust="spacing" textLength="164.3853" x="788.2173" y="706.1841">validarMonto(monto &gt; 0)</text></g><path d="M10,739.25 L74.4429,739.25 L74.4429,746.3828 L64.4429,756.3828 L10,756.3828 L10,739.25" fill="#EEEEEE" style="stroke:#000000;stroke-width:1.5;"/><rect fill="none" height="89.3984" style="stroke:#000000;stroke-width:1.5;" width="856.0093" x="10" y="739.25"/><text fill="#000000" font-family="sans-serif" font-size="13" font-weight="bold" lengthAdjust="spacing" textLength="19.4429" x="25" y="752.3169">alt</text><text fill="#000000" font-family="sans-serif" font-size="11" font-weight="bold" lengthAdjust="spacing" textLength="102.2012" x="89.4429" y="751.4604">[Monto inv&#225;lido]</text><g class="message" data-participant-1="Ctrl" data-participant-2="UI"><polygon fill="#181818" points="333.0664,773.5156,323.0664,777.5156,333.0664,781.5156,329.0664,777.5156" style="stroke:#181818;stroke-width:1;"/><line style="stroke:#181818;stroke-width:1;stroke-dasharray:2,2;" x1="327.0664" x2="780.2173" y1="777.5156" y2="777.5156"/><text fill="#000000" font-family="sans-serif" font-size="13" lengthAdjust="spacing" textLength="283.918" x="339.0664" y="772.4497">error("El monto debe ser mayor que cero.")</text></g><g class="message" data-participant-1="UI" data-participant-2="Tendero"><polygon fill="#181818" points="62.9297,802.6484,52.9297,806.6484,62.9297,810.6484,58.9297,806.6484" style="stroke:#181818;stroke-width:1;"/><line style="stroke:#181818;stroke-width:1;stroke-dasharray:2,2;" x1="56.9297" x2="321.0664" y1="806.6484" y2="806.6484"/><text fill="#000000" font-family="sans-serif" font-size="13" lengthAdjust="spacing" textLength="165.5786" x="68.9297" y="801.5825">Mostrar mensaje de error</text></g><g class="message" data-participant-1="Tendero" data-participant-2="UI"><polygon fill="#181818" points="310.0664,816.6484,320.0664,820.6484,310.0664,824.6484,314.0664,820.6484" style="stroke:#181818;stroke-width:1;"/><line style="stroke:#181818;stroke-width:1;stroke-dasharray:2,2;" x1="51.9297" x2="316.0664" y1="820.6484" y2="820.6484"/></g><rect fill="#EEEEEE" height="3" style="stroke:#EEEEEE;stroke-width:1;" width="1332.9424" x="0" y="856.2148"/><line style="stroke:#000000;stroke-width:1;" x1="0" x2="1332.9424" y1="856.2148" y2="856.2148"/><line style="stroke:#000000;stroke-width:1;" x1="0" x2="1332.9424" y1="859.2148" y2="859.2148"/><rect fill="#EEEEEE" height="23.1328" style="stroke:#000000;stroke-width:2;" width="198.666" x="567.1382" y="845.6484"/><text fill="#000000" font-family="sans-serif" font-size="13" font-weight="bold" lengthAdjust="spacing" textLength="180.1401" x="573.1382" y="861.7153">Registro del movimiento</text><g class="message" data-participant-1="Ctrl" data-participant-2="RepoMov"><polygon fill="#181818" points="1145.8853,941.3125,1155.8853,945.3125,1145.8853,949.3125,1149.8853,945.3125" style="stroke:#181818;stroke-width:1;"/><line style="stroke:#181818;stroke-width:1;" x1="781.2173" x2="1151.8853" y1="945.3125" y2="945.3125"/><text fill="#000000" font-family="sans-serif" font-size="13" lengthAdjust="spacing" textLength="131.4854" x="788.2173" y="894.8481">insertarMovimiento(</text><text fill="#000000" font-family="sans-serif" font-size="13" lengthAdjust="spacing" textLength="228.3188" x="792.3496" y="909.981">idCliente, tipo=\"COMPRA_FIADA\",</text><text fill="#000000" font-family="sans-serif" font-size="13" lengthAdjust="spacing" textLength="216.9819" x="792.3496" y="925.1138">monto, fecha, referencia, usuario</text><text fill="#000000" font-family="sans-serif" font-size="13" lengthAdjust="spacing" textLength="5.0718" x="788.2173" y="940.2466">)</text></g><g class="message" data-participant-1="RepoMov" data-participant-2="Ctrl"><polygon fill="#181818" points="792.2173,970.4453,782.2173,974.4453,792.2173,978.4453,788.2173,974.4453" style="stroke:#181818;stroke-width:1;"/><line style="stroke:#181818;stroke-width:1;stroke-dasharray:2,2;" x1="786.2173" x2="1156.8853" y1="974.4453" y2="974.4453"/><text fill="#000000" font-family="sans-serif" font-size="13" lengthAdjust="spacing" textLength="239.5796" x="798.2173" y="969.3794">movimientoGuardado(idMovimiento)</text></g><rect fill="#EEEEEE" height="3" style="stroke:#EEEEEE;stroke-width:1;" width="1332.9424" x="0" y="1003.0117"/><line style="stroke:#000000;stroke-width:1;" x1="0" x2="1332.9424" y1="1003.0117" y2="1003.0117"/><line style="stroke:#000000;stroke-width:1;" x1="0" x2="1332.9424" y1="1006.0117" y2="1006.0117"/><rect fill="#EEEEEE" height="23.1328" style="stroke:#000000;stroke-width:2;" width="182.5112" x="575.2156" y="992.4453"/><text fill="#000000" font-family="sans-serif" font-size="13" font-weight="bold" lengthAdjust="spacing" textLength="163.9854" x="581.2156" y="1008.5122">Actualizaci&#243;n de saldo</text><g class="message" data-participant-1="Ctrl" data-participant-2="RepoSaldo"><polygon fill="#181818" points="1269.77,1042.7109,1279.77,1046.7109,1269.77,1050.7109,1273.77,1046.7109" style="stroke:#181818;stroke-width:1;"/><line style="stroke:#181818;stroke-width:1;" x1="781.2173" x2="1275.77" y1="1046.7109" y2="1046.7109"/><text fill="#000000" font-family="sans-serif" font-size="13" lengthAdjust="spacing" textLength="274.1489" x="788.2173" y="1041.645">actualizarSaldoCliente(idCliente, +monto)</text></g><g class="message" data-participant-1="RepoSaldo" data-participant-2="Ctrl"><polygon fill="#181818" points="792.2173,1071.8438,782.2173,1075.8438,792.2173,1079.8438,788.2173,1075.8438" style="stroke:#181818;stroke-width:1;"/><line style="stroke:#181818;stroke-width:1;stroke-dasharray:2,2;" x1="786.2173" x2="1280.77" y1="1075.8438" y2="1075.8438"/><text fill="#000000" font-family="sans-serif" font-size="13" lengthAdjust="spacing" textLength="76.1592" x="798.2173" y="1070.7778">nuevoSaldo</text></g><rect fill="#EEEEEE" height="3" style="stroke:#EEEEEE;stroke-width:1;" width="1332.9424" x="0" y="1104.4102"/><line style="stroke:#000000;stroke-width:1;" x1="0" x2="1332.9424" y1="1104.4102" y2="1104.4102"/><line style="stroke:#000000;stroke-width:1;" x1="0" x2="1332.9424" y1="1107.4102" y2="1107.4102"/><rect fill="#EEEEEE" height="23.1328" style="stroke:#000000;stroke-width:2;" width="204.0044" x="564.469" y="1093.8438"/><text fill="#000000" font-family="sans-serif" font-size="13" font-weight="bold" lengthAdjust="spacing" textLength="185.4785" x="570.469" y="1109.9106">Respuesta exitosa a la UI</text><g class="message" data-participant-1="Ctrl" data-participant-2="UI"><polygon fill="#181818" points="333.0664,1144.1094,323.0664,1148.1094,333.0664,1152.1094,329.0664,1148.1094" style="stroke:#181818;stroke-width:1;"/><line style="stroke:#181818;stroke-width:1;stroke-dasharray:2,2;" x1="327.0664" x2="780.2173" y1="1148.1094" y2="1148.1094"/><text fill="#000000" font-family="sans-serif" font-size="13" lengthAdjust="spacing" textLength="297.3813" x="339.0664" y="1143.0435">exito("Compra fiada registrada", nuevoSaldo)</text></g><g class="message" data-participant-1="UI" data-participant-2="Tendero"><polygon fill="#181818" points="62.9297,1188.375,52.9297,1192.375,62.9297,1196.375,58.9297,1192.375" style="stroke:#181818;stroke-width:1;"/><line style="stroke:#181818;stroke-width:1;stroke-dasharray:2,2;" x1="56.9297" x2="321.0664" y1="1192.375" y2="1192.375"/><text fill="#000000" font-family="sans-serif" font-size="13" lengthAdjust="spacing" textLength="138.2837" x="68.9297" y="1172.1763">Mostrar confirmaci&#243;n</text><text fill="#000000" font-family="sans-serif" font-size="13" lengthAdjust="spacing" textLength="246.1367" x="68.9297" y="1187.3091">+ nuevo saldo y &#250;ltimos movimientos</text></g><!--SRC=[fLHDRzim3BthLn0-sQZRxbmW1OAq7GAqMv6isyN0mDXCgisMCbaErlsR7dVURTVyiLAIlz9sss6tM7aa7nyVQQKj2HQqaRKrQ23NrTOWh2KM2CTmBLT6msL9kJNxNqhc6Wg2cTd_BAJLjH2OMstW0wc2Z1PRD5RcSelAGdGtXq-qobJSPjT3N181rd0tFmoOQSMeyg221ywiAG-XIp8x_WXiIadAKe0kkozHeCKLrWJHWhOQRlHELkwlDgTxvBVdi2MMnGZXFuMOJ619B48kMGHNCmzLO38HRUzmVCuDmLa7rCgf6M2i0JzkfE7GcgDNJPrZeKqYE8BZUj8ShbUM59aBPABjSooBzbSY1kXnLx0OGsj7U9hR1iiKgBPS9WMbgvNXOA4qSpPoSsz1hvt-0DVeibGDkVctIAPPTjnJnlYaW3uhFBHf8UO7kTEdKeKVoObWAS3Ly8hDrSPGxKVaANhTnlPwHRmBkP6MXQlO2anyJVazffaoj2P3AfV8vQtaEKsSNOPSqOjCjrmx325wsw0fVDBE0f4d-15BMQ0R5NboYZRQUOfvXRautt4gqsr7g7Zb2WupIG_9mi0rXQRcqb8dmcTwDkcTBs_QbwdNyC-ZxhdKJUdaxyYp8MFz5Kw1Z76E4bZQRYMW6mtFC33erF7WEBhinynZStFTFqA8ECdKEmsy5jk6M9fU0YZnO8WdKSB9dLoSkfl16MzRG5UaQlpY31LACjQGROnoLX6zB6rphI8tJi_OgmhdyARjoRzoHxlz8wF-rbA8B6X5t01pm0S-KTyQTX-J-p_2x9h-chab6IpbNDErqzuMJYiLCx2kfGuNPmf6td5cdcJHxFtDxMBw-Me-lPXc4Jl-twRAL2AwGYE338o2xGldgQ5yudi81qB-mFwWXHL_reE_VfmJExZnBo_EKWf7dcuW5A96b5H3kz4bNL2zTUS6WRwx4u-0pbKyahvyFrC7Y0yslRSYBtqwIXrkwQippRLQIrE5PZDr5ABQbXzW_xkqikBxD4XNFm40]--></g></svg>