<svg xmlns="http://www.w3.org/2000/svg" xmlns:xlink="http://www.w3.org/1999/xlink" contentStyleType="text/css" data-diagram-type="ACTIVITY" height="2712px" preserveAspectRatio="none" style="width:577px;height:2712px;background:#FFFFFF;" version="1.1" viewBox="0 0 577 2712" width="577px" zoomAndPan="magnify"><title>User Flow - Libro Electr&#243;nico de Cr&#233;ditos</title><defs/><g><g class="title" data-source-line="1"><text fill="#000000" font-family="sans-serif" font-size="14" font-weight="bold" lengthAdjust="spacing" textLength="322.041" x="126.0339" y="32.9951">User Flow - Libro Electr&#243;nico de Cr&#233;ditos</text></g><ellipse cx="278.8569" cy="57.2969" fill="#222222" rx="10" ry="10" style="stroke:#222222;stroke-width:1;"/><rect fill="none" height="244.1719" style="stroke:#000000;stroke-width:1.5;" width="219.7188" x="168.9976" y="77.2969"/><path d="M232.2017,77.2969 L232.2017,86.5938 L222.2017,96.5938 L168.9976,96.5938" fill="none" style="stroke:#000000;stroke-width:1.5;"/><text fill="#000000" font-family="sans-serif" font-size="14" lengthAdjust="spacing" textLength="53.2041" x="171.9976" y="91.292">Usuario</text><rect fill="#F1F1F1" height="33.9688" rx="12.5" ry="12.5" style="stroke:#181818;stroke-width:0.5;" width="176.8848" x="190.4146" y="113.5938"/><text fill="#000000" font-family="sans-serif" font-size="12" lengthAdjust="spacing" textLength="156.8848" x="200.4146" y="134.7324">Abrir app en el navegador</text><rect fill="#F1F1F1" height="33.9688" rx="12.5" ry="12.5" style="stroke:#181818;stroke-width:0.5;" width="144.8574" x="206.4282" y="167.5625"/><text fill="#000000" font-family="sans-serif" font-size="12" lengthAdjust="spacing" textLength="124.8574" x="216.4282" y="188.7012">Ver pantalla de login</text><rect fill="#F1F1F1" height="33.9688" rx="12.5" ry="12.5" style="stroke:#181818;stroke-width:0.5;" width="199.7188" x="178.9976" y="221.5313"/><text fill="#000000" font-family="sans-serif" font-size="12" lengthAdjust="spacing" textLength="179.7188" x="188.9976" y="242.6699">Ingresar usuario y contrase&#241;a</text><rect fill="#F1F1F1" height="33.9688" rx="12.5" ry="12.5" style="stroke:#181818;stroke-width:0.5;" width="153.9805" x="201.8667" y="275.5"/><text fill="#000000" font-family="sans-serif" font-size="12" lengthAdjust="spacing" textLength="133.9805" x="211.8667" y="296.6387">Clic en "Iniciar sesi&#243;n"</text><rect fill="none" height="288.0396" style="stroke:#000000;stroke-width:1.5;" width="527.7593" x="38.3496" y="331.4688"/><path d="M104.7393,331.4688 L104.7393,340.7656 L94.7393,350.7656 L38.3496,350.7656" fill="none" style="stroke:#000000;stroke-width:1.5;"/><text fill="#000000" font-family="sans-serif" font-size="14" lengthAdjust="spacing" textLength="56.3896" x="41.3496" y="345.4639">Sistema</text><rect fill="#F1F1F1" height="33.9688" rx="12.5" ry="12.5" style="stroke:#181818;stroke-width:0.5;" width="141.7227" x="207.9956" y="367.7656"/><text fill="#000000" font-family="sans-serif" font-size="12" lengthAdjust="spacing" textLength="121.7227" x="217.9956" y="388.9043">Validar credenciales</text><polygon fill="#F1F1F1" points="219.2351,421.7344,338.4788,421.7344,350.4788,433.7344,338.4788,445.7344,219.2351,445.7344,207.2351,433.7344,219.2351,421.7344" style="stroke:#181818;stroke-width:0.5;"/><text fill="#000000" font-family="sans-serif" font-size="11" lengthAdjust="spacing" textLength="119.2437" x="219.2351" y="437.5425">Credenciales v&#225;lidas?</text><text fill="#000000" font-family="sans-serif" font-size="11" lengthAdjust="spacing" textLength="8.7871" x="198.448" y="431.1401">s&#237;</text><text fill="#000000" font-family="sans-serif" font-size="11" lengthAdjust="spacing" textLength="13.7017" x="350.4788" y="431.1401">no</text><rect fill="#F1F1F1" height="33.9688" rx="12.5" ry="12.5" style="stroke:#181818;stroke-width:0.5;" width="162.0195" x="79.4141" y="455.7344"/><text fill="#000000" font-family="sans-serif" font-size="12" lengthAdjust="spacing" textLength="142.0195" x="89.4141" y="476.873">Crear sesi&#243;n de usuario</text><rect fill="#F1F1F1" height="47.9375" rx="12.5" ry="12.5" style="stroke:#181818;stroke-width:0.5;" width="204.1484" x="58.3496" y="523.6719"/><text fill="#000000" font-family="sans-serif" font-size="12" lengthAdjust="spacing" textLength="108.0762" x="68.3496" y="544.8105">Cargar dashboard</text><text fill="#000000" font-family="sans-serif" font-size="12" lengthAdjust="spacing" textLength="184.1484" x="68.3496" y="558.7793">(resumen de cartera y alertas)</text><rect fill="#F1F1F1" height="47.9375" rx="12.5" ry="12.5" style="stroke:#181818;stroke-width:0.5;" width="229.584" x="282.498" y="455.7344"/><text fill="#000000" font-family="sans-serif" font-size="12" lengthAdjust="spacing" textLength="152.8418" x="292.498" y="476.873">Mostrar mensaje de error</text><text fill="#000000" font-family="sans-serif" font-size="12" lengthAdjust="spacing" textLength="209.584" x="292.498" y="490.8418">"Usuario o contrase&#241;a incorrectos"</text><polygon fill="#F1F1F1" points="278.8569,583.5083,290.8569,595.5083,278.8569,607.5083,266.8569,595.5083,278.8569,583.5083" style="stroke:#181818;stroke-width:0.5;"/><text fill="#000000" font-family="sans-serif" font-size="11" lengthAdjust="spacing" textLength="270.252" x="290.8569" y="592.9141">[volver a login] #back: Volver a pantalla de login</text><rect fill="none" height="536.4492" style="stroke:#000000;stroke-width:1.5;" width="393.7734" x="96.5952" y="629.5083"/><path d="M159.7993,629.5083 L159.7993,638.8052 L149.7993,648.8052 L96.5952,648.8052" fill="none" style="stroke:#000000;stroke-width:1.5;"/><text fill="#000000" font-family="sans-serif" font-size="14" lengthAdjust="spacing" textLength="53.2041" x="99.5952" y="643.5034">Usuario</text><rect fill="#F1F1F1" height="33.9688" rx="12.5" ry="12.5" style="stroke:#181818;stroke-width:0.5;" width="176.8027" x="190.4556" y="665.8052"/><text fill="#000000" font-family="sans-serif" font-size="12" lengthAdjust="spacing" textLength="156.8027" x="200.4556" y="686.9438">Revisar m&#233;tricas y alertas</text><rect fill="#F1F1F1" height="33.9688" rx="12.5" ry="12.5" style="stroke:#181818;stroke-width:0.5;" width="154.9473" x="201.3833" y="768.1763"/><text fill="#000000" font-family="sans-serif" font-size="12" lengthAdjust="spacing" textLength="134.9473" x="211.3833" y="789.3149">Ir al m&#243;dulo "Clientes"</text><rect fill="#F1F1F1" height="47.9375" rx="12.5" ry="12.5" style="stroke:#181818;stroke-width:0.5;" width="132.875" x="212.4194" y="822.145"/><text fill="#000000" font-family="sans-serif" font-size="12" lengthAdjust="spacing" textLength="85.1309" x="222.4194" y="843.2837">Buscar cliente</text><text fill="#000000" font-family="sans-serif" font-size="12" lengthAdjust="spacing" textLength="112.875" x="222.4194" y="857.2524">por nombre o alias</text><polygon fill="#F1F1F1" points="235.3914,890.0825,322.3225,890.0825,334.3225,902.0825,322.3225,914.0825,235.3914,914.0825,223.3914,902.0825,235.3914,890.0825" style="stroke:#181818;stroke-width:0.5;"/><text fill="#000000" font-family="sans-serif" font-size="11" lengthAdjust="spacing" textLength="86.9312" x="235.3914" y="905.8906">&#191;Cliente existe?</text><text fill="#000000" font-family="sans-serif" font-size="11" lengthAdjust="spacing" textLength="8.7871" x="214.6042" y="899.4883">s&#237;</text><text fill="#000000" font-family="sans-serif" font-size="11" lengthAdjust="spacing" textLength="13.7017" x="334.3225" y="899.4883">no</text><rect fill="#F1F1F1" height="33.9688" rx="12.5" ry="12.5" style="stroke:#181818;stroke-width:0.5;" width="133.6367" x="126.5952" y="924.0825"/><text fill="#000000" font-family="sans-serif" font-size="12" lengthAdjust="spacing" textLength="113.6367" x="136.5952" y="945.2212">Seleccionar cliente</text><rect fill="#F1F1F1" height="33.9688" rx="12.5" ry="12.5" style="stroke:#181818;stroke-width:0.5;" width="157.8652" x="285.3677" y="924.0825"/><text fill="#000000" font-family="sans-serif" font-size="12" lengthAdjust="spacing" textLength="137.8652" x="295.3677" y="945.2212">Clic en "Nuevo cliente"</text><rect fill="#F1F1F1" height="47.9375" rx="12.5" ry="12.5" style="stroke:#181818;stroke-width:0.5;" width="168.1367" x="280.2319" y="978.0513"/><text fill="#000000" font-family="sans-serif" font-size="12" lengthAdjust="spacing" textLength="129.9727" x="290.2319" y="999.1899">Diligenciar formulario</text><text fill="#000000" font-family="sans-serif" font-size="12" lengthAdjust="spacing" textLength="148.1367" x="290.2319" y="1013.1587">(nombre, alias, tel&#233;fono)</text><rect fill="#F1F1F1" height="33.9688" rx="12.5" ry="12.5" style="stroke:#181818;stroke-width:0.5;" width="113.252" x="307.6743" y="1045.9888"/><text fill="#000000" font-family="sans-serif" font-size="12" lengthAdjust="spacing" textLength="93.252" x="317.6743" y="1067.1274">Guardar cliente</text><polygon fill="#F1F1F1" points="278.8569,1085.9575,290.8569,1097.9575,278.8569,1109.9575,266.8569,1097.9575,278.8569,1085.9575" style="stroke:#181818;stroke-width:0.5;"/><polygon fill="#F1F1F1" points="198.4329,719.7739,359.281,719.7739,371.281,731.7739,359.281,743.7739,198.4329,743.7739,186.4329,731.7739,198.4329,719.7739" style="stroke:#181818;stroke-width:0.5;"/><text fill="#000000" font-family="sans-serif" font-size="11" lengthAdjust="spacing" textLength="8.7871" x="282.8569" y="753.9844">s&#237;</text><text fill="#000000" font-family="sans-serif" font-size="11" lengthAdjust="spacing" textLength="160.8481" x="198.4329" y="735.582">&#191;Necesita gestionar clientes?</text><polygon fill="#F1F1F1" points="278.8569,1129.9575,290.8569,1141.9575,278.8569,1153.9575,266.8569,1141.9575,278.8569,1129.9575" style="stroke:#181818;stroke-width:0.5;"/><rect fill="none" height="418.4805" style="stroke:#000000;stroke-width:1.5;" width="280.7695" x="144.4722" y="1175.9575"/><path d="M207.6763,1175.9575 L207.6763,1185.2544 L197.6763,1195.2544 L144.4722,1195.2544" fill="none" style="stroke:#000000;stroke-width:1.5;"/><text fill="#000000" font-family="sans-serif" font-size="14" lengthAdjust="spacing" textLength="53.2041" x="147.4722" y="1189.9526">Usuario</text><rect fill="#F1F1F1" height="33.9688" rx="12.5" ry="12.5" style="stroke:#181818;stroke-width:0.5;" width="153.1836" x="202.2651" y="1260.6567"/><text fill="#000000" font-family="sans-serif" font-size="12" lengthAdjust="spacing" textLength="133.1836" x="212.2651" y="1281.7954">Ir a m&#243;dulo "Cr&#233;ditos"</text><rect fill="#F1F1F1" height="47.9375" rx="12.5" ry="12.5" style="stroke:#181818;stroke-width:0.5;" width="203.8906" x="176.9116" y="1314.6255"/><text fill="#000000" font-family="sans-serif" font-size="12" lengthAdjust="spacing" textLength="113.6367" x="186.9116" y="1335.7642">Seleccionar cliente</text><text fill="#000000" font-family="sans-serif" font-size="12" lengthAdjust="spacing" textLength="183.8906" x="186.9116" y="1349.7329">(en buscador de movimientos)</text><rect fill="#F1F1F1" height="47.9375" rx="12.5" ry="12.5" style="stroke:#181818;stroke-width:0.5;" width="175.1504" x="191.2817" y="1382.563"/><text fill="#000000" font-family="sans-serif" font-size="12" lengthAdjust="spacing" textLength="155.1504" x="201.2817" y="1403.7017">Elegir tipo de movimiento</text><text fill="#000000" font-family="sans-serif" font-size="12" lengthAdjust="spacing" textLength="140.1621" x="201.2817" y="1417.6704">(Compra fiada / Abono)</text><rect fill="#F1F1F1" height="33.9688" rx="12.5" ry="12.5" style="stroke:#181818;stroke-width:0.5;" width="228.7695" x="164.4722" y="1450.5005"/><text fill="#000000" font-family="sans-serif" font-size="12" lengthAdjust="spacing" textLength="208.7695" x="174.4722" y="1471.6392">Ingresar monto, fecha y referencia</text><rect fill="#F1F1F1" height="33.9688" rx="12.5" ry="12.5" style="stroke:#181818;stroke-width:0.5;" width="199.7363" x="178.9888" y="1504.4692"/><text fill="#000000" font-family="sans-serif" font-size="12" lengthAdjust="spacing" textLength="179.7363" x="188.9888" y="1525.6079">Clic en "Guardar movimiento"</text><polygon fill="#F1F1F1" points="185.8779,1212.2544,371.8359,1212.2544,383.8359,1224.2544,371.8359,1236.2544,185.8779,1236.2544,173.8779,1224.2544,185.8779,1212.2544" style="stroke:#181818;stroke-width:0.5;"/><text fill="#000000" font-family="sans-serif" font-size="11" lengthAdjust="spacing" textLength="8.7871" x="282.8569" y="1246.4648">s&#237;</text><text fill="#000000" font-family="sans-serif" font-size="11" lengthAdjust="spacing" textLength="185.958" x="185.8779" y="1228.0625">&#191;Registrar compra fiada o abono?</text><polygon fill="#F1F1F1" points="278.8569,1558.438,290.8569,1570.438,278.8569,1582.438,266.8569,1570.438,278.8569,1558.438" style="stroke:#181818;stroke-width:0.5;"/><rect fill="none" height="404.0469" style="stroke:#000000;stroke-width:1.5;" width="530.0645" x="11" y="1604.438"/><path d="M77.3896,1604.438 L77.3896,1613.7349 L67.3896,1623.7349 L11,1623.7349" fill="none" style="stroke:#000000;stroke-width:1.5;"/><text fill="#000000" font-family="sans-serif" font-size="14" lengthAdjust="spacing" textLength="56.3896" x="14" y="1618.4331">Sistema</text><rect fill="#F1F1F1" height="47.9375" rx="12.5" ry="12.5" style="stroke:#181818;stroke-width:0.5;" width="146.5391" x="205.5874" y="1640.7349"/><text fill="#000000" font-family="sans-serif" font-size="12" lengthAdjust="spacing" textLength="126.5391" x="215.5874" y="1661.8735">Validar cliente activo</text><text fill="#000000" font-family="sans-serif" font-size="12" lengthAdjust="spacing" textLength="74.918" x="219.4019" y="1675.8423">y monto &gt; 0</text><polygon fill="#F1F1F1" points="222.8901,1708.6724,334.8237,1708.6724,346.8237,1720.6724,334.8237,1732.6724,222.8901,1732.6724,210.8901,1720.6724,222.8901,1708.6724" style="stroke:#181818;stroke-width:0.5;"/><text fill="#000000" font-family="sans-serif" font-size="11" lengthAdjust="spacing" textLength="111.9336" x="222.8901" y="1724.4805">Validaci&#243;n correcta?</text><text fill="#000000" font-family="sans-serif" font-size="11" lengthAdjust="spacing" textLength="8.7871" x="202.103" y="1718.0781">s&#237;</text><text fill="#000000" font-family="sans-serif" font-size="11" lengthAdjust="spacing" textLength="13.7017" x="346.8237" y="1718.0781">no</text><rect fill="#F1F1F1" height="33.9688" rx="12.5" ry="12.5" style="stroke:#181818;stroke-width:0.5;" width="204.7813" x="46.9502" y="1742.6724"/><text fill="#000000" font-family="sans-serif" font-size="12" lengthAdjust="spacing" textLength="184.7813" x="56.9502" y="1763.811">Registrar movimiento en la BD</text><rect fill="#F1F1F1" height="33.9688" rx="12.5" ry="12.5" style="stroke:#181818;stroke-width:0.5;" width="193.8184" x="52.4316" y="1810.6099"/><text fill="#000000" font-family="sans-serif" font-size="12" lengthAdjust="spacing" textLength="173.8184" x="62.4316" y="1831.7485">Actualizar saldo de la cuenta</text><rect fill="#F1F1F1" height="33.9688" rx="12.5" ry="12.5" style="stroke:#181818;stroke-width:0.5;" width="252.6816" x="23" y="1864.5786"/><text fill="#000000" font-family="sans-serif" font-size="12" lengthAdjust="spacing" textLength="232.6816" x="33" y="1885.7173">Actualizar fecha de &#250;ltimo movimiento</text><rect fill="#F1F1F1" height="47.9375" rx="12.5" ry="12.5" style="stroke:#181818;stroke-width:0.5;" width="158.5625" x="70.0596" y="1918.5474"/><text fill="#000000" font-family="sans-serif" font-size="12" lengthAdjust="spacing" textLength="138.5625" x="80.0596" y="1939.686">Mostrar confirmaci&#243;n y</text><text fill="#000000" font-family="sans-serif" font-size="12" lengthAdjust="spacing" textLength="135.4922" x="80.0596" y="1953.6548">nuevo saldo al usuario</text><rect fill="#F1F1F1" height="47.9375" rx="12.5" ry="12.5" style="stroke:#181818;stroke-width:0.5;" width="225.3828" x="295.6816" y="1742.6724"/><text fill="#000000" font-family="sans-serif" font-size="12" lengthAdjust="spacing" textLength="152.8418" x="305.6816" y="1763.811">Mostrar mensaje de error</text><text fill="#000000" font-family="sans-serif" font-size="12" lengthAdjust="spacing" textLength="205.3828" x="305.6816" y="1777.7798">(monto inv&#225;lido o cliente inactivo)</text><polygon fill="#F1F1F1" points="278.8569,1972.4849,290.8569,1984.4849,278.8569,1996.4849,266.8569,1984.4849,278.8569,1972.4849" style="stroke:#181818;stroke-width:0.5;"/><rect fill="none" height="496.9141" style="stroke:#000000;stroke-width:1.5;" width="254.8828" x="157.4155" y="2018.4849"/><path d="M220.6196,2018.4849 L220.6196,2027.7817 L210.6196,2037.7817 L157.4155,2037.7817" fill="none" style="stroke:#000000;stroke-width:1.5;"/><text fill="#000000" font-family="sans-serif" font-size="14" lengthAdjust="spacing" textLength="53.2041" x="160.4155" y="2032.48">Usuario</text><rect fill="#F1F1F1" height="33.9688" rx="12.5" ry="12.5" style="stroke:#181818;stroke-width:0.5;" width="184.0684" x="186.8228" y="2103.1841"/><text fill="#000000" font-family="sans-serif" font-size="12" lengthAdjust="spacing" textLength="164.0684" x="196.8228" y="2124.3228">Ir a "Historial" o "Reportes"</text><rect fill="#F1F1F1" height="47.9375" rx="12.5" ry="12.5" style="stroke:#181818;stroke-width:0.5;" width="202.8828" x="177.4155" y="2157.1528"/><text fill="#000000" font-family="sans-serif" font-size="12" lengthAdjust="spacing" textLength="79.3184" x="187.4155" y="2178.2915">Aplicar filtros</text><text fill="#000000" font-family="sans-serif" font-size="12" lengthAdjust="spacing" textLength="182.8828" x="187.4155" y="2192.2603">(cliente, fechas, d&#237;as de mora)</text><rect fill="#F1F1F1" height="33.9688" rx="12.5" ry="12.5" style="stroke:#181818;stroke-width:0.5;" width="160.0977" x="198.8081" y="2225.0903"/><text fill="#000000" font-family="sans-serif" font-size="12" lengthAdjust="spacing" textLength="140.0977" x="208.8081" y="2246.229">Ver resultados en tabla</text><rect fill="#F1F1F1" height="33.9688" rx="12.5" ry="12.5" style="stroke:#181818;stroke-width:0.5;" width="154.8887" x="201.4126" y="2327.4614"/><text fill="#000000" font-family="sans-serif" font-size="12" lengthAdjust="spacing" textLength="134.8887" x="211.4126" y="2348.6001">Clic en "Exportar CSV"</text><polygon fill="#F1F1F1" points="249.3831,2279.0591,308.3308,2279.0591,320.3308,2291.0591,308.3308,2303.0591,249.3831,2303.0591,237.3831,2291.0591,249.3831,2279.0591" style="stroke:#181818;stroke-width:0.5;"/><text fill="#000000" font-family="sans-serif" font-size="11" lengthAdjust="spacing" textLength="8.7871" x="282.8569" y="2313.2695">s&#237;</text><text fill="#000000" font-family="sans-serif" font-size="11" lengthAdjust="spacing" textLength="58.9478" x="249.3831" y="2294.8672">&#191;Exportar?</text><polygon fill="#F1F1F1" points="278.8569,2381.4302,290.8569,2393.4302,278.8569,2405.4302,266.8569,2393.4302,278.8569,2381.4302" style="stroke:#181818;stroke-width:0.5;"/><polygon fill="#F1F1F1" points="192.7932,2054.7817,364.9207,2054.7817,376.9207,2066.7817,364.9207,2078.7817,192.7932,2078.7817,180.7932,2066.7817,192.7932,2054.7817" style="stroke:#181818;stroke-width:0.5;"/><text fill="#000000" font-family="sans-serif" font-size="11" lengthAdjust="spacing" textLength="8.7871" x="282.8569" y="2088.9922">s&#237;</text><text fill="#000000" font-family="sans-serif" font-size="11" lengthAdjust="spacing" textLength="172.1274" x="192.7932" y="2070.5898">&#191;Consultar historial o reportes?</text><polygon fill="#F1F1F1" points="278.8569,2425.4302,290.8569,2437.4302,278.8569,2449.4302,266.8569,2437.4302,278.8569,2425.4302" style="stroke:#181818;stroke-width:0.5;"/><rect fill="#F1F1F1" height="33.9688" rx="12.5" ry="12.5" style="stroke:#181818;stroke-width:0.5;" width="99.8984" x="228.9077" y="2469.4302"/><text fill="#000000" font-family="sans-serif" font-size="12" lengthAdjust="spacing" textLength="79.8984" x="238.9077" y="2490.5688">Cerrar sesi&#243;n</text><rect fill="none" height="136.2344" style="stroke:#000000;stroke-width:1.5;" width="206.3242" x="175.6948" y="2525.3989"/><path d="M242.0845,2525.3989 L242.0845,2534.6958 L232.0845,2544.6958 L175.6948,2544.6958" fill="none" style="stroke:#000000;stroke-width:1.5;"/><text fill="#000000" font-family="sans-serif" font-size="14" lengthAdjust="spacing" textLength="56.3896" x="178.6948" y="2539.394">Sistema</text><rect fill="#F1F1F1" height="33.9688" rx="12.5" ry="12.5" style="stroke:#181818;stroke-width:0.5;" width="114.1543" x="221.7798" y="2561.6958"/><text fill="#000000" font-family="sans-serif" font-size="12" lengthAdjust="spacing" textLength="94.1543" x="231.7798" y="2582.8345">Invalidar sesi&#243;n</text><rect fill="#F1F1F1" height="33.9688" rx="12.5" ry="12.5" style="stroke:#181818;stroke-width:0.5;" width="186.3242" x="185.6948" y="2615.6646"/><text fill="#000000" font-family="sans-serif" font-size="12" lengthAdjust="spacing" textLength="166.3242" x="195.6948" y="2636.8032">Redirigir a pantalla de login</text><ellipse cx="278.8569" cy="2691.6333" fill="none" rx="10" ry="10" style="stroke:#222222;stroke-width:1.5;"/><line style="stroke:#222222;stroke-width:2.5;" x1="272.6697" x2="285.0441" y1="2685.4461" y2="2697.8205"/><line style="stroke:#222222;stroke-width:2.5;" x1="285.0441" x2="272.6697" y1="2685.4461" y2="2697.8205"/><line style="stroke:#181818;stroke-width:1;" x1="278.8569" x2="278.8569" y1="147.5625" y2="167.5625"/><polygon fill="#181818" points="274.8569,157.5625,278.8569,167.5625,282.8569,157.5625,278.8569,161.5625" style="stroke:#181818;stroke-width:1;"/><line style="stroke:#181818;stroke-width:1;" x1="278.8569" x2="278.8569" y1="201.5313" y2="221.5313"/><polygon fill="#181818" points="274.8569,211.5313,278.8569,221.5313,282.8569,211.5313,278.8569,215.5313" style="stroke:#181818;stroke-width:1;"/><line style="stroke:#181818;stroke-width:1;" x1="278.8569" x2="278.8569" y1="255.5" y2="275.5"/><polygon fill="#181818" points="274.8569,265.5,278.8569,275.5,282.8569,265.5,278.8569,269.5" style="stroke:#181818;stroke-width:1;"/><line style="stroke:#181818;stroke-width:1;" x1="278.8569" x2="278.8569" y1="67.2969" y2="113.5938"/><polygon fill="#181818" points="274.8569,103.5938,278.8569,113.5938,282.8569,103.5938,278.8569,107.5938" style="stroke:#181818;stroke-width:1;"/><line style="stroke:#181818;stroke-width:1;" x1="160.4238" x2="160.4238" y1="489.7031" y2="523.6719"/><polygon fill="#181818" points="156.4238,513.6719,160.4238,523.6719,164.4238,513.6719,160.4238,517.6719" style="stroke:#181818;stroke-width:1;"/><line style="stroke:#181818;stroke-width:1;" x1="207.2351" x2="160.4238" y1="433.7344" y2="433.7344"/><line style="stroke:#181818;stroke-width:1;" x1="160.4238" x2="160.4238" y1="433.7344" y2="455.7344"/><polygon fill="#181818" points="156.4238,445.7344,160.4238,455.7344,164.4238,445.7344,160.4238,449.7344" style="stroke:#181818;stroke-width:1;"/><line style="stroke:#181818;stroke-width:1;" x1="350.4788" x2="397.29" y1="433.7344" y2="433.7344"/><line style="stroke:#181818;stroke-width:1;" x1="397.29" x2="397.29" y1="433.7344" y2="455.7344"/><polygon fill="#181818" points="393.29,445.7344,397.29,455.7344,401.29,445.7344,397.29,449.7344" style="stroke:#181818;stroke-width:1;"/><line style="stroke:#181818;stroke-width:1;" x1="160.4238" x2="160.4238" y1="571.6094" y2="595.5083"/><line style="stroke:#181818;stroke-width:1;" x1="160.4238" x2="266.8569" y1="595.5083" y2="595.5083"/><polygon fill="#181818" points="256.8569,591.5083,266.8569,595.5083,256.8569,599.5083,260.8569,595.5083" style="stroke:#181818;stroke-width:1;"/><line style="stroke:#181818;stroke-width:1;" x1="397.29" x2="397.29" y1="503.6719" y2="595.5083"/><line style="stroke:#181818;stroke-width:1;" x1="397.29" x2="290.8569" y1="595.5083" y2="595.5083"/><polygon fill="#181818" points="300.8569,591.5083,290.8569,595.5083,300.8569,599.5083,296.8569,595.5083" style="stroke:#181818;stroke-width:1;"/><line style="stroke:#181818;stroke-width:1;" x1="278.8569" x2="278.8569" y1="401.7344" y2="421.7344"/><polygon fill="#181818" points="274.8569,411.7344,278.8569,421.7344,282.8569,411.7344,278.8569,415.7344" style="stroke:#181818;stroke-width:1;"/><line style="stroke:#181818;stroke-width:1;" x1="278.8569" x2="278.8569" y1="309.4688" y2="367.7656"/><polygon fill="#181818" points="274.8569,357.7656,278.8569,367.7656,282.8569,357.7656,278.8569,361.7656" style="stroke:#181818;stroke-width:1;"/><line style="stroke:#181818;stroke-width:1;" x1="278.8569" x2="278.8569" y1="802.145" y2="822.145"/><polygon fill="#181818" points="274.8569,812.145,278.8569,822.145,282.8569,812.145,278.8569,816.145" style="stroke:#181818;stroke-width:1;"/><line style="stroke:#181818;stroke-width:1;" x1="364.3003" x2="364.3003" y1="958.0513" y2="978.0513"/><polygon fill="#181818" points="360.3003,968.0513,364.3003,978.0513,368.3003,968.0513,364.3003,972.0513" style="stroke:#181818;stroke-width:1;"/><line style="stroke:#181818;stroke-width:1;" x1="364.3003" x2="364.3003" y1="1025.9888" y2="1045.9888"/><polygon fill="#181818" points="360.3003,1035.9888,364.3003,1045.9888,368.3003,1035.9888,364.3003,1039.9888" style="stroke:#181818;stroke-width:1;"/><line style="stroke:#181818;stroke-width:1;" x1="223.3914" x2="193.4136" y1="902.0825" y2="902.0825"/><line style="stroke:#181818;stroke-width:1;" x1="193.4136" x2="193.4136" y1="902.0825" y2="924.0825"/><polygon fill="#181818" points="189.4136,914.0825,193.4136,924.0825,197.4136,914.0825,193.4136,918.0825" style="stroke:#181818;stroke-width:1;"/><line style="stroke:#181818;stroke-width:1;" x1="334.3225" x2="364.3003" y1="902.0825" y2="902.0825"/><line style="stroke:#181818;stroke-width:1;" x1="364.3003" x2="364.3003" y1="902.0825" y2="924.0825"/><polygon fill="#181818" points="360.3003,914.0825,364.3003,924.0825,368.3003,914.0825,364.3003,918.0825" style="stroke:#181818;stroke-width:1;"/><line style="stroke:#181818;stroke-width:1;" x1="193.4136" x2="193.4136" y1="958.0513" y2="1097.9575"/><line style="stroke:#181818;stroke-width:1;" x1="193.4136" x2="266.8569" y1="1097.9575" y2="1097.9575"/><polygon fill="#181818" points="256.8569,1093.9575,266.8569,1097.9575,256.8569,1101.9575,260.8569,1097.9575" style="stroke:#181818;stroke-width:1;"/><line style="stroke:#181818;stroke-width:1;" x1="364.3003" x2="364.3003" y1="1079.9575" y2="1097.9575"/><line style="stroke:#181818;stroke-width:1;" x1="364.3003" x2="290.8569" y1="1097.9575" y2="1097.9575"/><polygon fill="#181818" points="300.8569,1093.9575,290.8569,1097.9575,300.8569,1101.9575,296.8569,1097.9575" style="stroke:#181818;stroke-width:1;"/><line style="stroke:#181818;stroke-width:1;" x1="278.8569" x2="278.8569" y1="870.0825" y2="890.0825"/><polygon fill="#181818" points="274.8569,880.0825,278.8569,890.0825,282.8569,880.0825,278.8569,884.0825" style="stroke:#181818;stroke-width:1;"/><line style="stroke:#181818;stroke-width:1;" x1="278.8569" x2="278.8569" y1="743.7739" y2="768.1763"/><polygon fill="#181818" points="274.8569,758.1763,278.8569,768.1763,282.8569,758.1763,278.8569,762.1763" style="stroke:#181818;stroke-width:1;"/><line style="stroke:#181818;stroke-width:1;" x1="371.281" x2="468.3687" y1="731.7739" y2="731.7739"/><polygon fill="#181818" points="464.3687,929.0669,468.3687,939.0669,472.3687,929.0669,468.3687,933.0669" style="stroke:#181818;stroke-width:1;"/><line style="stroke:#181818;stroke-width:1;" x1="468.3687" x2="468.3687" y1="731.7739" y2="1141.9575"/><line style="stroke:#181818;stroke-width:1;" x1="468.3687" x2="290.8569" y1="1141.9575" y2="1141.9575"/><polygon fill="#181818" points="300.8569,1137.9575,290.8569,1141.9575,300.8569,1145.9575,296.8569,1141.9575" style="stroke:#181818;stroke-width:1;"/><line style="stroke:#181818;stroke-width:1;" x1="278.8569" x2="278.8569" y1="1109.9575" y2="1129.9575"/><polygon fill="#181818" points="274.8569,1119.9575,278.8569,1129.9575,282.8569,1119.9575,278.8569,1123.9575" style="stroke:#181818;stroke-width:1;"/><line style="stroke:#181818;stroke-width:1;" x1="278.8569" x2="278.8569" y1="699.7739" y2="719.7739"/><polygon fill="#181818" points="274.8569,709.7739,278.8569,719.7739,282.8569,709.7739,278.8569,713.7739" style="stroke:#181818;stroke-width:1;"/><line style="stroke:#181818;stroke-width:1;" x1="278.8569" x2="278.8569" y1="607.5083" y2="665.8052"/><polygon fill="#181818" points="274.8569,655.8052,278.8569,665.8052,282.8569,655.8052,278.8569,659.8052" style="stroke:#181818;stroke-width:1;"/><line style="stroke:#181818;stroke-width:1;" x1="278.8569" x2="278.8569" y1="1294.6255" y2="1314.6255"/><polygon fill="#181818" points="274.8569,1304.6255,278.8569,1314.6255,282.8569,1304.6255,278.8569,1308.6255" style="stroke:#181818;stroke-width:1;"/><line style="stroke:#181818;stroke-width:1;" x1="278.8569" x2="278.8569" y1="1362.563" y2="1382.563"/><polygon fill="#181818" points="274.8569,1372.563,278.8569,1382.563,282.8569,1372.563,278.8569,1376.563" style="stroke:#181818;stroke-width:1;"/><line style="stroke:#181818;stroke-width:1;" x1="278.8569" x2="278.8569" y1="1430.5005" y2="1450.5005"/><polygon fill="#181818" points="274.8569,1440.5005,278.8569,1450.5005,282.8569,1440.5005,278.8569,1444.5005" style="stroke:#181818;stroke-width:1;"/><line style="stroke:#181818;stroke-width:1;" x1="278.8569" x2="278.8569" y1="1484.4692" y2="1504.4692"/><polygon fill="#181818" points="274.8569,1494.4692,278.8569,1504.4692,282.8569,1494.4692,278.8569,1498.4692" style="stroke:#181818;stroke-width:1;"/><line style="stroke:#181818;stroke-width:1;" x1="278.8569" x2="278.8569" y1="1236.2544" y2="1260.6567"/><polygon fill="#181818" points="274.8569,1250.6567,278.8569,1260.6567,282.8569,1250.6567,278.8569,1254.6567" style="stroke:#181818;stroke-width:1;"/><line style="stroke:#181818;stroke-width:1;" x1="383.8359" x2="403.2417" y1="1224.2544" y2="1224.2544"/><polygon fill="#181818" points="399.2417,1389.5474,403.2417,1399.5474,407.2417,1389.5474,403.2417,1393.5474" style="stroke:#181818;stroke-width:1;"/><line style="stroke:#181818;stroke-width:1;" x1="403.2417" x2="403.2417" y1="1224.2544" y2="1570.438"/><line style="stroke:#181818;stroke-width:1;" x1="403.2417" x2="290.8569" y1="1570.438" y2="1570.438"/><polygon fill="#181818" points="300.8569,1566.438,290.8569,1570.438,300.8569,1574.438,296.8569,1570.438" style="stroke:#181818;stroke-width:1;"/><line style="stroke:#181818;stroke-width:1;" x1="278.8569" x2="278.8569" y1="1538.438" y2="1558.438"/><polygon fill="#181818" points="274.8569,1548.438,278.8569,1558.438,282.8569,1548.438,278.8569,1552.438" style="stroke:#181818;stroke-width:1;"/><line style="stroke:#181818;stroke-width:1;" x1="278.8569" x2="278.8569" y1="1153.9575" y2="1212.2544"/><polygon fill="#181818" points="274.8569,1202.2544,278.8569,1212.2544,282.8569,1202.2544,278.8569,1206.2544" style="stroke:#181818;stroke-width:1;"/><line style="stroke:#181818;stroke-width:1;" x1="149.3408" x2="149.3408" y1="1776.6411" y2="1810.6099"/><polygon fill="#181818" points="145.3408,1800.6099,149.3408,1810.6099,153.3408,1800.6099,149.3408,1804.6099" style="stroke:#181818;stroke-width:1;"/><line style="stroke:#181818;stroke-width:1;" x1="149.3408" x2="149.3408" y1="1844.5786" y2="1864.5786"/><polygon fill="#181818" points="145.3408,1854.5786,149.3408,1864.5786,153.3408,1854.5786,149.3408,1858.5786" style="stroke:#181818;stroke-width:1;"/><line style="stroke:#181818;stroke-width:1;" x1="149.3408" x2="149.3408" y1="1898.5474" y2="1918.5474"/><polygon fill="#181818" points="145.3408,1908.5474,149.3408,1918.5474,153.3408,1908.5474,149.3408,1912.5474" style="stroke:#181818;stroke-width:1;"/><line style="stroke:#181818;stroke-width:1;" x1="210.8901" x2="149.3408" y1="1720.6724" y2="1720.6724"/><line style="stroke:#181818;stroke-width:1;" x1="149.3408" x2="149.3408" y1="1720.6724" y2="1742.6724"/><polygon fill="#181818" points="145.3408,1732.6724,149.3408,1742.6724,153.3408,1732.6724,149.3408,1736.6724" style="stroke:#181818;stroke-width:1;"/><line style="stroke:#181818;stroke-width:1;" x1="346.8237" x2="408.373" y1="1720.6724" y2="1720.6724"/><line style="stroke:#181818;stroke-width:1;" x1="408.373" x2="408.373" y1="1720.6724" y2="1742.6724"/><polygon fill="#181818" points="404.373,1732.6724,408.373,1742.6724,412.373,1732.6724,408.373,1736.6724" style="stroke:#181818;stroke-width:1;"/><line style="stroke:#181818;stroke-width:1;" x1="149.3408" x2="149.3408" y1="1966.4849" y2="1984.4849"/><line style="stroke:#181818;stroke-width:1;" x1="149.3408" x2="266.8569" y1="1984.4849" y2="1984.4849"/><polygon fill="#181818" points="256.8569,1980.4849,266.8569,1984.4849,256.8569,1988.4849,260.8569,1984.4849" style="stroke:#181818;stroke-width:1;"/><line style="stroke:#181818;stroke-width:1;" x1="408.373" x2="408.373" y1="1790.6099" y2="1984.4849"/><line style="stroke:#181818;stroke-width:1;" x1="408.373" x2="290.8569" y1="1984.4849" y2="1984.4849"/><polygon fill="#181818" points="300.8569,1980.4849,290.8569,1984.4849,300.8569,1988.4849,296.8569,1984.4849" style="stroke:#181818;stroke-width:1;"/><line style="stroke:#181818;stroke-width:1;" x1="278.8569" x2="278.8569" y1="1688.6724" y2="1708.6724"/><polygon fill="#181818" points="274.8569,1698.6724,278.8569,1708.6724,282.8569,1698.6724,278.8569,1702.6724" style="stroke:#181818;stroke-width:1;"/><line style="stroke:#181818;stroke-width:1;" x1="278.8569" x2="278.8569" y1="1582.438" y2="1640.7349"/><polygon fill="#181818" points="274.8569,1630.7349,278.8569,1640.7349,282.8569,1630.7349,278.8569,1634.7349" style="stroke:#181818;stroke-width:1;"/><line style="stroke:#181818;stroke-width:1;" x1="278.8569" x2="278.8569" y1="2137.1528" y2="2157.1528"/><polygon fill="#181818" points="274.8569,2147.1528,278.8569,2157.1528,282.8569,2147.1528,278.8569,2151.1528" style="stroke:#181818;stroke-width:1;"/><line style="stroke:#181818;stroke-width:1;" x1="278.8569" x2="278.8569" y1="2205.0903" y2="2225.0903"/><polygon fill="#181818" points="274.8569,2215.0903,278.8569,2225.0903,282.8569,2215.0903,278.8569,2219.0903" style="stroke:#181818;stroke-width:1;"/><line style="stroke:#181818;stroke-width:1;" x1="278.8569" x2="278.8569" y1="2303.0591" y2="2327.4614"/><polygon fill="#181818" points="274.8569,2317.4614,278.8569,2327.4614,282.8569,2317.4614,278.8569,2321.4614" style="stroke:#181818;stroke-width:1;"/><line style="stroke:#181818;stroke-width:1;" x1="320.3308" x2="366.3013" y1="2291.0591" y2="2291.0591"/><polygon fill="#181818" points="362.3013,2334.4458,366.3013,2344.4458,370.3013,2334.4458,366.3013,2338.4458" style="stroke:#181818;stroke-width:1;"/><line style="stroke:#181818;stroke-width:1;" x1="366.3013" x2="366.3013" y1="2291.0591" y2="2393.4302"/><line style="stroke:#181818;stroke-width:1;" x1="366.3013" x2="290.8569" y1="2393.4302" y2="2393.4302"/><polygon fill="#181818" points="300.8569,2389.4302,290.8569,2393.4302,300.8569,2397.4302,296.8569,2393.4302" style="stroke:#181818;stroke-width:1;"/><line style="stroke:#181818;stroke-width:1;" x1="278.8569" x2="278.8569" y1="2361.4302" y2="2381.4302"/><polygon fill="#181818" points="274.8569,2371.4302,278.8569,2381.4302,282.8569,2371.4302,278.8569,2375.4302" style="stroke:#181818;stroke-width:1;"/><line style="stroke:#181818;stroke-width:1;" x1="278.8569" x2="278.8569" y1="2259.0591" y2="2279.0591"/><polygon fill="#181818" points="274.8569,2269.0591,278.8569,2279.0591,282.8569,2269.0591,278.8569,2273.0591" style="stroke:#181818;stroke-width:1;"/><line style="stroke:#181818;stroke-width:1;" x1="278.8569" x2="278.8569" y1="2078.7817" y2="2103.1841"/><polygon fill="#181818" points="274.8569,2093.1841,278.8569,2103.1841,282.8569,2093.1841,278.8569,2097.1841" style="stroke:#181818;stroke-width:1;"/><line style="stroke:#181818;stroke-width:1;" x1="376.9207" x2="390.2983" y1="2066.7817" y2="2066.7817"/><polygon fill="#181818" points="386.2983,2239.0083,390.2983,2249.0083,394.2983,2239.0083,390.2983,2243.0083" style="stroke:#181818;stroke-width:1;"/><line style="stroke:#181818;stroke-width:1;" x1="390.2983" x2="390.2983" y1="2066.7817" y2="2437.4302"/><line style="stroke:#181818;stroke-width:1;" x1="390.2983" x2="290.8569" y1="2437.4302" y2="2437.4302"/><polygon fill="#181818" points="300.8569,2433.4302,290.8569,2437.4302,300.8569,2441.4302,296.8569,2437.4302" style="stroke:#181818;stroke-width:1;"/><line style="stroke:#181818;stroke-width:1;" x1="278.8569" x2="278.8569" y1="2405.4302" y2="2425.4302"/><polygon fill="#181818" points="274.8569,2415.4302,278.8569,2425.4302,282.8569,2415.4302,278.8569,2419.4302" style="stroke:#181818;stroke-width:1;"/><line style="stroke:#181818;stroke-width:1;" x1="278.8569" x2="278.8569" y1="2449.4302" y2="2469.4302"/><polygon fill="#181818" points="274.8569,2459.4302,278.8569,2469.4302,282.8569,2459.4302,278.8569,2463.4302" style="stroke:#181818;stroke-width:1;"/><line style="stroke:#181818;stroke-width:1;" x1="278.8569" x2="278.8569" y1="1996.4849" y2="2054.7817"/><polygon fill="#181818" points="274.8569,2044.7817,278.8569,2054.7817,282.8569,2044.7817,278.8569,2048.7817" style="stroke:#181818;stroke-width:1;"/><line style="stroke:#181818;stroke-width:1;" x1="278.8569" x2="278.8569" y1="2595.6646" y2="2615.6646"/><polygon fill="#181818" points="274.8569,2605.6646,278.8569,2615.6646,282.8569,2605.6646,278.8569,2609.6646" style="stroke:#181818;stroke-width:1;"/><line style="stroke:#181818;stroke-width:1;" x1="278.8569" x2="278.8569" y1="2503.3989" y2="2561.6958"/><polygon fill="#181818" points="274.8569,2551.6958,278.8569,2561.6958,282.8569,2551.6958,278.8569,2555.6958" style="stroke:#181818;stroke-width:1;"/><line style="stroke:#181818;stroke-width:1;" x1="278.8569" x2="278.8569" y1="2649.6333" y2="2681.6333"/><polygon fill="#181818" points="274.8569,2671.6333,278.8569,2681.6333,282.8569,2671.6333,278.8569,2675.6333" style="stroke:#181818;stroke-width:1;"/><!--SRC=[ZLN1Rjn63BtlLn3APGtOICvU88MzIHC3QGusx4kT0pNYhfcCPXQSaHgtwCVqw8CFHMwz1AX-h1nfPEtMwy1NpIFv-FX8HOwMu3AGmC_M_mP7y85ByV3MaedIVNDiF5G4I-dkAeu-p6RX2xiD2jQ09dBByVOYtceIyOshg590H8cpcM8YH_OEYilGeB0lu8yPmF59AIo0cmsG0xBWiAKrLbuMwVLAgMpGHRGMKsNhr-pwbpEt5Weeq0pfu1QCTr4mKFStzf2bPPEo5cTAd1KQAB1sKIncV-umkk0GgSRCw0ejLuesGXKv3RGKKZvUmNovzGtQxg-433yTGBpHElFGtHyeC9KMckebufdb8Z-ZhFLTOszAZr9TkxasqzJKOuqo8q7jICj8n72GmiW6WhdpkS8lFcYp0XeJy3EbE1BnSkr6WS5lAmBiZ1VHGVfG33IENiElhRUjQeo3if_WHOdcop5SZP_tYa-kujN_DDoTwZcrd8PJTtTHs62OcXcb_FVxHp8gK4HOKqX9akQMoKNQ9-cPqh6Qy5lLM0_5CYDpByUdJJ1JWcktyGBErwMGwg0J7GgFfNCqqDSq-iVLDE45gUlD3gqXm-uWjdtsiQ7MZ-1CJD_ViELrxng1bPUwiKafdVd0xt2WTmYHR7Utyfhv8VITYbez8j3B_umn3BsUqve7hnXVRzHNAyOAaogbrdf2wIsXnsKVbTuZZFQYASeq0jtSv9NQjrodDnzoDyTwHTQwwf4tVXUXqSjjPY_Xf9nKc3QzLZVxGrYHkKdB8RGYwMKTjsgSmwZQLA9uohPFh7wsHt_Jb9zMwul3QtWr-dV0cdx1ysRX7Z4dzISsYQIkrEcRJFp4n4Qp_PvE1jggbqVVJQDWV8mP151Czu-DNFkjp8lTuw3xlsAfCylRQ-TwXmv5T9kshjAppyjyK8BTSFxwCvFbOZS8Th1ulZkNteN6way2RbGdBtfQDQEGxk_JTm2AzoEuK7Hndk6ZHKysQeMa5DieFYZfJ36xHvUjwkxrAlK-51ojbdutwH0hdyg7DAQ8fSNjo_7sQog5ilTcF3XmHC7oughOjxNz_qaLdVuIF_ufdRasU_C1tfkhOk6qLNiljIRKQly1]--></g></svg>