<svg xmlns="http://www.w3.org/2000/svg" xmlns:xlink="http://www.w3.org/1999/xlink" contentStyleType="text/css" data-diagram-type="MINDMAP" height="697px" preserveAspectRatio="none" style="width:1206px;height:697px;background:#FFFFFF;" version="1.1" viewBox="0 0 1206 697" width="1206px" zoomAndPan="magnify"><defs/><g><rect fill="#F1F1F1" height="36.2969" rx="12.5" ry="12.5" style="stroke:#181818;stroke-width:1.5;" width="353.5801" x="10" y="329.6328"/><text fill="#000000" font-family="sans-serif" font-size="14" lengthAdjust="spacing" textLength="333.5801" x="20" y="352.6279">Mapa de Usuario - Libro Electr&#243;nico de Cr&#233;ditos</text><rect fill="#F1F1F1" height="36.2969" rx="12.5" ry="12.5" style="stroke:#181818;stroke-width:1.5;" width="146.7178" x="413.5801" y="76.2969"/><text fill="#000000" font-family="sans-serif" font-size="14" lengthAdjust="spacing" textLength="126.7178" x="423.5801" y="99.292">Gestionar clientes</text><rect fill="#F1F1F1" height="36.2969" rx="12.5" ry="12.5" style="stroke:#181818;stroke-width:1.5;" width="226.8008" x="610.2979" y="20"/><text fill="#000000" font-family="sans-serif" font-size="14" lengthAdjust="spacing" textLength="206.8008" x="620.2979" y="42.9951">HU1 - Registrar nuevo cliente</text><path d="M560.2979,94.4453 L570.2979,94.4453 C585.2979,94.4453 585.2979,38.1484 600.2979,38.1484 L610.2979,38.1484" fill="none" style="stroke:#181818;stroke-width:1;"/><rect fill="#F1F1F1" height="36.2969" rx="12.5" ry="12.5" style="stroke:#181818;stroke-width:1.5;" width="306.3848" x="610.2979" y="76.2969"/><text fill="#000000" font-family="sans-serif" font-size="14" lengthAdjust="spacing" textLength="286.3848" x="620.2979" y="99.292">HU2 - Buscar clientes por nombre o alias</text><path d="M560.2979,94.4453 L570.2979,94.4453 C585.2979,94.4453 585.2979,94.4453 600.2979,94.4453 L610.2979,94.4453" fill="none" style="stroke:#181818;stroke-width:1;"/><rect fill="#F1F1F1" height="36.2969" rx="12.5" ry="12.5" style="stroke:#181818;stroke-width:1.5;" width="221.8105" x="610.2979" y="132.5938"/><text fill="#000000" font-family="sans-serif" font-size="14" lengthAdjust="spacing" textLength="201.8105" x="620.2979" y="155.5889">HU8 - Editar datos de cliente</text><path d="M560.2979,94.4453 L570.2979,94.4453 C585.2979,94.4453 585.2979,150.7422 600.2979,150.7422 L610.2979,150.7422" fill="none" style="stroke:#181818;stroke-width:1;"/><path d="M363.5801,347.7813 L373.5801,347.7813 C388.5801,347.7813 388.5801,94.4453 403.5801,94.4453 L413.5801,94.4453" fill="none" style="stroke:#181818;stroke-width:1;"/><rect fill="#F1F1F1" height="36.2969" rx="12.5" ry="12.5" style="stroke:#181818;stroke-width:1.5;" width="210.2783" x="413.5801" y="273.3359"/><text fill="#000000" font-family="sans-serif" font-size="14" lengthAdjust="spacing" textLength="190.2783" x="423.5801" y="296.3311">Registrar y ajustar cr&#233;ditos</text><rect fill="#F1F1F1" height="36.2969" rx="12.5" ry="12.5" style="stroke:#181818;stroke-width:1.5;" width="409.498" x="673.8584" y="188.8906"/><text fill="#000000" font-family="sans-serif" font-size="14" lengthAdjust="spacing" textLength="389.498" x="683.8584" y="211.8857">HU3 - Registrar compra fiada para calcular nuevo saldo</text><path d="M623.8584,291.4844 L633.8584,291.4844 C648.8584,291.4844 648.8584,207.0391 663.8584,207.0391 L673.8584,207.0391" fill="none" style="stroke:#181818;stroke-width:1;"/><rect fill="#F1F1F1" height="36.2969" rx="12.5" ry="12.5" style="stroke:#181818;stroke-width:1.5;" width="330.1943" x="673.8584" y="245.1875"/><text fill="#000000" font-family="sans-serif" font-size="14" lengthAdjust="spacing" textLength="310.1943" x="683.8584" y="268.1826">HU4 - Registrar abonos para disminuir saldo</text><path d="M623.8584,291.4844 L633.8584,291.4844 C648.8584,291.4844 648.8584,263.3359 663.8584,263.3359 L673.8584,263.3359" fill="none" style="stroke:#181818;stroke-width:1;"/><rect fill="#F1F1F1" height="36.2969" rx="12.5" ry="12.5" style="stroke:#181818;stroke-width:1.5;" width="344.5703" x="673.8584" y="301.4844"/><text fill="#000000" font-family="sans-serif" font-size="14" lengthAdjust="spacing" textLength="324.5703" x="683.8584" y="324.4795">HU5 - Ver historial de movimientos por cliente</text><path d="M623.8584,291.4844 L633.8584,291.4844 C648.8584,291.4844 648.8584,319.6328 663.8584,319.6328 L673.8584,319.6328" fill="none" style="stroke:#181818;stroke-width:1;"/><rect fill="#F1F1F1" height="36.2969" rx="12.5" ry="12.5" style="stroke:#181818;stroke-width:1.5;" width="285.8291" x="673.8584" y="357.7813"/><text fill="#000000" font-family="sans-serif" font-size="14" lengthAdjust="spacing" textLength="265.8291" x="683.8584" y="380.7764">HU9 - Anular un movimiento por error</text><path d="M623.8584,291.4844 L633.8584,291.4844 C648.8584,291.4844 648.8584,375.9297 663.8584,375.9297 L673.8584,375.9297" fill="none" style="stroke:#181818;stroke-width:1;"/><path d="M363.5801,347.7813 L373.5801,347.7813 C388.5801,347.7813 388.5801,291.4844 403.5801,291.4844 L413.5801,291.4844" fill="none" style="stroke:#181818;stroke-width:1;"/><rect fill="#F1F1F1" height="36.2969" rx="12.5" ry="12.5" style="stroke:#181818;stroke-width:1.5;" width="231.415" x="413.5801" y="442.2266"/><text fill="#000000" font-family="sans-serif" font-size="14" lengthAdjust="spacing" textLength="211.415" x="423.5801" y="465.2217">Controlar cartera y morosidad</text><rect fill="#F1F1F1" height="36.2969" rx="12.5" ry="12.5" style="stroke:#181818;stroke-width:1.5;" width="288.7344" x="694.9951" y="414.0781"/><text fill="#000000" font-family="sans-serif" font-size="14" lengthAdjust="spacing" textLength="268.7344" x="704.9951" y="437.0732">HU6 - Reportes de saldos y morosidad</text><path d="M644.9951,460.375 L654.9951,460.375 C669.9951,460.375 669.9951,432.2266 684.9951,432.2266 L694.9951,432.2266" fill="none" style="stroke:#181818;stroke-width:1;"/><rect fill="#F1F1F1" height="36.2969" rx="12.5" ry="12.5" style="stroke:#181818;stroke-width:1.5;" width="381.0195" x="694.9951" y="470.375"/><text fill="#000000" font-family="sans-serif" font-size="14" lengthAdjust="spacing" textLength="361.0195" x="704.9951" y="493.3701">HU10 - Ver alertas de morosidad por d&#237;as de atraso</text><path d="M644.9951,460.375 L654.9951,460.375 C669.9951,460.375 669.9951,488.5234 684.9951,488.5234 L694.9951,488.5234" fill="none" style="stroke:#181818;stroke-width:1;"/><path d="M363.5801,347.7813 L373.5801,347.7813 C388.5801,347.7813 388.5801,460.375 403.5801,460.375 L413.5801,460.375" fill="none" style="stroke:#181818;stroke-width:1;"/><rect fill="#F1F1F1" height="36.2969" rx="12.5" ry="12.5" style="stroke:#181818;stroke-width:1.5;" width="248.6689" x="413.5801" y="526.6719"/><text fill="#000000" font-family="sans-serif" font-size="14" lengthAdjust="spacing" textLength="228.6689" x="423.5801" y="549.667">Administrar seguridad y accesos</text><rect fill="#F1F1F1" height="36.2969" rx="12.5" ry="12.5" style="stroke:#181818;stroke-width:1.5;" width="408.8418" x="712.249" y="526.6719"/><text fill="#000000" font-family="sans-serif" font-size="14" lengthAdjust="spacing" textLength="388.8418" x="722.249" y="549.667">HU7 - Gestionar roles y permisos (propietario / auxiliar)</text><path d="M662.249,544.8203 L672.249,544.8203 C687.249,544.8203 687.249,544.8203 702.249,544.8203 L712.249,544.8203" fill="none" style="stroke:#181818;stroke-width:1;"/><path d="M363.5801,347.7813 L373.5801,347.7813 C388.5801,347.7813 388.5801,544.8203 403.5801,544.8203 L413.5801,544.8203" fill="none" style="stroke:#181818;stroke-width:1;"/><rect fill="#F1F1F1" height="36.2969" rx="12.5" ry="12.5" style="stroke:#181818;stroke-width:1.5;" width="330.4268" x="413.5801" y="611.1172"/><text fill="#000000" font-family="sans-serif" font-size="14" lengthAdjust="spacing" textLength="310.4268" x="423.5801" y="634.1123">Asegurar disponibilidad y uso en el d&#237;a a d&#237;a</text><rect fill="#F1F1F1" height="36.2969" rx="12.5" ry="12.5" style="stroke:#181818;stroke-width:1.5;" width="400.5771" x="794.0068" y="582.9688"/><text fill="#000000" font-family="sans-serif" font-size="14" lengthAdjust="spacing" textLength="380.5771" x="804.0068" y="605.9639">HU11 - Backups diarios autom&#225;ticos de la informaci&#243;n</text><path d="M744.0068,629.2656 L754.0068,629.2656 C769.0068,629.2656 769.0068,601.1172 784.0068,601.1172 L794.0068,601.1172" fill="none" style="stroke:#181818;stroke-width:1;"/><rect fill="#F1F1F1" height="36.2969" rx="12.5" ry="12.5" style="stroke:#181818;stroke-width:1.5;" width="345.8623" x="794.0068" y="639.2656"/><text fill="#000000" font-family="sans-serif" font-size="14" lengthAdjust="spacing" textLength="325.8623" x="804.0068" y="662.2607">HU12 - Interfaz responsiva para uso en celular</text><path d="M744.0068,629.2656 L754.0068,629.2656 C769.0068,629.2656 769.0068,657.4141 784.0068,657.4141 L794.0068,657.4141" fill="none" style="stroke:#181818;stroke-width:1;"/><path d="M363.5801,347.7813 L373.5801,347.7813 C388.5801,347.7813 388.5801,629.2656 403.5801,629.2656 L413.5801,629.2656" fill="none" style="stroke:#181818;stroke-width:1;"/><!--SRC=[RLFDKXD14BxlK_IHf0ea4H0vyIkAIKc1uTwPxSIMtUcjdfael8r73vvyXBoOFPiD95MUiZNp_VPqJaD4ZJNxiiQcwCCO6uIIO18IAWlimeYdAd1LaOkw_ElPIRw_qENlagE4ej-7QmgHnQE2gvXyf7pQXu-JWV7lQCuXgbtwH0jPGph4q13dARWDBZHYMAcdIY205UDQxjZ0L-Pgu1BDEmTvbTjmUWBydd8pS1iviyJRhKHEwaOHPembGeFswR1ogNe96x0gfQCUR55nAjuIjAIIWqqmiMxX3mt_G0hVZ27AMEMujIoupebbrNDx6k-DSkPR_-Gti2sKL4LppmlnKIM3R6oHBC2JOLK2brXsIaTjMAFbWPfl6opy1pZOxs9YHHenh49scDQtNFvP7QCL3xaTd9NMjnj4e7dI5cnJTux2owpVcVBhQbXYoW4QqfeD13kDIiCKsprx0vX-ihsrzbg3LZM_CuT6F4_jQcMHWW1veAhD1TZ-hBlaVJj7zvWQ2ynPE9Xkb7hvAzhYjYqg1FOpqHeTspwlgNaHFzbBw0oVGIcx1bvqMz6PEghosnJ5AVbo_PyfRYlqSJ8UmO8qM5SOx0ttXuTxWy7KoWrt9lxHom_VBXjN195hwXKxrxSZ29BKKIuPbQSfJwfNtA3PtYMVSIVmfI5_S_bvVG1NVi4glhQrA6uUng-0euFTSuvmJsevu65SND8CKnMDuQHaFp-1oTSFkyV52FqyuToqoHSNOhhwP7Vt_m00]--></g></svg>